<svg id="correct" xmlns="http://www.w3.org/2000/svg" width="15.213" height="14.58" viewBox="0 0 15.213 14.58">
  <path id="Path_23" data-name="Path 23" d="M13.122,7.37l-.34-.967L9.11,10.074a1.9,1.9,0,0,1-2.689,0L3.728,7.38A1.9,1.9,0,1,1,6.416,4.692L7.766,6.041l3.615-3.615-.243-.691-.112-.671A1.254,1.254,0,0,0,9.06.249L7.3,1.524,5.517.246a1.253,1.253,0,0,0-1.962.816L3.21,3.209,1.05,3.568A1.254,1.254,0,0,0,.237,5.535L1.511,7.3.233,9.077a1.253,1.253,0,0,0,.816,1.962l2.147.345.359,2.159a1.253,1.253,0,0,0,1.967.814l1.761-1.275L9.06,14.358a1.254,1.254,0,0,0,1.966-.813l.345-2.147,2.159-.359a1.253,1.253,0,0,0,.814-1.967Zm0,0" transform="translate(-0.001 -0.014)" fill="#52a6c4"/>
  <path id="Path_24" data-name="Path 24" d="M152.678,50.788a.632.632,0,0,1-.448-.186l-2.694-2.694a.634.634,0,1,1,.9-.9l2.246,2.246,6.366-6.366a.634.634,0,1,1,.9.9L153.126,50.6A.632.632,0,0,1,152.678,50.788Zm0,0" transform="translate(-144.913 -41.438)" fill="#ffc6bf"/>
</svg>
