<svg xmlns="http://www.w3.org/2000/svg" width="1562" height="510.289" viewBox="0 0 1562 510.289">
  <g id="data-analytics" transform="translate(-178 -1272.525)">
    <g id="Group_28634" data-name="Group 28634" transform="translate(0 38)">
      <text id="Fast_and_Efficient_" data-name="Fast and Efficient " transform="translate(312 1520)" fill="#fff" font-size="30" font-family="SegoeUI-Semibold, Segoe UI" font-weight="600"><tspan x="-119.875" y="0">Fast and Efficient </tspan></text>
      <g id="Group_27900" data-name="Group 27900" transform="translate(-204 -180)">
        <rect id="Rectangle_14103" data-name="Rectangle 14103" width="96" height="96" rx="10" transform="translate(394 1545)" fill="#e9eaed" opacity="0.2"/>
        <g id="Group_27899" data-name="Group 27899">
          <rect id="Rectangle_14100" data-name="Rectangle 14100" width="96" height="96" rx="10" transform="translate(384 1535)" fill="#fff"/>
          <g id="like_2_" data-name="like (2)" transform="translate(404 1546.2)">
            <path id="Path_15240" data-name="Path 15240" d="M54.332,44.666a3.427,3.427,0,0,0-.844-2.262,3.465,3.465,0,0,0,1.79-2.952A3.391,3.391,0,0,0,54.295,37a3.539,3.539,0,0,0-.82-.622,3.45,3.45,0,0,0-2.594-5.726h-6.2l2.374-5.057a4.316,4.316,0,0,0-2.07-5.734,4.271,4.271,0,0,0-1.829-.408,4.33,4.33,0,0,0-3.905,2.48l-1.238,2.638c-.039.083-.079.164-.12.245a.81.81,0,0,0,1.438.745c.051-.1.1-.2.148-.3l1.238-2.64a2.7,2.7,0,0,1,2.439-1.548,2.663,2.663,0,0,1,1.14.254A2.7,2.7,0,0,1,45.59,24.9l-2.9,6.173a.81.81,0,0,0,.045.772l.025.039a.81.81,0,0,0,.688.382h7.43a1.832,1.832,0,1,1,0,3.664.81.81,0,0,0,0,1.62h.89a1.927,1.927,0,0,1,1.368.578,1.785,1.785,0,0,1,.522,1.292,1.84,1.84,0,0,1-1.83,1.8h-.949a.81.81,0,0,0,0,1.62,1.832,1.832,0,1,1,0,3.663h-.948a.81.81,0,0,0,0,1.62,1.822,1.822,0,0,1,1.294.535,1.85,1.85,0,0,1,.4.607l.007.018a1.835,1.835,0,0,1-1.7,2.5h-14.4a3.862,3.862,0,0,1-2.306-.756,2.865,2.865,0,0,0,.165-.96V33.591s0-.007,0-.01,0,0,0-.005a4.719,4.719,0,0,1,.408-2.018,4.793,4.793,0,0,1,1.964-2.2,9.053,9.053,0,0,0,1.4-1.01A.81.81,0,1,0,36.1,27.128a7.434,7.434,0,0,1-1.148.83A6.4,6.4,0,0,0,32.323,30.9c-.051.114-.1.229-.141.345a2.861,2.861,0,0,0-1.665-.533h-4.08a2.881,2.881,0,0,0-2.877,2.878V43.747A15.17,15.17,0,0,0,0,56.393a15.245,15.245,0,0,0,.227,2.625.81.81,0,0,0,1.6-.28A13.566,13.566,0,0,1,1.644,57.2h2.2a.81.81,0,1,0,0-1.62h-2.2a13.46,13.46,0,0,1,1.41-5.255l.851.491a.81.81,0,1,0,.81-1.4l-.849-.49a13.669,13.669,0,0,1,3.846-3.846l.49.849a.81.81,0,1,0,1.4-.81l-.491-.851a13.46,13.46,0,0,1,5.255-1.41v2.2a.81.81,0,0,0,1.62,0v-2.2a13.459,13.459,0,0,1,5.255,1.41l-.491.851a.81.81,0,1,0,1.4.81l.49-.848a13.667,13.667,0,0,1,3.846,3.846l-.848.49a.81.81,0,1,0,.81,1.4l.851-.491a13.458,13.458,0,0,1,1.41,5.255h-2.2a.81.81,0,1,0,0,1.62h2.2A13.46,13.46,0,0,1,27.3,62.457l-.851-.491a.81.81,0,0,0-.81,1.4l.848.49A13.667,13.667,0,0,1,22.643,67.7l-.49-.848a.81.81,0,0,0-1.4.81l.491.851a13.458,13.458,0,0,1-5.255,1.41v-2.2a.81.81,0,0,0-1.62,0v2.2a13.54,13.54,0,0,1-5.257-1.4l.494-.856a.81.81,0,1,0-1.4-.81l-.5.857a13.526,13.526,0,0,1-3.848-3.85l.856-.494a.81.81,0,1,0-.81-1.4l-.854.493c-.129-.259-.253-.522-.367-.792a.81.81,0,0,0-1.492.631,15.18,15.18,0,0,0,28.767-9.353h.559a2.863,2.863,0,0,0,1.763-.606A5.469,5.469,0,0,0,35.537,53.4h14.4a3.455,3.455,0,0,0,3.222-4.691l-.011-.029a3.456,3.456,0,0,0-.6-.991,3.455,3.455,0,0,0,1.79-3.025ZM30.518,51.325H29.483a15.23,15.23,0,0,0-4.3-6.337v-11.4a1.26,1.26,0,0,1,1.258-1.259h4.08a1.26,1.26,0,0,1,1.259,1.259V50.066A1.26,1.26,0,0,1,30.518,51.325Z" transform="translate(0 -8.606)" fill="#3a404a"/>
            <path id="Path_15241" data-name="Path 15241" d="M63.6,303.841h0a2.643,2.643,0,0,0,2.64-2.64v-4.674a2.64,2.64,0,0,0-5.28,0v2.034H56.929a2.64,2.64,0,0,0,0,5.28Zm-1.021-7.314a1.021,1.021,0,0,1,2.041,0V301.2a1.021,1.021,0,0,1-2.041,0ZM55.909,301.2a1.022,1.022,0,0,1,1.021-1.021h4.036V301.2a2.626,2.626,0,0,0,.205,1.021H56.929A1.022,1.022,0,0,1,55.909,301.2Z" transform="translate(-48.427 -253.414)" fill="#3a404a"/>
            <path id="Path_15242" data-name="Path 15242" d="M184.746,15.174a2.277,2.277,0,0,0,2.15,1.532,2.251,2.251,0,0,0,.583-.077l.21-.056h0a2.275,2.275,0,0,0,1.639-2.627l-.453-2.315a2.268,2.268,0,0,0-2.813-1.755l-.522.14a2.268,2.268,0,0,0-1.559,2.927Zm.808-3.272a.642.642,0,0,1,.4-.322l.522-.14a.654.654,0,0,1,.17-.023.65.65,0,0,1,.635.525l.453,2.315a.651.651,0,0,1-.469.751l-.21.056a.651.651,0,0,1-.782-.416l-.765-2.231A.643.643,0,0,1,185.555,11.9Z" transform="translate(-164.008 0)" fill="#3a404a"/>
            <path id="Path_15243" data-name="Path 15243" d="M111.492,55.635l1.778,1.55a2.275,2.275,0,0,0,3.095-.106l.154-.154a2.275,2.275,0,0,0,.106-3.094l-1.55-1.778a2.268,2.268,0,0,0-3.314-.114l-.382.382a2.268,2.268,0,0,0,.114,3.314Zm1.032-2.169.382-.382a.642.642,0,0,1,.458-.19h.023a.643.643,0,0,1,.467.222L115.4,54.9a.651.651,0,0,1-.03.885l-.154.154a.651.651,0,0,1-.885.03l-1.778-1.55a.649.649,0,0,1-.033-.948Z" transform="translate(-98.76 -36.997)" fill="#3a404a"/>
            <path id="Path_15244" data-name="Path 15244" d="M71.069,129.436l2.315.453a2.269,2.269,0,0,0,2.627-1.639l.056-.21h0a2.275,2.275,0,0,0-1.455-2.733l-2.231-.765a2.268,2.268,0,0,0-2.927,1.559l-.14.522a2.268,2.268,0,0,0,1.755,2.813Zm-.191-2.394.14-.522a.65.65,0,0,1,.626-.481.65.65,0,0,1,.211.036l2.231.765a.651.651,0,0,1,.416.782l-.056.21a.651.651,0,0,1-.751.469l-2.315-.453a.649.649,0,0,1-.5-.8Z" transform="translate(-61.762 -102.245)" fill="#3a404a"/>
          </g>
        </g>
      </g>
      <text id="Lorem_ipsum_dolor_sit_amet_consectetur_adipiscing_elit_sed_do_eiusmod_tempor_incididunt_ut_labore_et_dolore_magna_aliqua._Ut_enim_ad_minim_veniam_quis_nostrud_exercitation_ullamco_laboris_nisi_ut_aliquip_ex_ea_commodo_consequat_Lorem_ipsum_dolor_sit_ame" data-name="Lorem ipsum dolor sit amet, consectetur adipiscing elit, sed do eiusmod tempor incididunt ut labore et dolore magna aliqua. Ut enim ad minim veniam, quis nostrud exercitation ullamco laboris nisi ut aliquip ex ea commodo consequat Lorem ipsum dolor sit ame" transform="translate(180 1557)" fill="#fff" font-size="20" font-family="SegoeUI, Segoe UI" opacity="0.5"><tspan x="0" y="22">Lorem ipsum dolor sit amet, consectetur </tspan><tspan x="0" y="50">adipiscing elit, sed do eiusmod tempor </tspan></text>
    </g>
    <g id="Group_28635" data-name="Group 28635" transform="translate(46 38)">
      <text id="Growing_Industries" data-name="Growing Industries" transform="translate(848 1520)" fill="#fff" font-size="30" font-family="SegoeUI-Semibold, Segoe UI" font-weight="600"><tspan x="-128.723" y="0">Growing Industries</tspan></text>
      <g id="Group_27900-2" data-name="Group 27900" transform="translate(325 -180)">
        <rect id="Rectangle_14103-2" data-name="Rectangle 14103" width="96" height="96" rx="10" transform="translate(394 1545)" fill="#e9eaed" opacity="0.2"/>
        <g id="Group_27899-2" data-name="Group 27899">
          <rect id="Rectangle_14100-2" data-name="Rectangle 14100" width="96" height="96" rx="10" transform="translate(384 1535)" fill="#fff"/>
          <g id="graph_1_" data-name="graph (1)" transform="translate(383.921 1556.418)">
            <path id="Path_15245" data-name="Path 15245" d="M183.879,225.227h-4.153a3.742,3.742,0,0,1-3.738-3.738V195.738A3.742,3.742,0,0,1,179.726,192h4.153a3.742,3.742,0,0,1,3.738,3.738v25.751A3.742,3.742,0,0,1,183.879,225.227Zm-4.153-29.9a.416.416,0,0,0-.415.415v25.751a.416.416,0,0,0,.415.415h4.153a.416.416,0,0,0,.415-.415V195.738a.416.416,0,0,0-.415-.415Z" transform="translate(-136.217 -172.064)" fill="#3a404a" stroke="#fff" stroke-width="1.2"/>
            <path id="Path_15246" data-name="Path 15246" d="M31.879,296.92H27.726a3.742,3.742,0,0,1-3.738-3.738V275.738A3.742,3.742,0,0,1,27.726,272h4.153a3.742,3.742,0,0,1,3.738,3.738v17.444A3.742,3.742,0,0,1,31.879,296.92Zm-4.153-21.6a.416.416,0,0,0-.415.415v17.444a.416.416,0,0,0,.415.415h4.153a.416.416,0,0,0,.415-.415V275.738a.416.416,0,0,0-.415-.415Z" transform="translate(0 -243.757)" fill="#3a404a" stroke="#fff" stroke-width="1.2"/>
            <path id="Path_15247" data-name="Path 15247" d="M292.841,53.164h-4.153a3.742,3.742,0,0,1-3.738-3.738V14.952h-2.282a2.7,2.7,0,0,1-2.05-4.457l.024-.028L289.527.553a1.661,1.661,0,0,1,2.475,0l8.885,9.915.024.028a2.7,2.7,0,0,1-2.05,4.457h-2.282V49.426A3.742,3.742,0,0,1,292.841,53.164ZM284.063,11.63h2.549a1.661,1.661,0,0,1,1.661,1.661V49.426a.416.416,0,0,0,.415.415h4.153a.416.416,0,0,0,.415-.415V13.291a1.661,1.661,0,0,1,1.661-1.661h2.549l-6.7-7.479Z" transform="translate(-229.396 0)" fill="#3a404a" stroke="#fff" stroke-width="1.2"/>
          </g>
        </g>
      </g>
      <text id="Lorem_ipsum_dolor_sit_amet_consectetur_adipiscing_elit_sed_do_eiusmod_tempor_incididunt_ut_labore_et_dolore_magna_aliqua._Ut_enim_ad_minim_veniam_quis_nostrud_exercitation_ullamco_laboris_nisi_ut_aliquip_ex_ea_commodo_consequat_Lorem_ipsum_dolor_sit_ame-2" data-name="Lorem ipsum dolor sit amet, consectetur adipiscing elit, sed do eiusmod tempor incididunt ut labore et dolore magna aliqua. Ut enim ad minim veniam, quis nostrud exercitation ullamco laboris nisi ut aliquip ex ea commodo consequat Lorem ipsum dolor sit ame" transform="translate(709 1557)" fill="#fff" font-size="20" font-family="SegoeUI, Segoe UI" opacity="0.5"><tspan x="0" y="22">Lorem ipsum dolor sit amet, consectetur </tspan><tspan x="0" y="50">adipiscing elit, sed do eiusmod tempor </tspan></text>
    </g>
    <g id="Group_28636" data-name="Group 28636" transform="translate(93 38)">
      <text id="Highly_Secured" data-name="Highly Secured" transform="translate(1348 1520)" fill="#fff" font-size="30" font-family="SegoeUI-Semibold, Segoe UI" font-weight="600"><tspan x="-102.751" y="0">Highly Secured</tspan></text>
      <g id="Group_27900-3" data-name="Group 27900" transform="translate(852 -180)">
        <rect id="Rectangle_14103-3" data-name="Rectangle 14103" width="96" height="96" rx="10" transform="translate(394 1545)" fill="#e9eaed" opacity="0.2"/>
        <g id="Group_27899-3" data-name="Group 27899">
          <rect id="Rectangle_14100-3" data-name="Rectangle 14100" width="96" height="96" rx="10" transform="translate(384 1535)" fill="#fff"/>
          <g id="verified_1_" data-name="verified (1)" transform="translate(370 1556)">
            <path id="Path_15248" data-name="Path 15248" d="M83.576,8.609,63.225.159a2.077,2.077,0,0,0-1.593,0L41.28,8.609A2.077,2.077,0,0,0,40,10.527V20.8A34.778,34.778,0,0,0,61.644,53.01a2.077,2.077,0,0,0,1.57,0A34.778,34.778,0,0,0,84.857,20.8V10.527A2.077,2.077,0,0,0,83.576,8.609ZM80.7,20.8A30.631,30.631,0,0,1,62.428,48.831,30.632,30.632,0,0,1,44.153,20.8V11.913L62.428,4.325,80.7,11.913Zm-20.57,7,8.926-8.926A2.077,2.077,0,1,1,72,21.809L61.6,32.2a2.077,2.077,0,0,1-2.937,0l-5.8-5.8A2.077,2.077,0,0,1,55.8,23.463Z" fill="#3a404a" stroke="#fff" stroke-width="1"/>
          </g>
        </g>
      </g>
      <text id="Lorem_ipsum_dolor_sit_amet_consectetur_adipiscing_elit_sed_do_eiusmod_tempor_incididunt_ut_labore_et_dolore_magna_aliqua._Ut_enim_ad_minim_veniam_quis_nostrud_exercitation_ullamco_laboris_nisi_ut_aliquip_ex_ea_commodo_consequat_Lorem_ipsum_dolor_sit_ame-3" data-name="Lorem ipsum dolor sit amet, consectetur adipiscing elit, sed do eiusmod tempor incididunt ut labore et dolore magna aliqua. Ut enim ad minim veniam, quis nostrud exercitation ullamco laboris nisi ut aliquip ex ea commodo consequat Lorem ipsum dolor sit ame" transform="translate(1236 1557)" fill="#fff" font-size="20" font-family="SegoeUI, Segoe UI" opacity="0.5"><tspan x="0" y="22">Lorem ipsum dolor sit amet, consectetur </tspan><tspan x="0" y="50">adipiscing elit, sed do eiusmod tempor </tspan></text>
    </g>
    <line id="Line_527" data-name="Line 527" x2="39" transform="translate(180.5 1372.5)" fill="none" stroke="#fff" stroke-linecap="round" stroke-width="5"/>
    <line id="Line_528" data-name="Line 528" x2="39" transform="translate(755 1372.5)" fill="none" stroke="#fff" stroke-linecap="round" stroke-width="5"/>
    <line id="Line_529" data-name="Line 529" x2="39" transform="translate(1329 1372.5)" fill="none" stroke="#fff" stroke-linecap="round" stroke-width="5"/>
    <g id="Group_28637" data-name="Group 28637">
      <path id="Icon_ionic-ios-arrow-down" data-name="Icon ionic-ios-arrow-down" d="M14.2,17.642l6.054-6.059a1.139,1.139,0,0,1,1.616,0,1.154,1.154,0,0,1,0,1.621l-6.86,6.865a1.142,1.142,0,0,1-1.578.033L6.521,13.208a1.144,1.144,0,0,1,1.616-1.621Z" transform="translate(760.9 1342.438)" fill="#fff"/>
      <path id="Path_27493" data-name="Path 27493" d="M6949,2102.026v-88h575.094v84.668" transform="translate(-6749 -740)" fill="none" stroke="#fff" stroke-linecap="round" stroke-width="3" stroke-dasharray="10"/>
    </g>
    <g id="Group_28638" data-name="Group 28638" transform="translate(913 1692.5)">
      <path id="Icon_ionic-ios-arrow-down-2" data-name="Icon ionic-ios-arrow-down" d="M14.2,14.006l6.054,6.059a1.139,1.139,0,0,0,1.616,0,1.154,1.154,0,0,0,0-1.621l-6.86-6.865a1.142,1.142,0,0,0-1.578-.033L6.521,18.44A1.144,1.144,0,1,0,8.137,20.06Z" transform="translate(560.901 -11.246)" fill="#fff"/>
      <path id="Path_27493-2" data-name="Path 27493" d="M6949,2014.025v88h575.094v-84.668" transform="translate(-6949 -2013.212)" fill="none" stroke="#fff" stroke-linecap="round" stroke-width="3" stroke-dasharray="10"/>
    </g>
  </g>
</svg>
