<svg xmlns="http://www.w3.org/2000/svg" width="76" height="76" viewBox="0 0 76 76">
  <g id="demo-icon-1" transform="translate(-384 -1535)">
    <rect id="Rectangle_14103" data-name="Rectangle 14103" width="69" height="69" rx="10" transform="translate(391 1542)" fill="#e9eaed"/>
    <g id="Group_27899" data-name="Group 27899" transform="translate(384 1535)">
      <g id="Rectangle_14100" data-name="Rectangle 14100" fill="#1e2e3d" stroke="#fff" stroke-width="5">
        <rect width="69" height="69" rx="10" stroke="none"/>
        <rect x="2.5" y="2.5" width="64" height="64" rx="7.5" fill="none"/>
      </g>
      <g id="like_2_" data-name="like (2)" transform="translate(14.345 15.062)">
        <path id="Path_15240" data-name="Path 15240" d="M38.969,37.535a2.458,2.458,0,0,0-.605-1.622A2.485,2.485,0,0,0,39.648,33.8a2.432,2.432,0,0,0-.706-1.762,2.539,2.539,0,0,0-.588-.446,2.475,2.475,0,0,0-1.861-4.107H32.047l1.7-3.627a3.1,3.1,0,0,0-1.485-4.113,3.063,3.063,0,0,0-1.312-.293,3.106,3.106,0,0,0-2.8,1.778l-.888,1.892c-.028.059-.056.118-.086.176a.581.581,0,0,0,1.031.534c.037-.071.072-.142.106-.216L29.2,21.72a1.94,1.94,0,0,1,1.749-1.11,1.91,1.91,0,0,1,.818.183A1.933,1.933,0,0,1,32.7,23.36L30.62,27.787a.581.581,0,0,0,.033.554l.018.028a.581.581,0,0,0,.493.274h5.329a1.314,1.314,0,1,1,0,2.628.581.581,0,0,0,0,1.162h.638a1.382,1.382,0,0,1,.981.414,1.28,1.28,0,0,1,.374.926,1.32,1.32,0,0,1-1.313,1.287h-.681a.581.581,0,0,0,0,1.162,1.314,1.314,0,1,1,0,2.628h-.68a.581.581,0,0,0,0,1.162,1.307,1.307,0,0,1,.928.384,1.327,1.327,0,0,1,.29.436l0,.013a1.316,1.316,0,0,1-1.223,1.8H25.488a2.77,2.77,0,0,1-1.654-.543,2.055,2.055,0,0,0,.119-.689V29.591s0,0,0-.007,0,0,0,0a3.384,3.384,0,0,1,.292-1.447,3.437,3.437,0,0,1,1.408-1.579,6.493,6.493,0,0,0,1-.725.581.581,0,1,0-.767-.873,5.331,5.331,0,0,1-.823.6,4.593,4.593,0,0,0-1.883,2.11c-.036.082-.07.164-.1.247a2.052,2.052,0,0,0-1.194-.382H18.962A2.066,2.066,0,0,0,16.9,29.591v7.285A10.88,10.88,0,0,0,0,45.946a10.934,10.934,0,0,0,.163,1.883.581.581,0,0,0,1.144-.2,9.73,9.73,0,0,1-.128-1.1H2.761a.581.581,0,1,0,0-1.162H1.179A9.654,9.654,0,0,1,2.19,41.6l.61.352a.581.581,0,1,0,.581-1.006l-.609-.351a9.8,9.8,0,0,1,2.758-2.758l.351.609a.581.581,0,0,0,1.006-.581l-.352-.61A9.654,9.654,0,0,1,10.3,36.24v1.581a.581.581,0,0,0,1.162,0V36.24a9.653,9.653,0,0,1,3.769,1.011l-.352.61a.581.581,0,1,0,1.006.581l.351-.608A9.8,9.8,0,0,1,19,40.591l-.608.351a.581.581,0,1,0,.581,1.006l.61-.352a9.652,9.652,0,0,1,1.011,3.769H19.011a.581.581,0,1,0,0,1.162h1.581A9.654,9.654,0,0,1,19.581,50.3l-.61-.352a.581.581,0,1,0-.581,1.006L19,51.3a9.8,9.8,0,0,1-2.758,2.758l-.351-.609a.581.581,0,0,0-1.006.581l.352.61a9.653,9.653,0,0,1-3.769,1.011V54.071a.581.581,0,1,0-1.162,0v1.58a9.711,9.711,0,0,1-3.771-1.007l.354-.614a.581.581,0,1,0-1.006-.581l-.355.615A9.7,9.7,0,0,1,2.768,51.3l.614-.355A.581.581,0,1,0,2.8,49.943l-.613.354c-.093-.186-.181-.375-.263-.568a.581.581,0,0,0-1.07.452,10.888,10.888,0,0,0,20.632-6.709h.4a2.054,2.054,0,0,0,1.265-.435,3.923,3.923,0,0,0,2.335.763H35.813a2.478,2.478,0,0,0,2.311-3.364l-.008-.021a2.479,2.479,0,0,0-.431-.711,2.478,2.478,0,0,0,1.284-2.17ZM21.888,42.311h-.742a10.923,10.923,0,0,0-3.087-4.545V29.591a.9.9,0,0,1,.9-.9h2.926a.9.9,0,0,1,.9.9V41.408A.9.9,0,0,1,21.888,42.311Z" transform="translate(0 -18.701)" fill="#fff"/>
        <path id="Path_15241" data-name="Path 15241" d="M60.971,301.026h0a1.9,1.9,0,0,0,1.893-1.894v-3.352a1.894,1.894,0,0,0-3.787,0v1.458H56.183a1.894,1.894,0,0,0,0,3.787Zm-.732-5.246a.732.732,0,0,1,1.464,0v3.352a.732.732,0,1,1-1.464,0Zm-4.788,3.352a.733.733,0,0,1,.732-.732h2.895v.732a1.883,1.883,0,0,0,.147.732H56.183A.733.733,0,0,1,55.451,299.133Z" transform="translate(-50.085 -271.888)" fill="#fff"/>
        <path id="Path_15242" data-name="Path 15242" d="M184.5,13.655a1.633,1.633,0,0,0,1.542,1.1,1.614,1.614,0,0,0,.418-.055l.151-.04h0a1.632,1.632,0,0,0,1.176-1.884l-.325-1.66a1.627,1.627,0,0,0-2.018-1.259l-.374.1a1.627,1.627,0,0,0-1.118,2.1Zm.58-2.347a.461.461,0,0,1,.29-.231l.374-.1a.469.469,0,0,1,.122-.016.466.466,0,0,1,.455.376l.325,1.66a.467.467,0,0,1-.336.539l-.151.04a.467.467,0,0,1-.561-.3l-.549-1.6A.461.461,0,0,1,185.075,11.308Z" transform="translate(-169.622 -9.8)" fill="#fff"/>
        <path id="Path_15243" data-name="Path 15243" d="M111.272,54.4l1.275,1.112a1.632,1.632,0,0,0,2.219-.076l.11-.11a1.632,1.632,0,0,0,.076-2.219l-1.112-1.275a1.627,1.627,0,0,0-2.377-.081l-.274.274a1.627,1.627,0,0,0,.081,2.377Zm.74-1.556.274-.274a.46.46,0,0,1,.328-.136h.017a.461.461,0,0,1,.335.159l1.112,1.275a.467.467,0,0,1-.022.635l-.11.11a.467.467,0,0,1-.635.022l-1.275-1.112a.465.465,0,0,1-.023-.68Z" transform="translate(-102.14 -48.063)" fill="#fff"/>
        <path id="Path_15244" data-name="Path 15244" d="M70.551,128.018l1.66.325a1.628,1.628,0,0,0,1.884-1.176l.04-.151h0a1.632,1.632,0,0,0-1.044-1.96l-1.6-.549a1.627,1.627,0,0,0-2.1,1.118l-.1.374a1.627,1.627,0,0,0,1.259,2.018Zm-.137-1.717.1-.374a.466.466,0,0,1,.449-.345.466.466,0,0,1,.152.026l1.6.549a.467.467,0,0,1,.3.561l-.04.151a.467.467,0,0,1-.539.336l-1.66-.325a.465.465,0,0,1-.36-.577Z" transform="translate(-63.876 -115.544)" fill="#fff"/>
      </g>
    </g>
  </g>
</svg>
