<svg xmlns="http://www.w3.org/2000/svg" width="45.405" height="45.405" viewBox="0 0 45.405 45.405">
  <g id="demo-consulting" transform="matrix(1, 0.017, -0.017, 1, 0.779, 0)">
    <path id="Path_15743" data-name="Path 15743" d="M40.639,15.178l-1.8-.626a4.351,4.351,0,0,0,1.657-3.416V9.815a4.358,4.358,0,0,0-8.715,0v1.321a4.351,4.351,0,0,0,1.658,3.416l-1.8.626a5.934,5.934,0,0,0-2.823,2.076H23.945V15.334A5.946,5.946,0,0,0,19.952,9.72l-1.8-.626a4.351,4.351,0,0,0,1.658-3.416V4.358a4.358,4.358,0,0,0-8.715,0V5.678a4.352,4.352,0,0,0,1.657,3.416l-1.8.626a5.946,5.946,0,0,0-3.993,5.613v1.921H.66a.66.66,0,0,0-.66.66v5.458a.66.66,0,0,0,.66.66H28.127a.6.6,0,0,1,.176,0h15.67a.66.66,0,0,0,.66-.66V20.792a5.947,5.947,0,0,0-3.993-5.614ZM33.1,9.815a3.037,3.037,0,0,1,6.074,0v1.321a3.037,3.037,0,1,1-6.074,0ZM12.413,4.358a3.037,3.037,0,1,1,6.074,0V5.678a3.037,3.037,0,1,1-6.074,0Zm4.422,5.678.642.223L15.45,13.775l-2.027-3.517.642-.223Zm-8.56,5.3a4.625,4.625,0,0,1,3.106-4.366l.772-.268,2.724,4.728a.66.66,0,0,0,1.144,0L18.746,10.7l.772.268a4.625,4.625,0,0,1,3.106,4.366v1.921H8.275ZM1.321,18.575H28.073a5.922,5.922,0,0,0-.43,2.217v1.921H1.321Zm41.992,4.137H28.963V20.791a4.625,4.625,0,0,1,3.106-4.366l2.684-.932h2.77l2.684.932a4.625,4.625,0,0,1,3.106,4.366Zm0,0" transform="translate(0 20.6)" fill="#fff"/>
    <path id="Path_15744" data-name="Path 15744" d="M40.451,4.754H33.744a.66.66,0,0,0,0,1.321h6.707a2.864,2.864,0,0,1,2.861,2.861v9.155a2.864,2.864,0,0,1-2.861,2.861H31.384a.66.66,0,0,0-.66.66V24.42l-3.274-3.275a.66.66,0,0,0-.467-.193h-5.37a2.865,2.865,0,0,1-2.861-2.861V8.935a2.864,2.864,0,0,1,2.861-2.861h9.045a.66.66,0,0,0,0-1.321H27.2V4.182A4.186,4.186,0,0,0,23.021,0H4.182A4.186,4.186,0,0,0,0,4.182v1.46a.66.66,0,1,0,1.321,0V4.182A2.864,2.864,0,0,1,4.182,1.321H23.021a2.864,2.864,0,0,1,2.861,2.861v.572H21.612a4.186,4.186,0,0,0-4.182,4.182V16.2H10.52a.66.66,0,0,0-.66.66v2.808L6.585,16.391a.66.66,0,0,0-.467-.193H4.182a2.864,2.864,0,0,1-2.861-2.861V8.712A.66.66,0,1,0,0,8.712v4.625a4.186,4.186,0,0,0,4.182,4.182H5.845l4.208,4.208a.66.66,0,0,0,1.127-.467V17.518h6.25v.572a4.186,4.186,0,0,0,4.182,4.181h5.1l4.208,4.208a.66.66,0,0,0,1.127-.467V22.272h8.407a4.186,4.186,0,0,0,4.182-4.181V8.935a4.186,4.186,0,0,0-4.182-4.182Zm0,0" transform="translate(0 0)" fill="#fff"/>
  </g>
</svg>
