<svg xmlns="http://www.w3.org/2000/svg" width="45.439" height="45.438" viewBox="0 0 45.439 45.438">
  <g id="demo-free" transform="matrix(1, 0.017, -0.017, 1, 0.78, 0)">
    <g id="Group_28036" data-name="Group 28036" transform="translate(7.768 17.478)">
      <g id="Group_28035" data-name="Group 28035">
        <path id="Path_15732" data-name="Path 15732" d="M4.855,0H.971A.971.971,0,0,0,0,.971V8.739a.971.971,0,0,0,1.942,0v-6.8H4.855A.971.971,0,1,0,4.855,0Z" fill="#fff"/>
      </g>
    </g>
    <g id="Group_28038" data-name="Group 28038" transform="translate(7.768 21.362)">
      <g id="Group_28037" data-name="Group 28037">
        <path id="Path_15733" data-name="Path 15733" d="M2.913,0H.971a.971.971,0,1,0,0,1.942H2.913A.971.971,0,1,0,2.913,0Z" fill="#fff"/>
      </g>
    </g>
    <g id="Group_28040" data-name="Group 28040" transform="translate(0 0)">
      <g id="Group_28039" data-name="Group 28039">
        <path id="Path_15734" data-name="Path 15734" d="M22.333,0A22.333,22.333,0,1,0,44.666,22.333,22.359,22.359,0,0,0,22.333,0Zm0,42.724A20.391,20.391,0,1,1,42.724,22.333,20.413,20.413,0,0,1,22.333,42.724Z" fill="#fff"/>
      </g>
    </g>
    <g id="Group_28042" data-name="Group 28042" transform="translate(9.245 5.826)">
      <g id="Group_28041" data-name="Group 28041">
        <path id="Path_15735" data-name="Path 15735" d="M25.961,6.189a16.483,16.483,0,0,0-25.747,0A.97.97,0,1,0,1.727,7.4a14.542,14.542,0,0,1,22.72,0,.971.971,0,0,0,1.515-1.216Z" fill="#fff"/>
      </g>
    </g>
    <g id="Group_28044" data-name="Group 28044" transform="translate(10.099 32.043)">
      <g id="Group_28043" data-name="Group 28043">
        <path id="Path_15736" data-name="Path 15736" d="M24.166.267A.972.972,0,0,0,22.795.3,14.44,14.44,0,0,1,12.234,4.855,14.433,14.433,0,0,1,1.675.3.971.971,0,1,0,.267,1.64,16.35,16.35,0,0,0,12.234,6.8,16.357,16.357,0,0,0,24.2,1.64.97.97,0,0,0,24.166.267Z" fill="#fff"/>
      </g>
    </g>
    <g id="Group_28046" data-name="Group 28046" transform="translate(15.536 17.478)">
      <g id="Group_28045" data-name="Group 28045">
        <path id="Path_15737" data-name="Path 15737" d="M3.29,5.8A2.913,2.913,0,0,0,2.913,0H.971A.971.971,0,0,0,0,.971V8.739a.971.971,0,0,0,1.942,0V7.2L4.168,9.426a.976.976,0,0,0,.687.284.961.961,0,0,0,.686-.285.972.972,0,0,0,0-1.373ZM1.942,3.884V1.942h.971a.971.971,0,0,1,0,1.942H1.942Z" fill="#fff"/>
      </g>
    </g>
    <g id="Group_28048" data-name="Group 28048" transform="translate(23.304 17.478)">
      <g id="Group_28047" data-name="Group 28047">
        <path id="Path_15738" data-name="Path 15738" d="M4.855,7.768H1.942V1.942H4.855A.971.971,0,1,0,4.855,0H.971A.971.971,0,0,0,0,.971V8.739a.971.971,0,0,0,.971.971H4.855a.971.971,0,0,0,0-1.942Z" fill="#fff"/>
      </g>
    </g>
    <g id="Group_28050" data-name="Group 28050" transform="translate(23.304 21.362)">
      <g id="Group_28049" data-name="Group 28049">
        <path id="Path_15739" data-name="Path 15739" d="M2.913,0H.971a.971.971,0,1,0,0,1.942H2.913A.971.971,0,1,0,2.913,0Z" fill="#fff"/>
      </g>
    </g>
    <g id="Group_28052" data-name="Group 28052" transform="translate(31.072 17.478)">
      <g id="Group_28051" data-name="Group 28051">
        <path id="Path_15740" data-name="Path 15740" d="M4.855,7.768H1.942V1.942H4.855A.971.971,0,1,0,4.855,0H.971A.971.971,0,0,0,0,.971V8.739a.971.971,0,0,0,.971.971H4.855a.971.971,0,1,0,0-1.942Z" fill="#fff"/>
      </g>
    </g>
    <g id="Group_28054" data-name="Group 28054" transform="translate(31.072 21.362)">
      <g id="Group_28053" data-name="Group 28053">
        <path id="Path_15741" data-name="Path 15741" d="M2.913,0H.971a.971.971,0,1,0,0,1.942H2.913A.971.971,0,1,0,2.913,0Z" fill="#fff"/>
      </g>
    </g>
  </g>
</svg>
