<svg xmlns="http://www.w3.org/2000/svg" width="41.847" height="48.962" viewBox="0 0 41.847 48.962">
  <g id="demo-verified" transform="matrix(1, 0.017, -0.017, 1, 1.824, 1.026)">
    <path id="Path_15742" data-name="Path 15742" d="M37.9,7.487,20.2.138a1.806,1.806,0,0,0-1.385,0L1.114,7.487A1.806,1.806,0,0,0,0,9.155v8.933A30.246,30.246,0,0,0,18.823,46.1a1.806,1.806,0,0,0,1.365,0A30.246,30.246,0,0,0,39.012,18.088V9.155A1.806,1.806,0,0,0,37.9,7.487Zm-2.5,10.6a26.64,26.64,0,0,1-15.894,24.38A26.641,26.641,0,0,1,3.612,18.088V10.361l15.894-6.6,15.894,6.6ZM17.51,24.176l7.763-7.763a1.806,1.806,0,1,1,2.554,2.554l-9.04,9.04a1.806,1.806,0,0,1-2.554,0L11.185,22.96a1.806,1.806,0,0,1,2.554-2.554Z" transform="translate(0 0)" stroke="#fff" stroke-width="2"/>
  </g>
</svg>
