<svg id="logo-javascript" xmlns="http://www.w3.org/2000/svg" width="95.357" height="95.357" viewBox="0 0 95.357 95.357">
  <path id="Path_15722" data-name="Path 15722" d="M0,0H95.357V95.357H0Z" fill="#f0db4f"/>
  <path id="Path_15723" data-name="Path 15723" d="M338.99,506.593c-.7-4.351-3.535-8-11.938-11.412-2.919-1.341-6.173-2.3-7.143-4.514a4.924,4.924,0,0,1-.172-2.792c.625-2.529,3.644-3.318,6.037-2.592a6.642,6.642,0,0,1,3.88,3.6c4.115-2.665,4.106-2.647,6.98-4.478a17.785,17.785,0,0,0-2.3-3.082c-2.475-2.765-5.847-4.188-11.24-4.079-.934.118-1.876.245-2.81.363a12.747,12.747,0,0,0-6.762,3.988c-4.514,5.121-3.227,14.086,2.266,17.775,5.411,4.061,13.361,4.985,14.376,8.783.988,4.65-3.417,6.155-7.8,5.62-3.227-.671-5.022-2.311-6.961-5.294-3.571,2.067-3.571,2.067-7.242,4.179a16.117,16.117,0,0,0,3.245,4.414c6.907,7.007,24.193,6.662,27.293-3.943A13.093,13.093,0,0,0,338.99,506.593ZM303.276,477.8h-8.919c0,7.7-.036,15.355-.036,23.06,0,4.9.254,9.4-.544,10.778-1.305,2.71-4.686,2.375-6.227,1.849a7.655,7.655,0,0,1-3.29-3.417,4.589,4.589,0,0,0-.508-.816q-3.63,2.216-7.252,4.442a14.333,14.333,0,0,0,5.257,6.019,17.315,17.315,0,0,0,12.745,1.568,11.261,11.261,0,0,0,7.2-5.638c2.03-3.744,1.6-8.276,1.577-13.288.045-8.176,0-16.352,0-24.555Z" transform="translate(-251.437 -433.978)" fill="#323330"/>
</svg>
