<svg xmlns="http://www.w3.org/2000/svg" width="92.629" height="95.357" viewBox="0 0 92.629 95.357">
  <path id="laravel-2" d="M92.577,21.572a1.509,1.509,0,0,1,.052.39V42.43a1.492,1.492,0,0,1-.75,1.295L74.7,53.616v19.6a1.5,1.5,0,0,1-.746,1.295L38.093,95.159a1.6,1.6,0,0,1-.261.108c-.034.011-.065.032-.1.041a1.5,1.5,0,0,1-.765,0c-.041-.011-.078-.034-.118-.049a1.551,1.551,0,0,1-.246-.1L.75,74.515A1.494,1.494,0,0,1,0,73.22v-61.4a1.526,1.526,0,0,1,.052-.392c.011-.043.037-.082.052-.125a1.471,1.471,0,0,1,.1-.231,1.4,1.4,0,0,1,.1-.132,1.52,1.52,0,0,1,.132-.173,1.457,1.457,0,0,1,.147-.112,1.217,1.217,0,0,1,.164-.129h0L18.675.2a1.5,1.5,0,0,1,1.492,0L38.1,10.521h0a1.829,1.829,0,0,1,.164.127,1.765,1.765,0,0,1,.146.112,1.746,1.746,0,0,1,.134.175,1.376,1.376,0,0,1,.1.132,1.557,1.557,0,0,1,.1.231c.015.043.041.082.052.127a1.51,1.51,0,0,1,.052.39V50.169l14.939-8.6V21.96a1.508,1.508,0,0,1,.052-.388c.013-.045.037-.084.052-.127a1.684,1.684,0,0,1,.1-.231c.028-.049.069-.088.1-.132a1.536,1.536,0,0,1,.134-.173,1.434,1.434,0,0,1,.146-.112,1.506,1.506,0,0,1,.164-.129h0L72.461,10.346a1.494,1.494,0,0,1,1.492,0L91.881,20.668a1.648,1.648,0,0,1,.168.127c.047.037.1.071.144.112a1.746,1.746,0,0,1,.134.175,1.128,1.128,0,0,1,.1.132,1.479,1.479,0,0,1,.1.231,1.068,1.068,0,0,1,.052.127ZM89.641,41.567V24.546l-6.274,3.612L74.7,33.148V50.169l14.943-8.6ZM71.713,72.357V55.325l-8.525,4.869L38.843,74.088V91.28ZM2.989,14.4V72.357L35.855,91.278V74.09l-17.17-9.717-.006,0-.007,0a69.567,69.567,0,0,0-.3-.231l0-.006a1.422,1.422,0,0,1-.123-.157,1.594,1.594,0,0,1-.112-.146l0-.006a1.19,1.19,0,0,1-.078-.187,1.1,1.1,0,0,1-.071-.168v0a1.428,1.428,0,0,1-.03-.218,1.294,1.294,0,0,1-.022-.168V23L9.262,18.009,2.989,14.4ZM19.424,3.218l-14.937,8.6,14.933,8.6,14.935-8.6L19.42,3.218Zm7.768,53.659,8.665-4.988V14.4l-6.274,3.612L20.916,23V60.49ZM73.208,13.364l-14.935,8.6,14.935,8.6,14.933-8.6ZM71.713,33.148l-8.667-4.99-6.274-3.612V41.567l8.665,4.988,6.276,3.613ZM37.347,71.5,59.254,59,70.2,52.748,55.28,44.156,38.1,54.049,22.436,63.065Z" transform="translate(0 0)" fill="#ff2d20"/>
</svg>
