<svg xmlns="http://www.w3.org/2000/svg" width="334.678" height="95.357" viewBox="0 0 334.678 95.357">
  <g id="mongodb" transform="translate(0 0)">
    <path id="Path_15724" data-name="Path 15724" d="M443.943,58.709c-.3.06-.6.724-.6,1.086-.06,2.416-.12,8.818-.12,13.166a.448.448,0,0,0,.362.363c.906.06,3.08.12,4.952.12a12.927,12.927,0,0,0,4.953-.724c2.173-1.088,3.2-3.443,3.2-6.04,0-5.857-4.107-8.092-10.206-8.092a9.687,9.687,0,0,0-2.537.121ZM459.525,85.7c0-5.979-4.409-9.3-12.38-9.3-.363,0-2.9-.06-3.5.06-.181.061-.422.182-.422.363,0,4.287-.061,11.112.12,13.769a4.557,4.557,0,0,0,1.993,3.261c1.086.6,3.563.724,5.254.724C455.358,94.581,459.525,91.924,459.525,85.7Zm-27.9-30.316c.6,0,2.415.181,7.065.181,4.409,0,7.911-.12,12.2-.12,5.254,0,12.5,1.872,12.5,9.723,0,3.865-2.718,6.945-6.28,8.455-.181.06-.181.181,0,.241,5.072,1.269,9.542,4.409,9.542,10.327,0,5.8-3.624,9.482-8.878,11.777a28.887,28.887,0,0,1-11.233,1.872c-3.08,0-11.354-.362-15.943-.241-.483-.182.423-2.356.845-2.718a11.272,11.272,0,0,0,3.08-.484c1.631-.422,1.811-.906,2.053-3.381.121-2.114.121-9.6.121-14.917,0-7.307.061-12.259,0-14.675-.06-1.872-.724-2.476-2.053-2.839-1.027-.181-2.718-.423-4.107-.6C430.234,57.682,431.261,55.628,431.624,55.388ZM396.778,92.951c1.45,1.147,4.288,1.63,6.825,1.63a13.38,13.38,0,0,0,9.663-3.442c3.2-2.9,5.435-7.367,5.435-14.493,0-6.825-2.6-12.381-7.911-15.641-3.02-1.873-6.884-2.657-11.354-2.657a9.05,9.05,0,0,0-3.381.422,1.775,1.775,0,0,0-.6.966c-.121,1.208-.121,10.508-.121,15.944,0,5.616,0,13.467.121,14.373a3.745,3.745,0,0,0,1.328,2.9ZM383.069,55.387c1.148,0,5.556.181,7.67.181,3.805,0,6.523-.181,13.709-.181,6.039,0,11.112,1.63,14.736,4.71,4.408,3.8,6.7,9.059,6.7,15.46,0,9.119-4.167,14.374-8.335,17.393-4.166,3.08-9.6,4.891-17.332,4.891-4.106,0-11.172-.12-17.031-.181h-.06c-.3-.543.483-2.657.966-2.717a9.627,9.627,0,0,0,2.779-.543c1.268-.484,1.51-1.148,1.691-3.382.181-4.167.12-9.18.12-14.857,0-4.046.06-11.958-.061-14.494-.181-2.113-1.086-2.657-2.9-3.019-.906-.181-2.114-.423-3.8-.6-.242-.423.845-2.3,1.147-2.657Z" transform="translate(-131.973 -19.274)" fill="#8e714e" fill-rule="evenodd"/>
    <path id="Path_15725" data-name="Path 15725" d="M206.59,102.7a12.146,12.146,0,0,1-3.925-1.026,1.84,1.84,0,0,1-.484-.967c-.12-2.114-.12-8.153-.12-12.2,0-3.262-.543-6.1-1.932-8.093a8.245,8.245,0,0,0-7.006-3.624c-2.657,0-6.22,1.811-9.18,4.348-.06.06-.543.484-.483-.181,0-.664.121-1.993.181-2.9a1.565,1.565,0,0,0-.423-1.268,40.305,40.305,0,0,1-9.361,2.415c-1.449.3-1.811,1.692-.3,2.175h.06a13.4,13.4,0,0,1,3.562,1.571,1.878,1.878,0,0,1,.544,1.691c.06,4.529.06,11.474-.12,15.279-.06,1.51-.483,2.053-1.571,2.294l.121-.06a23.845,23.845,0,0,1-2.537.483,3.531,3.531,0,0,0,0,2.718c.664,0,4.167-.181,7.066-.181,3.985,0,6.039.181,7.065.181a3.932,3.932,0,0,0,.3-2.718,11.18,11.18,0,0,1-2.778-.423c-1.087-.242-1.389-.785-1.45-2.053-.12-3.2-.12-9.965-.12-14.554a2.912,2.912,0,0,1,.724-2.235,9.137,9.137,0,0,1,5.617-2.053,6.244,6.244,0,0,1,4.167,1.389,5.938,5.938,0,0,1,1.933,3.8c.3,2.6.181,7.73.181,12.2,0,2.415-.181,3.019-1.086,3.321a11.494,11.494,0,0,1-2.779.543,3.536,3.536,0,0,0,0,2.718c1.751,0,3.8-.181,6.824-.181,3.744,0,6.16.181,7.127.181a4.212,4.212,0,0,0,.181-2.6Zm16.728-23.068c-3.2,0-5.193,2.476-5.193,6.34,0,3.926,1.751,8.455,6.7,8.455a4.679,4.679,0,0,0,3.14-1.208,8,8,0,0,0,1.933-5.556c0-5.012-2.476-8.032-6.583-8.032Zm-.423,26.692a5.191,5.191,0,0,0-2.6.665c-2.537,1.63-3.684,3.2-3.684,5.073a5.342,5.342,0,0,0,2.114,4.347c1.751,1.51,4.167,2.235,7.246,2.235,6.16,0,8.878-3.322,8.878-6.582,0-2.3-1.148-3.805-3.5-4.65-1.691-.725-4.771-1.088-8.455-1.088Zm.423,15.7c-3.684,0-6.341-.785-8.636-2.537a7.96,7.96,0,0,1-3.2-5.979,4.626,4.626,0,0,1,1.208-3.019,32.029,32.029,0,0,1,5.556-4.469c.12-.06.181-.12.181-.242a.4.4,0,0,0-.241-.3c-2.838-1.087-3.684-2.839-3.926-3.8v-.121c-.06-.363-.181-.724.363-1.087.423-.3,1.027-.664,1.69-1.086a24.806,24.806,0,0,0,2.778-1.813.441.441,0,0,0,.121-.362.4.4,0,0,0-.242-.3c-4.226-1.389-6.34-4.53-6.34-9.24a9.169,9.169,0,0,1,3.864-7.609,17.756,17.756,0,0,1,8.7-2.959h.181a18.519,18.519,0,0,1,6.642,1.45,11.178,11.178,0,0,0,3.927.6,5.227,5.227,0,0,0,4.226-1.569,3.279,3.279,0,0,1,.242,1.207,4.561,4.561,0,0,1-.785,2.778,3.43,3.43,0,0,1-2.657,1.148h-.3a13.456,13.456,0,0,1-1.571-.242l-.241.121c-.06.121,0,.241.06.423l.061.121a22.288,22.288,0,0,1,.362,2.6c0,4.952-1.993,7.125-4.106,8.756a13.907,13.907,0,0,1-7.066,2.718,7.605,7.605,0,0,0-.846.06c-.3,0-.724.061-.785.061h-.06c-.483.12-1.69.724-1.69,1.751,0,.906.543,1.993,3.14,2.175.543.06,1.086.06,1.691.121,3.442.241,7.73.543,9.723,1.207a6.767,6.767,0,0,1,4.529,6.462c0,4.47-3.2,8.636-8.515,11.232a19.427,19.427,0,0,1-8.032,1.752Zm34.422-42.092a5.609,5.609,0,0,0-3.261.905c-2.355,1.45-3.563,4.349-3.563,8.576,0,7.912,3.985,13.468,9.663,13.468a6.145,6.145,0,0,0,4.167-1.45c1.751-1.45,2.658-4.349,2.658-8.395,0-7.85-3.926-13.1-9.663-13.1Zm1.088,25.847c-10.267,0-13.95-7.549-13.95-14.614A13.075,13.075,0,0,1,250.856,79.7a18.177,18.177,0,0,1,9.24-2.717c7.85,0,13.346,5.616,13.346,13.709,0,5.5-2.174,9.843-6.341,12.5a16.747,16.747,0,0,1-8.274,2.6h0ZM151.212,79.937a5.611,5.611,0,0,0-3.262.906c-2.355,1.45-3.563,4.349-3.563,8.576,0,7.912,3.985,13.468,9.663,13.468a6.148,6.148,0,0,0,4.167-1.45c1.751-1.45,2.657-4.349,2.657-8.395C160.874,85.191,157.009,79.937,151.212,79.937Zm1.087,25.848c-10.267,0-13.95-7.549-13.95-14.614A13.075,13.075,0,0,1,144.326,79.7a18.177,18.177,0,0,1,9.24-2.717c7.851,0,13.346,5.616,13.346,13.709,0,5.5-2.174,9.843-6.341,12.5a16.359,16.359,0,0,1-8.273,2.6Zm-69.027-.6a2.581,2.581,0,0,1-.181-1.389,2.04,2.04,0,0,1,.181-.906,22.275,22.275,0,0,0,2.657-.544c1.208-.3,1.691-.966,1.751-2.476.182-3.624.182-10.509.121-15.279v-.121a1.83,1.83,0,0,0-.664-1.691A13.644,13.644,0,0,0,83.513,81.2c-.543-.18-.906-.482-.846-.844,0-.363.363-.785,1.148-.906A44.185,44.185,0,0,0,93.054,77.1a1.494,1.494,0,0,1,.3.967l-.06.664c-.061.665-.121,1.45-.121,2.235a.467.467,0,0,0,.483.423.85.85,0,0,0,.363-.121c3.865-3.019,7.367-4.106,9.179-4.106,2.96,0,5.255,1.389,7.006,4.288a.455.455,0,0,0,.423.242.43.43,0,0,0,.362-.181c3.563-2.718,7.127-4.349,9.481-4.349,5.616,0,8.938,4.167,8.938,11.233,0,1.993,0,4.589-.06,6.945,0,2.113-.06,4.046-.06,5.435a1.9,1.9,0,0,0,1.086,1.449,12.9,12.9,0,0,0,3.5.846h.06a4.843,4.843,0,0,1-.362,2.3,14.84,14.84,0,0,1-1.51-.06q-2.293-.12-4.59-.121c-3.744,0-5.676.06-7.549.181a5.892,5.892,0,0,1,0-2.3,18.75,18.75,0,0,0,2.3-.543c1.208-.363,1.51-.906,1.571-2.476,0-1.147.241-10.931-.122-13.286a5.954,5.954,0,0,0-6.16-5.254,10.709,10.709,0,0,0-6.159,2.355,1.077,1.077,0,0,0-.242.6v.061a27.813,27.813,0,0,1,.242,4.952V93.4c0,2.718-.061,5.254,0,7.186a1.77,1.77,0,0,0,1.45,1.873c.363.06.6.12.906.181.543.121,1.087.242,1.933.423a3.26,3.26,0,0,1-.06,1.691,1.158,1.158,0,0,1-.242.6c-2.053-.06-4.167-.121-7.246-.121-.906,0-2.476.061-3.8.061-1.088,0-2.114.06-2.717.06a3.185,3.185,0,0,1-.182-1.208,1.881,1.881,0,0,1,.242-1.087,4.083,4.083,0,0,1,.846-.12c.724-.121,1.328-.242,1.932-.363,1.027-.3,1.389-.846,1.45-2.174.181-3.019.363-11.655-.06-13.83-.724-3.5-2.717-5.254-5.919-5.254a11.081,11.081,0,0,0-6.159,2.356,1.95,1.95,0,0,0-.544,1.388v3.563c0,4.348,0,9.784.06,12.139a1.873,1.873,0,0,0,1.691,1.872,12.649,12.649,0,0,0,1.389.242l1.086.181a5.064,5.064,0,0,1-.181,2.3c-.6,0-1.328-.06-2.175-.06-1.268-.061-2.9-.121-4.71-.121-2.114,0-3.624.06-4.832.121a14.59,14.59,0,0,0-2.234-.121Z" transform="translate(-28.566 -26.673)" fill="#442d22" fill-rule="evenodd"/>
    <path id="Path_15726" data-name="Path 15726" d="M30.965,99.371l-2.476-.846S28.792,85.9,24.262,85c-3.019-3.5.484-148.562,11.354-.484,0,0-3.745,1.872-4.409,5.073-.725,3.141-.242,9.784-.242,9.784Z" transform="translate(-8.026 -6.369)" fill="#fff" fill-rule="evenodd"/>
    <path id="Path_15727" data-name="Path 15727" d="M30.965,99.371l-2.476-.846S28.792,85.9,24.262,85c-3.019-3.5.484-148.562,11.354-.484,0,0-3.745,1.872-4.409,5.073-.725,3.141-.242,9.784-.242,9.784Z" transform="translate(-8.026 -6.369)" fill="#a6a385" fill-rule="evenodd"/>
    <path id="Path_15728" data-name="Path 15728" d="M35.075,81.134s21.681-14.253,16.607-43.9C46.791,15.67,35.256,8.6,33.988,5.887A30.486,30.486,0,0,1,31.27.573l.906,59.967c0,.061-1.872,18.359,2.9,20.595" transform="translate(-10.806 -0.331)" fill="#fff" fill-rule="evenodd"/>
    <path id="Path_15729" data-name="Path 15729" d="M35.075,81.134s21.681-14.253,16.607-43.9C46.791,15.67,35.256,8.6,33.988,5.887A30.486,30.486,0,0,1,31.27.573l.906,59.967c0,.061-1.872,18.359,2.9,20.595" transform="translate(-10.806 -0.331)" fill="#499d4a" fill-rule="evenodd"/>
    <path id="Path_15730" data-name="Path 15730" d="M19.2,81.791S-1.156,67.9.052,43.443C1.2,18.985,15.572,6.967,18.35,4.793,20.162,2.861,20.222,2.135,20.343.2c1.268,2.718,1.027,40.643,1.207,45.112C22.094,62.526,20.585,78.53,19.2,81.791Z" transform="translate(0 -0.203)" fill="#fff" fill-rule="evenodd"/>
    <path id="Path_15731" data-name="Path 15731" d="M19.2,81.791S-1.156,67.9.052,43.443C1.2,18.985,15.572,6.967,18.35,4.793,20.162,2.861,20.222,2.135,20.343.2c1.268,2.718,1.027,40.643,1.207,45.112C22.094,62.526,20.585,78.53,19.2,81.791Z" transform="translate(0 -0.203)" fill="#58aa50" fill-rule="evenodd"/>
  </g>
</svg>
