<svg id="php-1" xmlns="http://www.w3.org/2000/svg" width="183.187" height="95.357" viewBox="0 0 183.187 95.357">
  <ellipse id="Ellipse_650" data-name="Ellipse 650" cx="91.594" cy="47.679" rx="91.594" ry="47.679" transform="translate(0 0)" fill="#8993be"/>
  <path id="Path_15721" data-name="Path 15721" d="M35.945,80.647,45.983,29.832H69.194c10.037.628,15.056,5.646,15.056,14.43,0,15.056-11.919,23.839-22.585,23.212H50.375l-2.51,13.174ZM52.883,58.063,56.02,39.242h8.155c4.391,0,7.528,1.882,7.528,5.646-.627,10.666-5.646,12.548-11.292,13.175H52.884Zm29.035,9.41L91.956,16.658h11.92l-2.51,13.174h11.292c10.038.628,13.8,5.646,12.548,11.92l-4.391,25.721H108.268l4.391-23.212c.627-3.137.627-5.019-3.764-5.019H99.485L93.839,67.473Zm38.092,13.174,10.037-50.816H153.26c10.038.628,15.057,5.646,15.057,14.43,0,15.056-11.92,23.839-22.585,23.212H134.44l-2.51,13.174Zm16.938-22.584,3.137-18.821h8.156c4.391,0,7.528,1.882,7.528,5.646-.627,10.666-5.646,12.548-11.292,13.175h-7.529Z" transform="translate(-10.224 -4.738)" fill="#232531" fill-rule="evenodd"/>
</svg>
