<svg xmlns="http://www.w3.org/2000/svg" width="126" height="126" viewBox="0 0 126 126">
  <g id="pricing-icon-1" transform="translate(-384 -1535)">
    <rect id="Rectangle_14103" data-name="Rectangle 14103" width="114" height="114" rx="10" transform="translate(396 1547)" fill="#e9eaed"/>
    <g id="Group_27899" data-name="Group 27899" transform="translate(384 1535)">
      <rect id="Rectangle_14100" data-name="Rectangle 14100" width="115" height="115" rx="10" fill="#3a404a"/>
      <g id="like_2_" data-name="like (2)" transform="translate(23.862 25.055)">
        <path id="Path_15240" data-name="Path 15240" d="M64.824,49.536a4.089,4.089,0,0,0-1.006-2.7,4.134,4.134,0,0,0,2.136-3.522,4.046,4.046,0,0,0-1.175-2.932,4.223,4.223,0,0,0-.978-.742,4.116,4.116,0,0,0-3.1-6.832h-7.4l2.833-6.034a5.15,5.15,0,0,0-2.469-6.841,5.1,5.1,0,0,0-2.182-.487,5.166,5.166,0,0,0-4.659,2.958l-1.477,3.148c-.046.1-.094.2-.144.292a.966.966,0,0,0,1.716.889c.061-.118.119-.237.176-.359l1.477-3.149a3.227,3.227,0,0,1,2.91-1.847,3.177,3.177,0,0,1,1.36.3,3.215,3.215,0,0,1,1.542,4.271l-3.457,7.365a.966.966,0,0,0,.054.921l.029.046a.966.966,0,0,0,.82.456h8.865a2.186,2.186,0,1,1,0,4.372.966.966,0,0,0,0,1.932h1.061a2.3,2.3,0,0,1,1.632.689,2.129,2.129,0,0,1,.623,1.541,2.2,2.2,0,0,1-2.184,2.142H60.706a.966.966,0,0,0,0,1.932,2.185,2.185,0,1,1,0,4.371H59.575a.966.966,0,0,0,0,1.932,2.174,2.174,0,0,1,1.544.638,2.207,2.207,0,0,1,.482.725l.008.022a2.19,2.19,0,0,1-2.034,2.988H42.4a4.607,4.607,0,0,1-2.752-.9,3.418,3.418,0,0,0,.2-1.146V36.322s0-.008,0-.012,0,0,0-.006a5.63,5.63,0,0,1,.486-2.408,5.718,5.718,0,0,1,2.343-2.627,10.8,10.8,0,0,0,1.668-1.206.966.966,0,1,0-1.276-1.451,8.869,8.869,0,0,1-1.37.99,7.641,7.641,0,0,0-3.132,3.51c-.06.136-.116.273-.168.411a3.414,3.414,0,0,0-1.987-.636H31.543a3.437,3.437,0,0,0-3.433,3.434V48.439A18.1,18.1,0,0,0,0,63.527a18.189,18.189,0,0,0,.271,3.132.966.966,0,0,0,1.9-.334,16.186,16.186,0,0,1-.213-1.833h2.63a.966.966,0,1,0,0-1.932H1.962a16.059,16.059,0,0,1,1.682-6.269l1.015.586A.966.966,0,1,0,5.625,55.2l-1.012-.584A16.309,16.309,0,0,1,9.2,50.031l.584,1.012a.966.966,0,1,0,1.673-.966l-.586-1.015a16.059,16.059,0,0,1,6.269-1.682v2.63a.966.966,0,0,0,1.932,0v-2.63a16.058,16.058,0,0,1,6.269,1.682l-.586,1.015a.966.966,0,1,0,1.673.966l.584-1.012A16.306,16.306,0,0,1,31.6,54.619l-1.012.584a.966.966,0,1,0,.966,1.673l1.015-.586a16.056,16.056,0,0,1,1.682,6.269h-2.63a.966.966,0,1,0,0,1.932h2.63a16.059,16.059,0,0,1-1.682,6.269l-1.015-.586a.966.966,0,1,0-.966,1.673l1.012.584a16.307,16.307,0,0,1-4.588,4.588l-.584-1.012a.966.966,0,0,0-1.673.966l.586,1.015a16.057,16.057,0,0,1-6.269,1.682v-2.63a.966.966,0,0,0-1.932,0v2.628A16.155,16.155,0,0,1,10.869,78l.589-1.021a.966.966,0,1,0-1.673-.966l-.591,1.023A16.138,16.138,0,0,1,4.6,72.439l1.021-.59a.966.966,0,1,0-.966-1.673l-1.019.588c-.154-.309-.3-.623-.438-.945a.966.966,0,1,0-1.78.752,18.111,18.111,0,0,0,34.322-11.16h.667a3.416,3.416,0,0,0,2.1-.723A6.526,6.526,0,0,0,42.4,59.959H59.575a4.122,4.122,0,0,0,3.844-5.6c0-.012-.008-.023-.013-.035a4.123,4.123,0,0,0-.717-1.182,4.122,4.122,0,0,0,2.136-3.609ZM36.411,57.48H35.176a18.171,18.171,0,0,0-5.135-7.56v-13.6a1.5,1.5,0,0,1,1.5-1.5H36.41a1.5,1.5,0,0,1,1.5,1.5V55.978A1.5,1.5,0,0,1,36.411,57.48Z" transform="translate(0 -18.205)" fill="#fff"/>
        <path id="Path_15241" data-name="Path 15241" d="M65.4,305.763h0a3.153,3.153,0,0,0,3.15-3.15v-5.576a3.15,3.15,0,0,0-6.3,0v2.426H57.439a3.15,3.15,0,0,0,0,6.3Zm-1.218-8.726a1.218,1.218,0,0,1,2.435,0v5.576a1.218,1.218,0,0,1-2.435,0Zm-7.965,5.576a1.219,1.219,0,0,1,1.218-1.218h4.815v1.218a3.133,3.133,0,0,0,.245,1.218h-5.06A1.219,1.219,0,0,1,56.221,302.613Z" transform="translate(-47.296 -257.291)" fill="#fff"/>
        <path id="Path_15242" data-name="Path 15242" d="M184.918,16.212a2.717,2.717,0,0,0,2.565,1.828,2.685,2.685,0,0,0,.7-.092l.251-.067h0a2.715,2.715,0,0,0,1.956-3.134l-.541-2.762a2.707,2.707,0,0,0-3.357-2.094l-.623.167A2.706,2.706,0,0,0,184,13.55Zm.964-3.9a.766.766,0,0,1,.483-.384l.623-.167a.781.781,0,0,1,.2-.027.776.776,0,0,1,.758.626l.541,2.762a.777.777,0,0,1-.559.9l-.251.067a.776.776,0,0,1-.933-.5l-.913-2.662A.767.767,0,0,1,185.882,12.308Z" transform="translate(-160.175 -9.8)" fill="#fff"/>
        <path id="Path_15243" data-name="Path 15243" d="M111.642,56.477l2.121,1.849a2.715,2.715,0,0,0,3.692-.126l.183-.183a2.714,2.714,0,0,0,.126-3.692L115.916,52.2a2.706,2.706,0,0,0-3.954-.136l-.456.456a2.706,2.706,0,0,0,.136,3.954Zm1.231-2.588.456-.456a.766.766,0,0,1,.546-.227h.028a.767.767,0,0,1,.557.265l1.849,2.122a.776.776,0,0,1-.036,1.056l-.183.183a.777.777,0,0,1-1.056.036l-2.121-1.849a.774.774,0,0,1-.039-1.131Z" transform="translate(-96.452 -45.932)" fill="#fff"/>
        <path id="Path_15244" data-name="Path 15244" d="M71.423,130.4l2.762.541a2.707,2.707,0,0,0,3.134-1.955l.067-.251h0a2.715,2.715,0,0,0-1.736-3.261l-2.662-.913a2.706,2.706,0,0,0-3.492,1.859l-.167.623a2.706,2.706,0,0,0,2.094,3.357Zm-.228-2.856.167-.623a.776.776,0,0,1,.746-.574.775.775,0,0,1,.252.042l2.662.913a.776.776,0,0,1,.5.933l-.067.251a.777.777,0,0,1-.9.559l-2.762-.541a.774.774,0,0,1-.6-.96Z" transform="translate(-60.318 -109.655)" fill="#fff"/>
      </g>
    </g>
  </g>
</svg>
