<svg id="solutioncard-sm-icon-3" xmlns="http://www.w3.org/2000/svg" width="38" height="38" viewBox="0 0 38 38">
  <circle id="Ellipse_5" data-name="Ellipse 5" cx="19" cy="19" r="19" fill="#3a404a"/>
  <g id="like" transform="translate(10 10)">
    <g id="Group_214" data-name="Group 214" transform="translate(0 7.671)">
      <g id="Group_213" data-name="Group 213">
        <path id="Path_138" data-name="Path 138" d="M1.918,224A1.92,1.92,0,0,0,0,225.918v6.137a1.92,1.92,0,0,0,1.918,1.918h2.3a1.9,1.9,0,0,0,1.151-.388V224Z" transform="translate(0 -224)" fill="#fff"/>
      </g>
    </g>
    <g id="Group_216" data-name="Group 216" transform="translate(6.137)">
      <g id="Group_215" data-name="Group 215">
        <path id="Path_139" data-name="Path 139" d="M182.94,21.214a1.7,1.7,0,0,0-.5-1.207,1.9,1.9,0,0,0,.491-1.464,1.983,1.983,0,0,0-2-1.739h-4.738a11.029,11.029,0,0,0,.611-3.068c0-1.664-1.414-3.068-2.3-3.068a2.413,2.413,0,0,0-1.391.467.385.385,0,0,0-.143.3v2.6l-2.209,4.786-.092.047v8.221a5.026,5.026,0,0,0,1.918.453h7.041a1.764,1.764,0,0,0,1.738-1.34,1.726,1.726,0,0,0-.139-1.152,1.718,1.718,0,0,0,.768-2.3A1.717,1.717,0,0,0,182.94,21.214Z" transform="translate(-170.667 -10.667)" fill="#fff"/>
      </g>
    </g>
  </g>
</svg>
