<svg id="solution-card-icon-3" xmlns="http://www.w3.org/2000/svg" width="79.447" height="76.418" viewBox="0 0 79.447 76.418">
  <ellipse id="Ellipse_4" data-name="Ellipse 4" cx="36.538" cy="36.538" rx="36.538" ry="36.538" transform="translate(6.37)" fill="#e9eaed"/>
  <g id="like_1_" data-name="like (1)" transform="translate(0 24.34)">
    <g id="Group_228" data-name="Group 228" transform="translate(0 22.161)">
      <path id="Path_144" data-name="Path 144" d="M107.148,229.864h-4.985v-5.54a3.325,3.325,0,0,0-6.649,0v3.11a3.859,3.859,0,0,1-2.738,3.707l-2.8.862v17.252c0,.044,0,.087,0,.131a5.227,5.227,0,0,0,3.7,1.531h13.482a4.986,4.986,0,0,0,4.986-4.986v-11.08A4.986,4.986,0,0,0,107.148,229.864Z" transform="translate(-80.001 -221)" fill="#3a404a"/>
      <path id="Path_145" data-name="Path 145" d="M4.986,322.053H1.662A1.662,1.662,0,0,1,0,320.391V302.662A1.662,1.662,0,0,1,1.662,301H4.986a1.662,1.662,0,0,1,1.662,1.662v17.729A1.662,1.662,0,0,1,4.986,322.053Z" transform="translate(0 -292.136)" fill="#3a404a"/>
    </g>
    <g id="Group_229" data-name="Group 229" transform="translate(24.599)">
      <path id="Path_146" data-name="Path 146" d="M226.986,42.053h4.985v5.54a3.325,3.325,0,0,0,6.649,0v-3.11a3.859,3.859,0,0,1,2.738-3.707l2.8-.862V22.662c0-.044,0-.087,0-.131a5.227,5.227,0,0,0-3.7-1.531H226.986A4.986,4.986,0,0,0,222,25.986v11.08A4.986,4.986,0,0,0,226.986,42.053Z" transform="translate(-222 -21)" fill="#3a404a"/>
      <path id="Path_147" data-name="Path 147" d="M453.662,21h3.324a1.662,1.662,0,0,1,1.662,1.662V40.391a1.662,1.662,0,0,1-1.662,1.662h-3.324A1.662,1.662,0,0,1,452,40.391V22.662A1.662,1.662,0,0,1,453.662,21Z" transform="translate(-426.515 -21)" fill="#3a404a"/>
    </g>
  </g>
</svg>
