<svg xmlns="http://www.w3.org/2000/svg" width="75.596" height="78.247" viewBox="0 0 75.596 78.247">
  <g id="solution-card-icon-1" transform="translate(0)">
    <ellipse id="Ellipse_4" data-name="Ellipse 4" cx="36.538" cy="36.538" rx="36.538" ry="36.538" transform="translate(2.519)" fill="#e9eaed"/>
    <path id="Icon_metro-local-service" data-name="Icon metro-local-service" d="M23.82,51.347A12.459,12.459,0,1,0,41.439,33.728ZM51.332,5.173,13.943,5.141a6.23,6.23,0,0,0-6.231,6.231V61.224a6.23,6.23,0,0,0,6.231,6.231H51.332a6.23,6.23,0,0,0,6.231-6.231V11.373a6.2,6.2,0,0,0-6.231-6.2Zm-24.925,6.2a3.116,3.116,0,1,1-3.116,3.116A3.125,3.125,0,0,1,26.406,11.373Zm-9.347,0a3.116,3.116,0,1,1-3.116,3.116A3.125,3.125,0,0,1,17.059,11.373ZM32.638,61.224A18.694,18.694,0,1,1,51.332,42.53,18.689,18.689,0,0,1,32.638,61.224Z" transform="translate(-7.712 10.792)" fill="#2a2a27"/>
  </g>
</svg>
