<svg id="solution-card-icon-2" xmlns="http://www.w3.org/2000/svg" width="73.077" height="78.248" viewBox="0 0 73.077 78.248">
  <g id="Group_198" data-name="Group 198">
    <ellipse id="Ellipse_4" data-name="Ellipse 4" cx="36.538" cy="36.538" rx="36.538" ry="36.538" fill="#e9eaed"/>
  </g>
  <path id="popular" d="M34.955,16.312a1.84,1.84,0,0,0-3.416.952,4.073,4.073,0,1,1-8.146,0V1.84a1.84,1.84,0,0,0-3.142-1.3,89.986,89.986,0,0,0-10.086,12.6A71.476,71.476,0,0,0,3.211,26.105,41.089,41.089,0,0,0,0,41.265a21.553,21.553,0,0,0,43.105,0c0-7.607-2.742-16-8.15-24.953ZM33.833,40.786a1.84,1.84,0,1,1-3.681,0V37.345l-9.163,9.164a1.841,1.841,0,0,1-2.6,0l-4.274-4.275-2.88,2.88a1.84,1.84,0,0,1-2.6-2.6L12.81,38.33a1.841,1.841,0,0,1,2.6,0L19.687,42.6l7.863-7.863H24.107a1.84,1.84,0,0,1,0-3.681h7.885a1.841,1.841,0,0,1,1.84,1.84v7.885Zm0,0" transform="translate(1.073 15.431)" fill="#3a404a"/>
</svg>
