<svg id="augmented-reality" xmlns="http://www.w3.org/2000/svg" width="64.599" height="61.571" viewBox="0 0 64.599 61.571">
  <g id="Group_1630" data-name="Group 1630" transform="translate(6.056 15.14)">
    <g id="Group_1629" data-name="Group 1629">
      <path id="Path_4414" data-name="Path 4414" d="M100.335,146.607a30.607,30.607,0,0,0-52.184,0,1.015,1.015,0,0,0,0,1.067,30.607,30.607,0,0,0,52.184,0A1.015,1.015,0,0,0,100.335,146.607ZM74.243,160.262A28.564,28.564,0,0,1,50.206,147.14a28.577,28.577,0,0,1,48.074,0A28.562,28.562,0,0,1,74.243,160.262Z" transform="translate(-48 -132)" fill="#fff"/>
    </g>
  </g>
  <g id="Group_1632" data-name="Group 1632" transform="translate(21.197 19.178)">
    <g id="Group_1631" data-name="Group 1631">
      <path id="Path_4415" data-name="Path 4415" d="M179.1,164a11.1,11.1,0,1,0,11.1,11.1A11.116,11.116,0,0,0,179.1,164Zm0,20.187a9.084,9.084,0,1,1,9.084-9.084A9.094,9.094,0,0,1,179.1,184.187Z" transform="translate(-168 -164)" fill="#fff"/>
    </g>
  </g>
  <g id="Group_1634" data-name="Group 1634" transform="translate(28.262 26.243)">
    <g id="Group_1633" data-name="Group 1633">
      <path id="Path_4416" data-name="Path 4416" d="M228.037,220a4.037,4.037,0,1,0,4.037,4.037A4.041,4.041,0,0,0,228.037,220Zm0,6.056a2.019,2.019,0,1,1,2.019-2.019A2.021,2.021,0,0,1,228.037,226.056Z" transform="translate(-224 -220)" fill="#fff"/>
    </g>
  </g>
  <g id="Group_1636" data-name="Group 1636" transform="translate(48.449 12.112)">
    <g id="Group_1635" data-name="Group 1635">
      <path id="Path_4417" data-name="Path 4417" d="M399.14,108H385.009a1.009,1.009,0,1,0,0,2.019H399.14a1.009,1.009,0,1,0,0-2.019Z" transform="translate(-384 -108)" fill="#fff"/>
    </g>
  </g>
  <g id="Group_1638" data-name="Group 1638" transform="translate(48.449 8.075)">
    <g id="Group_1637" data-name="Group 1637">
      <path id="Path_4418" data-name="Path 4418" d="M389.047,76h-4.037a1.009,1.009,0,1,0,0,2.019h4.037a1.009,1.009,0,1,0,0-2.019Z" transform="translate(-384 -76)" fill="#fff"/>
    </g>
  </g>
  <g id="Group_1640" data-name="Group 1640" transform="translate(59.552 4.037)">
    <g id="Group_1639" data-name="Group 1639">
      <path id="Path_4419" data-name="Path 4419" d="M476.037,44h-3.028a1.009,1.009,0,1,0,0,2.019h3.028a1.009,1.009,0,0,0,0-2.019Z" transform="translate(-472 -44)" fill="#fff"/>
    </g>
  </g>
  <g id="Group_1642" data-name="Group 1642" transform="translate(56.524 8.075)">
    <g id="Group_1641" data-name="Group 1641">
      <path id="Path_4420" data-name="Path 4420" d="M455.066,76h-6.056a1.009,1.009,0,1,0,0,2.019h6.056a1.009,1.009,0,0,0,0-2.019Z" transform="translate(-448 -76)" fill="#fff"/>
    </g>
  </g>
  <g id="Group_1644" data-name="Group 1644" transform="translate(48.449 0)">
    <g id="Group_1643" data-name="Group 1643">
      <path id="Path_4421" data-name="Path 4421" d="M389.047,12h-4.037a1.009,1.009,0,1,0,0,2.019h4.037a1.009,1.009,0,1,0,0-2.019Z" transform="translate(-384 -12)" fill="#fff"/>
    </g>
  </g>
  <g id="Group_1646" data-name="Group 1646" transform="translate(56.524 0)">
    <g id="Group_1645" data-name="Group 1645">
      <path id="Path_4422" data-name="Path 4422" d="M455.066,12h-6.056a1.009,1.009,0,1,0,0,2.019h6.056a1.009,1.009,0,0,0,0-2.019Z" transform="translate(-448 -12)" fill="#fff"/>
    </g>
  </g>
  <g id="Group_1648" data-name="Group 1648" transform="translate(48.449 4.037)">
    <g id="Group_1647" data-name="Group 1647">
      <path id="Path_4423" data-name="Path 4423" d="M392.075,44h-7.066a1.009,1.009,0,1,0,0,2.019h7.066a1.009,1.009,0,0,0,0-2.019Z" transform="translate(-384 -44)" fill="#fff"/>
    </g>
  </g>
  <g id="Group_1650" data-name="Group 1650" transform="translate(34.318 29.271)">
    <g id="Group_1649" data-name="Group 1649">
      <path id="Path_4424" data-name="Path 4424" d="M280.075,244h-7.066a1.009,1.009,0,0,0,0,2.019h7.066a1.009,1.009,0,0,0,0-2.019Z" transform="translate(-272 -244)" fill="#fff"/>
    </g>
  </g>
  <g id="Group_1652" data-name="Group 1652" transform="translate(31.29 37.346)">
    <g id="Group_1651" data-name="Group 1651">
      <path id="Path_4425" data-name="Path 4425" d="M249.009,308A1.008,1.008,0,0,0,248,309.009v2.019a1.009,1.009,0,1,0,2.019,0v-2.019A1.008,1.008,0,0,0,249.009,308Z" transform="translate(-248 -308)" fill="#fff"/>
    </g>
  </g>
  <g id="Group_1654" data-name="Group 1654" transform="translate(31.29 19.178)">
    <g id="Group_1653" data-name="Group 1653">
      <path id="Path_4426" data-name="Path 4426" d="M249.009,164A1.008,1.008,0,0,0,248,165.009v2.019a1.009,1.009,0,1,0,2.019,0v-2.019A1.008,1.008,0,0,0,249.009,164Z" transform="translate(-248 -164)" fill="#fff"/>
    </g>
  </g>
  <g id="Group_1656" data-name="Group 1656" transform="translate(36.999 34.98)">
    <g id="Group_1655" data-name="Group 1655">
      <path id="Path_4427" data-name="Path 4427" d="M296.4,290.97l-1.428-1.428a1.009,1.009,0,1,0-1.427,1.427l1.428,1.428a1.009,1.009,0,0,0,1.427-1.427Z" transform="translate(-293.246 -289.246)" fill="#fff"/>
    </g>
  </g>
  <g id="Group_1658" data-name="Group 1658" transform="translate(24.154 22.135)">
    <g id="Group_1657" data-name="Group 1657">
      <path id="Path_4428" data-name="Path 4428" d="M194.588,189.161l-1.427-1.427a1.009,1.009,0,1,0-1.427,1.427l1.427,1.427a1.009,1.009,0,1,0,1.427-1.427Z" transform="translate(-191.438 -187.438)" fill="#fff"/>
    </g>
  </g>
  <g id="Group_1660" data-name="Group 1660" transform="translate(21.198 29.271)">
    <g id="Group_1659" data-name="Group 1659">
      <path id="Path_4429" data-name="Path 4429" d="M176.082,244h-7.064a1.009,1.009,0,0,0,0,2.019h7.064a1.009,1.009,0,1,0,0-2.019Z" transform="translate(-168.008 -244)" fill="#fff"/>
    </g>
  </g>
  <g id="Group_1662" data-name="Group 1662" transform="translate(37 12.113)">
    <g id="Group_1661" data-name="Group 1661">
      <path id="Path_4430" data-name="Path 4430" d="M306.426,108.3a1.008,1.008,0,0,0-1.427,0L293.55,119.751a1.009,1.009,0,1,0,1.427,1.427l11.449-11.449A1.008,1.008,0,0,0,306.426,108.3Z" transform="translate(-293.254 -108.006)" fill="#fff"/>
    </g>
  </g>
  <g id="Group_1664" data-name="Group 1664" transform="translate(14.129 34.979)">
    <g id="Group_1663" data-name="Group 1663">
      <path id="Path_4431" data-name="Path 4431" d="M125.157,289.534a1.008,1.008,0,0,0-1.427,0l-11.452,11.451a1.009,1.009,0,1,0,1.427,1.427l11.452-11.451A1.008,1.008,0,0,0,125.157,289.534Z" transform="translate(-111.982 -289.238)" fill="#fff"/>
    </g>
  </g>
  <g id="Group_1666" data-name="Group 1666" transform="translate(0 46.431)">
    <g id="Group_1665" data-name="Group 1665">
      <path id="Path_4432" data-name="Path 4432" d="M15.138,380H1.009a1.009,1.009,0,1,0,0,2.019H15.138a1.009,1.009,0,1,0,0-2.019Z" transform="translate(0 -380)" fill="#fff"/>
    </g>
  </g>
  <g id="Group_1668" data-name="Group 1668" transform="translate(0 50.468)">
    <g id="Group_1667" data-name="Group 1667">
      <path id="Path_4433" data-name="Path 4433" d="M15.14,412H1.009A1.008,1.008,0,0,0,0,413.009v9.084A1.008,1.008,0,0,0,1.009,423.1H15.14a1.008,1.008,0,0,0,1.009-1.009v-9.084A1.008,1.008,0,0,0,15.14,412Zm-1.009,9.084H2.019v-7.066H14.131Z" transform="translate(0 -412)" fill="#fff"/>
    </g>
  </g>
  <g id="Group_1670" data-name="Group 1670" transform="translate(3.028 56.524)">
    <g id="Group_1669" data-name="Group 1669">
      <path id="Path_4434" data-name="Path 4434" d="M33.084,460H25.009a1.009,1.009,0,0,0,0,2.019h8.075a1.009,1.009,0,0,0,0-2.019Z" transform="translate(-24 -460)" fill="#fff"/>
    </g>
  </g>
  <g id="Group_1672" data-name="Group 1672" transform="translate(3.028 56.524)">
    <g id="Group_1671" data-name="Group 1671">
      <path id="Path_4435" data-name="Path 4435" d="M25.009,460A1.008,1.008,0,0,0,24,461.009v3.028a1.009,1.009,0,0,0,2.019,0v-3.028A1.008,1.008,0,0,0,25.009,460Z" transform="translate(-24 -460)" fill="#fff"/>
    </g>
  </g>
  <g id="Group_1674" data-name="Group 1674" transform="translate(11.103 56.524)">
    <g id="Group_1673" data-name="Group 1673">
      <path id="Path_4436" data-name="Path 4436" d="M89.009,460A1.008,1.008,0,0,0,88,461.009v3.028a1.009,1.009,0,0,0,2.019,0v-3.028A1.008,1.008,0,0,0,89.009,460Z" transform="translate(-88 -460)" fill="#fff"/>
    </g>
  </g>
  <g id="Group_1676" data-name="Group 1676" transform="translate(11.103 1.009)">
    <g id="Group_1675" data-name="Group 1675">
      <path id="Path_4437" data-name="Path 4437" d="M98.094,20H89.009A1.008,1.008,0,0,0,88,21.009v9.084A1.008,1.008,0,0,0,89.009,31.1h9.084A1.008,1.008,0,0,0,99.1,30.094V21.009A1.008,1.008,0,0,0,98.094,20Zm-1.009,9.084H90.019V22.019h7.066Z" transform="translate(-88 -20)" fill="#fff"/>
    </g>
  </g>
  <g id="Group_1678" data-name="Group 1678" transform="translate(4.037 14.131)">
    <g id="Group_1677" data-name="Group 1677">
      <path id="Path_4438" data-name="Path 4438" d="M37.047,124H33.009A1.008,1.008,0,0,0,32,125.009v4.037a1.008,1.008,0,0,0,1.009,1.009h4.037a1.008,1.008,0,0,0,1.009-1.009v-4.037A1.008,1.008,0,0,0,37.047,124Zm-1.009,4.037H34.019v-2.019h2.019Z" transform="translate(-32 -124)" fill="#fff"/>
    </g>
  </g>
  <g id="Group_1680" data-name="Group 1680" transform="translate(27.253 5.047)">
    <g id="Group_1679" data-name="Group 1679">
      <path id="Path_4439" data-name="Path 4439" d="M220.037,52h-3.028A1.008,1.008,0,0,0,216,53.009v3.028a1.008,1.008,0,0,0,1.009,1.009h3.028a1.008,1.008,0,0,0,1.009-1.009V53.009A1.008,1.008,0,0,0,220.037,52Zm-1.009,3.028h-1.009V54.019h1.009Z" transform="translate(-216 -52)" fill="#fff"/>
    </g>
  </g>
  <g id="Group_1682" data-name="Group 1682" transform="translate(42.393 48.449)">
    <g id="Group_1681" data-name="Group 1681">
      <path id="Path_4440" data-name="Path 4440" d="M346.094,396h-9.084A1.008,1.008,0,0,0,336,397.009v9.084a1.008,1.008,0,0,0,1.009,1.009h9.084a1.008,1.008,0,0,0,1.009-1.009v-9.084A1.008,1.008,0,0,0,346.094,396Zm-1.009,9.084h-7.066v-7.065h7.066Z" transform="translate(-336 -396)" fill="#fff"/>
    </g>
  </g>
  <g id="Group_1684" data-name="Group 1684" transform="translate(54.505 40.374)">
    <g id="Group_1683" data-name="Group 1683">
      <path id="Path_4441" data-name="Path 4441" d="M437.047,332h-4.037A1.008,1.008,0,0,0,432,333.009v4.037a1.008,1.008,0,0,0,1.009,1.009h4.037a1.008,1.008,0,0,0,1.009-1.009v-4.037A1.008,1.008,0,0,0,437.047,332Zm-1.009,4.037h-2.019v-2.019h2.019Z" transform="translate(-432 -332)" fill="#fff"/>
    </g>
  </g>
  <g id="Group_1686" data-name="Group 1686" transform="translate(32.299 50.468)">
    <g id="Group_1685" data-name="Group 1685">
      <path id="Path_4442" data-name="Path 4442" d="M260.037,412h-3.028A1.008,1.008,0,0,0,256,413.009v3.028a1.008,1.008,0,0,0,1.009,1.009h3.028a1.008,1.008,0,0,0,1.009-1.009v-3.028A1.008,1.008,0,0,0,260.037,412Zm-1.009,3.028h-1.009v-1.009h1.009Z" transform="translate(-256 -412)" fill="#fff"/>
    </g>
  </g>
</svg>
