<svg id="computer-vision" xmlns="http://www.w3.org/2000/svg" width="71.571" height="61.926" viewBox="0 0 71.571 61.926">
  <path id="Path_4443" data-name="Path 4443" d="M37.77,308.9c-.654.039-1.32.058-1.979.058A36.152,36.152,0,0,1,14.268,301.5a27.052,27.052,0,0,0,.1-4.534c-.02-.554-.038-1.078-.038-1.547a1.048,1.048,0,1,0-2.1,0c0,.507.019,1.048.04,1.622.033.927.069,1.934.024,2.931a51.629,51.629,0,0,1-4.655-4.332,1.048,1.048,0,1,0-1.519,1.446,53.192,53.192,0,0,0,5.843,5.306,5.453,5.453,0,0,1-1.3,2.47,6.6,6.6,0,0,1-4.57,1.715,3.148,3.148,0,1,0,.017,2.1,8.753,8.753,0,0,0,6.063-2.357,7.114,7.114,0,0,0,1.572-2.6,37.934,37.934,0,0,0,22.038,7.34c.7,0,1.408-.021,2.1-.062a1.048,1.048,0,0,0-.124-2.093Zm-34.625-.2a1.051,1.051,0,1,1,1.048-1.051A1.051,1.051,0,0,1,3.145,308.7Z" transform="translate(0 -258.047)" fill="#fff"/>
  <path id="Path_4444" data-name="Path 4444" d="M3.086,69.986a1.048,1.048,0,1,0,1.636-1.311c-1.136-1.418-1.928-2.56-2.346-3.192a52.007,52.007,0,0,1,8.589-9.749,45.118,45.118,0,0,1,7.86-5.611c-.013.587-.024,1.155-.024,1.712a1.048,1.048,0,0,0,2.1,0c0-.759.02-1.552.041-2.392l.01-.422q.324-.156.649-.3a34.107,34.107,0,0,1,14.264-3.167A36.364,36.364,0,0,1,57.372,53.01a27.06,27.06,0,0,0-.1,4.531c.02.554.038,1.078.038,1.547a1.048,1.048,0,1,0,2.1,0c0-.507-.019-1.048-.04-1.622-.033-.928-.069-1.935-.023-2.934.964.787,1.854,1.576,2.666,2.342a1.048,1.048,0,0,0,1.439-1.525c-1.12-1.057-2.38-2.153-3.775-3.234a5.454,5.454,0,0,1,1.3-2.47,6.6,6.6,0,0,1,4.57-1.715,3.148,3.148,0,1,0-.016-2.1A8.753,8.753,0,0,0,59.46,48.19,7.115,7.115,0,0,0,57.886,50.8a38.141,38.141,0,0,0-22.025-7.345,36.149,36.149,0,0,0-14.878,3.24c0-3.72-.385-7.476-2.715-9.865A8.653,8.653,0,0,0,11.805,34.5H1.129a1.048,1.048,0,1,0,0,2.1H11.805a6.58,6.58,0,0,1,4.962,1.695c1.984,2.034,2.165,5.789,2.111,9.42a46.615,46.615,0,0,0-9.352,6.495A51.463,51.463,0,0,0,.232,64.94a1.049,1.049,0,0,0,0,1.084,40.475,40.475,0,0,0,2.854,3.962ZM68.5,45.807a1.051,1.051,0,1,1-1.048,1.051A1.051,1.051,0,0,1,68.5,45.807Z" transform="translate(-0.069 -34.5)" fill="#fff"/>
  <path id="Path_4445" data-name="Path 4445" d="M325.639,207.055a1.048,1.048,0,1,0-1.57,1.389,48.357,48.357,0,0,1,4.01,5.167,51.007,51.007,0,0,1-6.625,7.92,46.824,46.824,0,0,1-9.825,7.428c.014-.6.024-1.173.024-1.738a1.048,1.048,0,0,0-2.1,0c0,.759-.02,1.552-.041,2.392q-.006.224-.011.45a35.336,35.336,0,0,1-7.821,2.719,1.048,1.048,0,1,0,.446,2.049,37.089,37.089,0,0,0,7.342-2.439c0,3.71.391,7.453,2.715,9.836a8.654,8.654,0,0,0,6.463,2.328H329.26a1.048,1.048,0,1,0,0-2.1H318.648a6.58,6.58,0,0,1-4.962-1.695c-1.98-2.03-2.164-5.771-2.111-9.394a48.389,48.389,0,0,0,11.346-8.342,49.973,49.973,0,0,0,7.3-8.875,1.049,1.049,0,0,0,0-1.084A45.77,45.77,0,0,0,325.639,207.055Z" transform="translate(-258.801 -182.63)" fill="#fff"/>
  <path id="Path_4446" data-name="Path 4446" d="M147.9,148.091a1.049,1.049,0,0,0-1.475.152,15.872,15.872,0,1,0,3.76-3.361,1.048,1.048,0,0,0,1.133,1.764,13.814,13.814,0,1,1-3.266,2.92A1.048,1.048,0,0,0,147.9,148.091Z" transform="translate(-122.893 -127.293)" fill="#fff"/>
  <path id="Path_4447" data-name="Path 4447" d="M212.964,218.623a6.092,6.092,0,1,0,6.092-6.1,6.1,6.1,0,0,0-6.092,6.1Zm6.092-4a4,4,0,1,1-3.995,4A4,4,0,0,1,219.056,214.625Z" transform="translate(-183.194 -187.642)" fill="#fff"/>
  <path id="Path_4448" data-name="Path 4448" d="M185.081,282.285l-.972.562a1.048,1.048,0,1,0,1.049,1.816l.972-.562a1.048,1.048,0,0,0-1.049-1.816Z" transform="translate(-157.922 -247.527)" fill="#fff"/>
  <path id="Path_4449" data-name="Path 4449" d="M308.036,211.241l-.972.562a1.048,1.048,0,1,0,1.049,1.816l.972-.562a1.048,1.048,0,0,0-1.049-1.816Z" transform="translate(-263.69 -186.414)" fill="#fff"/>
  <path id="Path_4450" data-name="Path 4450" d="M283.982,307.2a1.048,1.048,0,1,0-1.816,1.048l.561.973a1.048,1.048,0,0,0,1.816-1.048Z" transform="translate(-242.602 -268.63)" fill="#fff"/>
  <path id="Path_4451" data-name="Path 4451" d="M212.994,184.15a1.048,1.048,0,0,0-1.816,1.048l.561.973a1.048,1.048,0,0,0,1.816-1.048Z" transform="translate(-181.537 -162.779)" fill="#fff"/>
  <path id="Path_4452" data-name="Path 4452" d="M307.064,284.1l.972.562a1.048,1.048,0,0,0,1.049-1.816l-.972-.562a1.048,1.048,0,0,0-1.049,1.816Z" transform="translate(-263.69 -247.526)" fill="#fff"/>
  <path id="Path_4453" data-name="Path 4453" d="M186.13,211.8l-.972-.562a1.048,1.048,0,1,0-1.049,1.816l.972.562a1.048,1.048,0,0,0,1.049-1.816Z" transform="translate(-157.922 -186.414)" fill="#fff"/>
  <path id="Path_4454" data-name="Path 4454" d="M211.562,309.607a1.048,1.048,0,0,0,1.432-.384l.561-.973a1.048,1.048,0,0,0-1.816-1.048l-.561.973A1.049,1.049,0,0,0,211.562,309.607Z" transform="translate(-181.537 -268.631)" fill="#fff"/>
  <path id="Path_4455" data-name="Path 4455" d="M283.073,186.7a1.048,1.048,0,0,0,.909-.525l.561-.973a1.049,1.049,0,0,0-1.816-1.048l-.561.973a1.049,1.049,0,0,0,.907,1.572Z" transform="translate(-242.602 -162.779)" fill="#fff"/>
  <path id="Path_4456" data-name="Path 4456" d="M173.538,249.68a1.048,1.048,0,0,0,1.048,1.048h1.122a1.048,1.048,0,0,0,0-2.1h-1.122A1.048,1.048,0,0,0,173.538,249.68Z" transform="translate(-149.28 -218.699)" fill="#fff"/>
  <path id="Path_4457" data-name="Path 4457" d="M315.514,249.68a1.048,1.048,0,0,0,1.048,1.048h1.122a1.048,1.048,0,0,0,0-2.1h-1.122A1.048,1.048,0,0,0,315.514,249.68Z" transform="translate(-271.409 -218.699)" fill="#fff"/>
  <path id="Path_4458" data-name="Path 4458" d="M248.541,316.707v1.123a1.048,1.048,0,1,0,2.1,0v-1.123a1.048,1.048,0,1,0-2.1,0Z" transform="translate(-213.798 -276.357)" fill="#fff"/>
  <path id="Path_4459" data-name="Path 4459" d="M250.638,175.742v-1.123a1.048,1.048,0,1,0-2.1,0v1.123a1.048,1.048,0,0,0,2.1,0Z" transform="translate(-213.798 -154.13)" fill="#fff"/>
  <path id="Path_4460" data-name="Path 4460" d="M446.776,425.792h-8.257a1.048,1.048,0,0,0,0,2.1h8.257a1.048,1.048,0,1,0,0-2.1Z" transform="translate(-376.317 -371.094)" fill="#fff"/>
  <path id="Path_4461" data-name="Path 4461" d="M1.129,73.3H11.483a1.048,1.048,0,1,0,0-2.1H1.129a1.048,1.048,0,1,0,0,2.1Z" transform="translate(-0.07 -66.077)" fill="#fff"/>
  <ellipse id="Ellipse_15" data-name="Ellipse 15" cx="1.048" cy="1.049" rx="1.048" ry="1.049" transform="translate(34.789 32.003) rotate(-89.484)" fill="#fff"/>
</svg>
