<svg id="iot" xmlns="http://www.w3.org/2000/svg" width="66.76" height="66.779" viewBox="0 0 66.76 66.779">
  <path id="Path_4478" data-name="Path 4478" d="M16,60.426a5.56,5.56,0,0,0,8.629,4.639l8.985,8.985a5.562,5.562,0,1,0,10.092,4.179H55.056A5.563,5.563,0,1,0,65.146,74.05l4.84-4.84-1.574-1.574-4.84,4.84A5.559,5.559,0,0,0,55.055,76H43.705a5.577,5.577,0,0,0-2.395-3.533l.647-1.618-2.066-.826-.646,1.616a5.535,5.535,0,0,0-4.057.834L26.2,63.492a5.535,5.535,0,0,0,.834-4.057l8.292-3.317L34.5,54.053,26.209,57.37a5.577,5.577,0,0,0-3.533-2.4V43.625a5.577,5.577,0,0,0,3.533-2.4L34.5,44.547l.826-2.066-8.292-3.317a5.535,5.535,0,0,0-.834-4.057l6.926-6.926-1.573-1.574-6.926,6.926a5.562,5.562,0,1,0-4.178,10.091V54.975A5.573,5.573,0,0,0,16,60.426ZM60.507,73.778a3.338,3.338,0,1,1-3.338,3.338A3.338,3.338,0,0,1,60.507,73.778Zm-22.253,0a3.338,3.338,0,1,1-3.338,3.338A3.338,3.338,0,0,1,38.253,73.778ZM18.225,38.173a3.338,3.338,0,1,1,3.338,3.338A3.338,3.338,0,0,1,18.225,38.173Zm3.338,18.915a3.338,3.338,0,1,1-3.338,3.338A3.338,3.338,0,0,1,21.563,57.088Zm61.2-18.915a5.56,5.56,0,0,0-8.629-4.639l-8.985-8.985A5.562,5.562,0,1,0,55.055,20.37H43.705a5.569,5.569,0,1,0-4.46,6.586l.646,1.616,2.066-.826-.648-1.617a5.577,5.577,0,0,0,2.4-3.533H55.056a5.577,5.577,0,0,0,2.395,3.533l-1.092,2.73,2.066.826,1.092-2.729a5.535,5.535,0,0,0,4.057-.834l8.985,8.985a5.535,5.535,0,0,0-.834,4.057L63.431,42.48l.826,2.066,8.294-3.318a5.577,5.577,0,0,0,3.533,2.4V54.975a5.577,5.577,0,0,0-3.533,2.395l-3.287-1.315-.826,2.066,3.285,1.314a5.535,5.535,0,0,0,.834,4.057l-2.2,2.2,1.574,1.574,2.2-2.2a5.562,5.562,0,1,0,4.178-10.091V43.625a5.573,5.573,0,0,0,4.451-5.452ZM38.253,24.821a3.338,3.338,0,1,1,3.338-3.338A3.338,3.338,0,0,1,38.253,24.821Zm22.253,0a3.338,3.338,0,1,1,3.338-3.338A3.338,3.338,0,0,1,60.507,24.821ZM80.534,60.426A3.338,3.338,0,1,1,77.2,57.088,3.338,3.338,0,0,1,80.534,60.426ZM77.2,41.511a3.338,3.338,0,1,1,3.338-3.338A3.338,3.338,0,0,1,77.2,41.511ZM39.366,39.285V64.877A2.228,2.228,0,0,0,41.591,67.1H53.831v2.225H41.591a4.456,4.456,0,0,1-4.451-4.451V39.285Zm25.591,26.7V53.829a4.421,4.421,0,0,0-1.3-3.147l-2.035-2.034v7.979l1.9,1.9L61.945,60.1,59.72,57.875,55.96,54.115A1.248,1.248,0,1,0,54.2,55.88l3.759,3.759a1.113,1.113,0,0,1,.139,1.4,5.814,5.814,0,0,0-.362,5.811l.431.862a1.112,1.112,0,0,1,.117.5v1.113H56.056v-.85l-.314-.628a8.046,8.046,0,0,1,.033-7.243l-3.153-3.153a3.473,3.473,0,1,1,4.912-4.911l1.86,1.86V34.835a2.228,2.228,0,0,0-2.225-2.225h-2.65l-.805,1.61a1.113,1.113,0,0,1-1,.615H46.042a1.113,1.113,0,0,1-1-.615l-.805-1.61h-2.65a2.228,2.228,0,0,0-2.225,2.225V37.06H37.141V34.835a4.456,4.456,0,0,1,4.451-4.451H57.169a4.456,4.456,0,0,1,4.451,4.451V45.5l3.608,3.608a6.632,6.632,0,0,1,1.955,4.721v12.16Zm-17.8-3.338h4.451v2.225H47.155Zm4.777-13.678a3.612,3.612,0,0,0-5.1,0L45.255,47.4a5.84,5.84,0,0,1,8.25,0Zm3.338-2.8a8.329,8.329,0,0,0-11.778,0L41.917,44.6a10.566,10.566,0,0,1,14.926,0Zm-4.777,6.462v2.225H48.267V52.637Zm-6.676,0h2.225v2.225H43.817Z" transform="translate(-16 -15.907)" fill="#fff"/>
</svg>
