<svg id="machine-learning" xmlns="http://www.w3.org/2000/svg" width="66.76" height="66.758" viewBox="0 0 66.76 66.758">
  <path id="Path_4409" data-name="Path 4409" d="M24.513,26.962H14.269a1.112,1.112,0,0,0-.789.327L9.346,31.424H8.487a3.346,3.346,0,1,0,0,2.231H9.808a1.112,1.112,0,0,0,.789-.327l4.135-4.135h9.782a3.312,3.312,0,0,0,5.344,1.383L34.4,33.1a3.305,3.305,0,0,0-.056.55,3.346,3.346,0,0,0,6.692,0,3.305,3.305,0,0,0-.056-.55l4.545-2.529a3.317,3.317,0,0,0,2.2.848,3.338,3.338,0,0,0,1.115-6.487V20.063a3.336,3.336,0,1,0-3.318-5.639L40.983,11.9a3.28,3.28,0,0,0,.056-.549,3.346,3.346,0,0,0-6.692,0,3.305,3.305,0,0,0,.056.55l-4.545,2.529a3.312,3.312,0,0,0-5.344,1.383H14.731L10.6,11.673a1.112,1.112,0,0,0-.789-.327H8.487a3.346,3.346,0,1,0,0,2.231h.859l4.135,4.135a1.112,1.112,0,0,0,.789.327H24.513a3.343,3.343,0,0,0,2.026,2.026v1.321H8.487a3.346,3.346,0,1,0,0,2.231H26.539v1.321a3.343,3.343,0,0,0-2.026,2.026ZM5.346,33.654a1.115,1.115,0,1,1,1.115-1.115A1.117,1.117,0,0,1,5.346,33.654Zm0-20.077a1.115,1.115,0,1,1,1.115-1.115A1.117,1.117,0,0,1,5.346,13.577Zm0,10.039A1.115,1.115,0,1,1,6.462,22.5,1.117,1.117,0,0,1,5.346,23.616Zm22.308,5.577a1.115,1.115,0,1,1,1.115-1.115A1.117,1.117,0,0,1,27.654,29.193Zm2.2-9.771L34.4,21.95a2.739,2.739,0,0,0,0,1.1l-4.545,2.529a3.353,3.353,0,0,0-1.088-.642V20.063A3.3,3.3,0,0,0,29.857,19.422Zm15.671,6.157L40.983,23.05a2.739,2.739,0,0,0,0-1.1l4.545-2.529a3.353,3.353,0,0,0,1.088.642v4.873A3.3,3.3,0,0,0,45.529,25.579ZM30.945,27.527,35.49,25a3.353,3.353,0,0,0,1.088.642v4.873a3.321,3.321,0,0,0-1.088.642l-4.545-2.529a2.744,2.744,0,0,0,0-1.1Zm6.748-6.143A1.115,1.115,0,1,1,36.578,22.5,1.117,1.117,0,0,1,37.693,21.385Zm1.115,4.256A3.321,3.321,0,0,0,39.9,25l4.545,2.529a2.739,2.739,0,0,0,0,1.1L39.9,31.156a3.353,3.353,0,0,0-1.088-.642Zm5.633-8.168L39.9,20a3.353,3.353,0,0,0-1.088-.642V14.486a3.321,3.321,0,0,0,1.088-.642l4.545,2.529a2.744,2.744,0,0,0,0,1.1Zm-7.864,1.886A3.321,3.321,0,0,0,35.49,20l-4.545-2.529a2.739,2.739,0,0,0,0-1.1l4.545-2.529a3.353,3.353,0,0,0,1.088.642Zm1.115,15.41a1.115,1.115,0,1,1,1.115-1.115A1.117,1.117,0,0,1,37.693,34.77Zm10.039-5.577a1.115,1.115,0,1,1,1.115-1.115A1.117,1.117,0,0,1,47.732,29.193Zm0-13.385a1.115,1.115,0,1,1-1.115,1.115A1.117,1.117,0,0,1,47.732,15.808ZM37.693,10.231a1.115,1.115,0,1,1-1.115,1.115A1.117,1.117,0,0,1,37.693,10.231ZM27.654,15.808a1.115,1.115,0,1,1-1.115,1.115A1.117,1.117,0,0,1,27.654,15.808Z" transform="translate(-2 -1.308)" fill="#fff"/>
  <path id="Path_4410" data-name="Path 4410" d="M24.149,68.759H41.942a1.113,1.113,0,0,0,1.112-1.113V59.858H57.511a1.113,1.113,0,0,0,1.112-1.113V45.393h7.784a1.113,1.113,0,0,0,1.062-1.445L61.924,26.2A25.011,25.011,0,0,0,35.435,2.044,25.118,25.118,0,0,0,15.873,13.638l1.873,1.2A22.89,22.89,0,0,1,35.566,4.265,22.788,22.788,0,0,1,59.708,26.533a1.065,1.065,0,0,0,.157.531l5.03,16.1H57.511A1.113,1.113,0,0,0,56.4,44.281v4.451H53.062a3.341,3.341,0,0,1-3.336-3.338H47.5a5.568,5.568,0,0,0,5.56,5.563H56.4v6.676H41.942a1.113,1.113,0,0,0-1.112,1.113v7.789H25.261V65.458a51.474,51.474,0,0,0-7.822-26.62A22.61,22.61,0,0,1,14.9,32.869l-2.151.57a24.838,24.838,0,0,0,2.793,6.556,49.257,49.257,0,0,1,7.5,25.463v2.189a1.113,1.113,0,0,0,1.112,1.113Z" transform="translate(-0.76 -2.001)" fill="#fff"/>
</svg>
