<svg id="languages" xmlns="http://www.w3.org/2000/svg" width="54" height="54" viewBox="0 0 54 54">
  <g id="Rectangle_14080" data-name="Rectangle 14080" fill="#1e2e3d" stroke="#fff" stroke-width="2">
    <rect width="54" height="54" rx="10" stroke="none"/>
    <rect x="1" y="1" width="52" height="52" rx="9" fill="none"/>
  </g>
  <g id="translation_2_" data-name="translation (2)" transform="translate(13.499 13.499)">
    <path id="Path_14896" data-name="Path 14896" d="M24.766,9.485H17.355c.023-.26.036-.523.036-.789A8.7,8.7,0,0,0,4.351,1.161a.527.527,0,1,0,.527.912A7.642,7.642,0,1,1,8.7,16.337,7.556,7.556,0,0,1,3.9,14.647a.527.527,0,0,0-.486-.093l-1.4.366.548-1.2a.527.527,0,0,0-.054-.528,7.646,7.646,0,0,1-.434-8.319.527.527,0,0,0-.912-.529,8.7,8.7,0,0,0,.316,9.214L.6,15.492a.527.527,0,0,0,.613.728l2.241-.586a8.694,8.694,0,0,0,6.452,1.672V21.92a2.216,2.216,0,0,0,2.213,2.213h7.453L22.9,26.86a.527.527,0,0,0,.861-.408V24.134h1A2.216,2.216,0,0,0,26.98,21.92V11.7a2.216,2.216,0,0,0-2.213-2.213ZM25.926,21.92a1.161,1.161,0,0,1-1.159,1.159H23.238a.527.527,0,0,0-.527.527V25.34l-2.6-2.129c-.143-.131-.269-.131-.551-.131H12.119A1.161,1.161,0,0,1,10.96,21.92V17.091a8.725,8.725,0,0,0,6.234-6.553h7.572A1.16,1.16,0,0,1,25.926,11.7Zm0,0" transform="translate(0 0.001)" fill="#fff"/>
    <path id="Path_14897" data-name="Path 14897" d="M293.307,255.273a.527.527,0,0,0-.224-1h-.216l-1.7-3.873a.527.527,0,0,0-.965,0l-1.7,3.873h-.216a.527.527,0,0,0-.224,1l-.633,1.443a.527.527,0,1,0,.965.423l.8-1.815h2.987l.8,1.815a.527.527,0,1,0,.965-.423Zm-3.653-1,1.031-2.35,1.031,2.35Zm0,0" transform="translate(-272.242 -236.904)" fill="#fff"/>
    <path id="Path_14898" data-name="Path 14898" d="M45.929,46.452a.527.527,0,1,0-.373-.154A.531.531,0,0,0,45.929,46.452Zm0,0" transform="translate(-43.01 -43.006)" fill="#fff"/>
    <path id="Path_14899" data-name="Path 14899" d="M100.407,92.8a.527.527,0,1,0,.507.924,6.035,6.035,0,0,0,2.608-2.829,6.036,6.036,0,0,0,2.608,2.829.527.527,0,1,0,.507-.924,4.984,4.984,0,0,1-2.531-3.626h2.34a.527.527,0,1,0,0-1.054h-2.4v-2.2a.527.527,0,1,0-1.054,0v2.2h-1.9a.527.527,0,0,0,0,1.054h1.847a4.983,4.983,0,0,1-2.531,3.626Zm0,0" transform="translate(-94.857 -80.895)" fill="#fff"/>
  </g>
</svg>
