<svg xmlns="http://www.w3.org/2000/svg" xmlns:xlink="http://www.w3.org/1999/xlink" width="169" height="169" viewBox="0 0 169 169">
  <defs>
    <filter id="Rectangle_517" x="0" y="0" width="169" height="169" filterUnits="userSpaceOnUse">
      <feOffset input="SourceAlpha"/>
      <feGaussianBlur stdDeviation="15" result="blur"/>
      <feFlood flood-opacity="0.078"/>
      <feComposite operator="in" in2="blur"/>
      <feComposite in="SourceGraphic"/>
    </filter>
  </defs>
  <g id="location-square" transform="translate(-135 -2196)">
    <g transform="matrix(1, 0, 0, 1, 135, 2196)" filter="url(#Rectangle_517)">
      <rect id="Rectangle_517-2" data-name="Rectangle 517" width="79" height="79" rx="10" transform="translate(45 45)" fill="#fff"/>
    </g>
    <path id="Icon_material-location-on" data-name="Icon material-location-on" d="M18,3A10.492,10.492,0,0,0,7.5,13.5C7.5,21.375,18,33,18,33S28.5,21.375,28.5,13.5A10.492,10.492,0,0,0,18,3Zm0,14.25a3.75,3.75,0,1,1,3.75-3.75A3.751,3.751,0,0,1,18,17.25Z" transform="translate(201.5 2262.5)" fill="#3a404a"/>
  </g>
</svg>
