<svg xmlns="http://www.w3.org/2000/svg" width="54" height="54" viewBox="0 0 54 54">
  <g id="timezones" transform="translate(-0.035)">
    <g id="Rectangle_14077" data-name="Rectangle 14077" transform="translate(0.035)" fill="#1e2e3d" stroke="#fff" stroke-width="2">
      <rect width="54" height="54" rx="10" stroke="none"/>
      <rect x="1" y="1" width="52" height="52" rx="9" fill="none"/>
    </g>
    <g id="time-zone" transform="translate(11.647 11.55)">
      <path id="Path_14892" data-name="Path 14892" d="M15.349,0a15.341,15.341,0,1,0,0,30.683,15.507,15.507,0,0,0,10.836-4.506A15.342,15.342,0,0,0,15.349,0ZM10.8,2.585A15.238,15.238,0,0,0,8.448,7.251H4.493a13.606,13.606,0,0,1,6.3-4.666ZM3.358,9.048H7.952a27.561,27.561,0,0,0-.68,5.394H1.835A13.45,13.45,0,0,1,3.358,9.048ZM1.835,16.24H7.272a27.549,27.549,0,0,0,.68,5.393H3.358A13.444,13.444,0,0,1,1.835,16.24Zm2.658,7.191H8.448A15.238,15.238,0,0,0,10.8,28.1,13.606,13.606,0,0,1,4.493,23.432Zm9.956,5.3c-2.015-.683-3.386-3.3-4.1-5.3h4.1Zm0-7.1H9.8a25.386,25.386,0,0,1-.73-5.393H14.45Zm0-7.191H9.071A25.386,25.386,0,0,1,9.8,9.049H14.45Zm0-7.191h-4.1c.718-2,2.089-4.617,4.1-5.3ZM28.862,16.24a13.487,13.487,0,0,1-3.3,7.985l-1.256-1.256L23.036,24.24,24.3,25.5a13.488,13.488,0,0,1-8.048,3.355V17.512l3.859,3.859L21.378,20.1,16.62,15.342l2.96-2.96L18.309,11.11l-2.061,2.061V1.828A13.488,13.488,0,0,1,24.3,5.183l-1.26,1.26,1.271,1.271,1.256-1.256a13.487,13.487,0,0,1,3.3,7.985H27.094v1.8h1.767Z" transform="translate(-0.007 0)" fill="#fff"/>
    </g>
  </g>
</svg>
