<svg xmlns="http://www.w3.org/2000/svg" width="1924" height="1006.613" viewBox="0 0 1924 1006.613">
  <g id="hero-section-bg-pattern" transform="translate(1.5 11.894)" opacity="0.1">
    <g id="Group_1755" data-name="Group 1755" transform="translate(1841.652 798.419)">
      <path id="Path_4589" data-name="Path 4589" d="M717.4,391.2h-13.62c-6.187,0-11.2-4.4-11.2-9.83v-19.66c0-5.428-5.014-9.83-11.2-9.83H664.508" transform="translate(-640.659 -341.419)" fill="none" stroke="#fff" stroke-linecap="round" stroke-linejoin="round" stroke-width="4"/>
      <path id="Path_4590" data-name="Path 4590" d="M656.883,358.534c0,5.779,5.339,10.464,11.923,10.464s11.926-4.684,11.926-10.464-5.339-10.464-11.926-10.464S656.883,352.757,656.883,358.534Z" transform="translate(-656.883 -348.07)" fill="none" stroke="#fff" stroke-linecap="round" stroke-linejoin="round" stroke-width="4"/>
    </g>
    <g id="Group_1758" data-name="Group 1758" transform="translate(-50.148 883.84)">
      <path id="Path_4594" data-name="Path 4594" d="M103.86,411.7H176.28c6.187,0,11.2-4.4,11.2-9.827v-15.05" transform="translate(-52.034 -365.895)" fill="none" stroke="#fff" stroke-linecap="round" stroke-linejoin="round" stroke-width="4"/>
      <path id="Path_4595" data-name="Path 4595" d="M115.378,389.661c0,5.777-5.339,10.464-11.926,10.464s-11.926-4.687-11.926-10.464S96.865,379.2,103.452,379.2,115.378,383.881,115.378,389.661Z" transform="translate(31.994 -379.197)" fill="none" stroke="#fff" stroke-linecap="round" stroke-linejoin="round" stroke-width="4"/>
    </g>
    <path id="Path_14856" data-name="Path 14856" d="M39.809,0H0" transform="translate(1.541 269.95)" fill="none" stroke="#fff" stroke-linecap="round" stroke-width="4"/>
    <path id="Path_14857" data-name="Path 14857" d="M78.059,0H39.814" transform="translate(-38.875 415.623)" fill="none" stroke="#fff" stroke-linecap="round" stroke-width="4"/>
    <path id="Path_14859" data-name="Path 14859" d="M67.853,0H40.763" transform="translate(-38.875 721.895)" fill="none" stroke="#fff" stroke-linecap="round" stroke-width="4"/>
    <path id="Path_14858" data-name="Path 14858" d="M53.565,0h-13.2" transform="translate(-38.875 434.735)" fill="none" stroke="#fff" stroke-linecap="round" stroke-width="4"/>
    <g id="Group_1761" data-name="Group 1761" transform="translate(-55.876 617.687)">
      <path id="Path_4600" data-name="Path 4600" d="M113.147,290.808v19.663c0,5.428,5.014,9.827,11.2,9.827h16.871" transform="translate(-55.638 -280.981)" fill="none" stroke="#fff" stroke-linecap="round" stroke-linejoin="round" stroke-width="4"/>
      <path id="Path_4601" data-name="Path 4601" d="M106.852,301.959c0-5.779-5.342-10.464-11.926-10.464S83,296.179,83,301.959s5.339,10.464,11.926,10.464S106.852,307.738,106.852,301.959Z" transform="translate(2.581 -262.642)" fill="none" stroke="#fff" stroke-linecap="round" stroke-linejoin="round" stroke-width="4"/>
    </g>
    <g id="Group_1762" data-name="Group 1762" transform="translate(-35.876 114.852)">
      <path id="Path_4602" data-name="Path 4602" d="M94.187,105.2v19.663c0,5.428,5.017,9.83,11.2,9.83h16.868" transform="translate(-55.638 -95.375)" fill="none" stroke="#fff" stroke-linecap="round" stroke-linejoin="round" stroke-width="4"/>
      <ellipse id="Ellipse_22" data-name="Ellipse 22" cx="11.925" cy="10.463" rx="11.925" ry="10.463" transform="translate(66.622 28.855)" fill="none" stroke="#fff" stroke-linecap="round" stroke-linejoin="round" stroke-width="4"/>
    </g>
    <g id="Group_1763" data-name="Group 1763" transform="translate(-60.126 507.155)">
      <line id="Line_66" data-name="Line 66" x1="34.652" transform="translate(60.626 10.464)" fill="none" stroke="#fff" stroke-linecap="round" stroke-linejoin="round" stroke-width="4"/>
      <path id="Path_4603" data-name="Path 4603" d="M103.616,250.692c0-5.779-5.339-10.464-11.926-10.464s-11.926,4.684-11.926,10.464S85.1,261.156,91.69,261.156,103.616,256.471,103.616,250.692Z" transform="translate(16.945 -240.228)" fill="none" stroke="#fff" stroke-linecap="round" stroke-linejoin="round" stroke-width="4"/>
    </g>
    <g id="Group_1764" data-name="Group 1764" transform="translate(-38.876 195.468)">
      <path id="Path_4604" data-name="Path 4604" d="M96.055,125.525h60.631c6.187,0,11.2,4.4,11.2,9.827V150.4" transform="translate(-55.638 -125.525)" fill="none" stroke="#fff" stroke-linecap="round" stroke-linejoin="round" stroke-width="4"/>
      <path id="Path_4605" data-name="Path 4605" d="M111.563,145.052c0-5.777-5.339-10.461-11.926-10.461s-11.923,4.684-11.923,10.461,5.339,10.464,11.923,10.464S111.563,150.832,111.563,145.052Z" transform="translate(12.611 -109.712)" fill="none" stroke="#fff" stroke-linecap="round" stroke-linejoin="round" stroke-width="4"/>
    </g>
    <g id="Group_1765" data-name="Group 1765" transform="translate(-50.876 290.755)">
      <path id="Path_4606" data-name="Path 4606" d="M109.207,192.7V174.252c0-5.428,5.014-9.83,11.2-9.83h16.249" transform="translate(-55.638 -153.96)" fill="none" stroke="#fff" stroke-linecap="round" stroke-linejoin="round" stroke-width="4"/>
      <ellipse id="Ellipse_23" data-name="Ellipse 23" cx="11.925" cy="10.463" rx="11.925" ry="10.463" transform="translate(81.017)" fill="none" stroke="#fff" stroke-linecap="round" stroke-linejoin="round" stroke-width="4"/>
    </g>
    <g id="Group_1770" data-name="Group 1770" transform="translate(-21.877 776.204)">
      <path id="Path_4614" data-name="Path 4614" d="M84.416,339.329h24.655c6.187,0,11.2,4.4,11.2,9.827V363.41" transform="translate(-61.073 -339.329)" fill="none" stroke="#fff" stroke-linecap="round" stroke-linejoin="round" stroke-width="4"/>
      <path id="Path_4615" data-name="Path 4615" d="M88.114,369.032c6.584,0,11.923-4.684,11.923-10.464S94.7,348.1,88.114,348.1s-11.926,4.684-11.926,10.464S81.527,369.032,88.114,369.032Z" transform="translate(-28.912 -324.023)" fill="none" stroke="#fff" stroke-linecap="round" stroke-linejoin="round" stroke-width="4"/>
    </g>
    <path id="Path_14860" data-name="Path 14860" d="M0,0H17.037" transform="translate(1902.207 192.455)" fill="none" stroke="#fff" stroke-linecap="round" stroke-width="4"/>
    <path id="Path_14862" data-name="Path 14862" d="M0,0H26.629" transform="translate(1892.341 405.808)" fill="none" stroke="#fff" stroke-linecap="round" stroke-width="4"/>
    <path id="Path_14863" data-name="Path 14863" d="M0,0H35.913" transform="translate(1883.229 642.422)" fill="none" stroke="#fff" stroke-linecap="round" stroke-width="4"/>
    <line id="Line_75" data-name="Line 75" x2="3.665" transform="translate(1916.835 424.919)" fill="none" stroke="#fff" stroke-linecap="round" stroke-linejoin="round" stroke-width="4"/>
    <g id="Group_1771" data-name="Group 1771" transform="translate(1865.236 538.253)">
      <path id="Path_4616" data-name="Path 4616" d="M692.579,261.565v19.66c0,5.428-5.014,9.83-11.2,9.83H664.508" transform="translate(-640.659 -251.735)" fill="none" stroke="#fff" stroke-linecap="round" stroke-linejoin="round" stroke-width="4"/>
      <path id="Path_4617" data-name="Path 4617" d="M656.883,272.714c0-5.779,5.339-10.464,11.923-10.464s11.926,4.684,11.926,10.464-5.339,10.461-11.926,10.461S656.883,278.491,656.883,272.714Z" transform="translate(-656.883 -233.394)" fill="none" stroke="#fff" stroke-linecap="round" stroke-linejoin="round" stroke-width="4"/>
    </g>
    <g id="Group_1772" data-name="Group 1772" transform="translate(1865.545 34.596)">
      <path id="Path_4618" data-name="Path 4618" d="M695.742,75.957V95.62c0,5.428-5.014,9.827-11.2,9.827H667.671" transform="translate(-643.822 -66.13)" fill="none" stroke="#fff" stroke-linecap="round" stroke-linejoin="round" stroke-width="4"/>
      <path id="Path_4619" data-name="Path 4619" d="M660.046,87.108c0-5.779,5.339-10.464,11.923-10.464s11.926,4.684,11.926,10.464-5.339,10.464-11.926,10.464S660.046,92.887,660.046,87.108Z" transform="translate(-660.046 -47.791)" fill="none" stroke="#fff" stroke-linecap="round" stroke-linejoin="round" stroke-width="4"/>
    </g>
    <g id="Group_1773" data-name="Group 1773" transform="translate(1791.265 313.784)">
      <path id="Path_14861" data-name="Path 14861" d="M0,0H102.15" transform="translate(25.282 10.463)" fill="none" stroke="#fff" stroke-linecap="round" stroke-width="4"/>
      <path id="Path_4620" data-name="Path 4620" d="M640.773,179.518c0-5.779,5.339-10.464,11.926-10.464s11.923,4.684,11.923,10.464-5.339,10.464-11.923,10.464S640.773,185.295,640.773,179.518Z" transform="translate(-640.773 -169.054)" fill="none" stroke="#fff" stroke-linecap="round" stroke-linejoin="round" stroke-width="4"/>
    </g>
    <g id="Group_1774" data-name="Group 1774" transform="translate(1817.841 137.306)">
      <path id="Path_4621" data-name="Path 4621" d="M742.286,103.557h-78c-6.187,0-11.2,4.4-11.2,9.827v15.05" transform="translate(-641.157 -103.557)" fill="none" stroke="#fff" stroke-linecap="round" stroke-linejoin="round" stroke-width="4"/>
      <path id="Path_4622" data-name="Path 4622" d="M649.27,123.086c0-5.779,5.339-10.464,11.926-10.464s11.926,4.684,11.926,10.464S667.783,133.55,661.2,133.55,649.27,128.865,649.27,123.086Z" transform="translate(-649.27 -87.745)" fill="none" stroke="#fff" stroke-linecap="round" stroke-linejoin="round" stroke-width="4"/>
    </g>
    <g id="Group_1775" data-name="Group 1775" transform="translate(1736.858 -9.894)">
      <path id="Path_4623" data-name="Path 4623" d="M659.36,49.918V80.086c0,5.428-5.017,9.83-11.2,9.83H631" transform="translate(-607.152 -49.918)" fill="none" stroke="#fff" stroke-linecap="round" stroke-linejoin="round" stroke-width="4"/>
      <path id="Path_4624" data-name="Path 4624" d="M635.3,81.6c6.587,0,11.926-4.684,11.926-10.461S641.891,60.68,635.3,60.68s-11.926,4.684-11.926,10.464S628.717,81.6,635.3,81.6Z" transform="translate(-623.378 -31.146)" fill="none" stroke="#fff" stroke-linecap="round" stroke-linejoin="round" stroke-width="4"/>
    </g>
    <g id="Group_1776" data-name="Group 1776" transform="translate(1726.327 211.321)">
      <path id="Path_4625" data-name="Path 4625" d="M796.428,173.278H666.286c-6.187,0-11.2-4.4-11.2-9.827V145c0-5.425-5.014-9.827-11.2-9.827H627.637" transform="translate(-603.785 -124.713)" fill="none" stroke="#fff" stroke-linecap="round" stroke-linejoin="round" stroke-width="4"/>
      <path id="Path_4626" data-name="Path 4626" d="M620.011,141.828c0-5.779,5.339-10.464,11.926-10.464s11.926,4.684,11.926,10.464-5.339,10.464-11.926,10.464S620.011,147.607,620.011,141.828Z" transform="translate(-620.011 -131.364)" fill="none" stroke="#fff" stroke-linecap="round" stroke-linejoin="round" stroke-width="4"/>
    </g>
    <g id="Group_1777" data-name="Group 1777" transform="translate(1879.958 696.766)">
      <path id="Path_4627" data-name="Path 4627" d="M699.926,310.083h-15.78c-6.186,0-11.2,4.4-11.2,9.83v14.254" transform="translate(-661.019 -310.083)" fill="none" stroke="#fff" stroke-linecap="round" stroke-linejoin="round" stroke-width="4"/>
      <path id="Path_4628" data-name="Path 4628" d="M681.053,339.784c-6.584,0-11.923-4.684-11.923-10.461s5.339-10.464,11.923-10.464,11.926,4.684,11.926,10.464S687.64,339.784,681.053,339.784Z" transform="translate(-669.13 -294.775)" fill="none" stroke="#fff" stroke-linecap="round" stroke-linejoin="round" stroke-width="4"/>
    </g>
    <line id="Line_77" data-name="Line 77" y1="59.833" transform="translate(211.801 -9.893)" fill="none" stroke="#fff" stroke-linecap="round" stroke-linejoin="round" stroke-width="4"/>
    <line id="Line_78" data-name="Line 78" y1="59.833" transform="translate(31.883 -9.893)" fill="none" stroke="#fff" stroke-linecap="round" stroke-linejoin="round" stroke-width="4"/>
    <line id="Line_79" data-name="Line 79" y1="34.244" transform="translate(56.775 -9.893)" fill="none" stroke="#fff" stroke-linecap="round" stroke-linejoin="round" stroke-width="4"/>
    <line id="Line_80" data-name="Line 80" y1="68.488" transform="translate(459.641 -9.893)" fill="none" stroke="#fff" stroke-linecap="round" stroke-linejoin="round" stroke-width="4"/>
    <line id="Line_81" data-name="Line 81" y1="68.488" transform="translate(756.72 -9.893)" fill="none" stroke="#fff" stroke-linecap="round" stroke-linejoin="round" stroke-width="4"/>
    <line id="Line_82" data-name="Line 82" y1="59.534" transform="translate(781.006 -9.893)" fill="none" stroke="#fff" stroke-linecap="round" stroke-linejoin="round" stroke-width="4"/>
    <line id="Line_83" data-name="Line 83" y1="46.997" transform="translate(481.638 -9.893)" fill="none" stroke="#fff" stroke-linecap="round" stroke-linejoin="round" stroke-width="4"/>
    <g id="Group_1778" data-name="Group 1778" transform="translate(612.407 -9.894)">
      <path id="Path_4629" data-name="Path 4629" d="M263.867,49.918V90.55c0,5.428,5.014,9.827,11.2,9.827h22.41c6.187,0,11.2,4.4,11.2,9.827v14.8" transform="translate(-263.867 -49.918)" fill="none" stroke="#fff" stroke-linecap="round" stroke-linejoin="round" stroke-width="4"/>
      <path id="Path_4630" data-name="Path 4630" d="M286.307,98.208c-6.587,0-11.926-4.684-11.926-10.464S279.72,77.28,286.307,77.28s11.926,4.684,11.926,10.464S292.894,98.208,286.307,98.208Z" transform="translate(-241.496 -2.192)" fill="none" stroke="#fff" stroke-linecap="round" stroke-linejoin="round" stroke-width="4"/>
    </g>
    <g id="Group_1779" data-name="Group 1779" transform="translate(353.803 -9.893)">
      <line id="Line_84" data-name="Line 84" y1="134.991" transform="translate(11.924)" fill="none" stroke="#fff" stroke-linecap="round" stroke-linejoin="round" stroke-width="4"/>
      <path id="Path_4631" data-name="Path 4631" d="M193.109,120.494c-6.584,0-11.923-4.684-11.923-10.464s5.339-10.464,11.923-10.464,11.926,4.684,11.926,10.464S199.7,120.494,193.109,120.494Z" transform="translate(-181.186 36.68)" fill="none" stroke="#fff" stroke-linecap="round" stroke-linejoin="round" stroke-width="4"/>
    </g>
    <g id="Group_1780" data-name="Group 1780" transform="translate(259.768 -9.894)">
      <path id="Path_4632" data-name="Path 4632" d="M198.359,49.918V209.23c0,5.428-5.017,9.827-11.2,9.827H166.134c-6.187,0-11.2,4.4-11.2,9.83v14.254" transform="translate(-143.008 -49.918)" fill="none" stroke="#fff" stroke-linecap="round" stroke-linejoin="round" stroke-width="4"/>
      <path id="Path_4633" data-name="Path 4633" d="M163.047,141.256c-6.587,0-11.926-4.684-11.926-10.464s5.339-10.464,11.926-10.464,11.926,4.684,11.926,10.464S169.634,141.256,163.047,141.256Z" transform="translate(-151.121 72.895)" fill="none" stroke="#fff" stroke-linecap="round" stroke-linejoin="round" stroke-width="4"/>
    </g>
    <path id="Path_14864" data-name="Path 14864" d="M0,0H55.5" transform="translate(1862.536 973.419)" fill="none" stroke="#fff" stroke-linecap="round" stroke-width="4"/>
    <path id="Path_14865" data-name="Path 14865" d="M0,0H31.366" transform="translate(1887.03 992.719)" fill="none" stroke="#fff" stroke-linecap="round" stroke-width="4"/>
    <g id="Group_1781" data-name="Group 1781" transform="translate(1726.327 865.061)">
      <path id="Path_4634" data-name="Path 4634" d="M796.565,414.268H666.286c-6.187,0-11.2-4.4-11.2-9.827V385.994c0-5.428-5.014-9.827-11.2-9.827H627.637" transform="translate(-603.785 -365.703)" fill="none" stroke="#fff" stroke-linecap="round" stroke-linejoin="round" stroke-width="4"/>
      <path id="Path_4635" data-name="Path 4635" d="M620.011,382.818c0-5.779,5.339-10.464,11.926-10.464s11.926,4.684,11.926,10.464-5.339,10.464-11.926,10.464S620.011,388.6,620.011,382.818Z" transform="translate(-620.011 -372.354)" fill="none" stroke="#fff" stroke-linecap="round" stroke-linejoin="round" stroke-width="4"/>
    </g>
    <line id="Line_87" data-name="Line 87" y1="34.928" transform="translate(1029.059 -9.893)" fill="none" stroke="#fff" stroke-linecap="round" stroke-linejoin="round" stroke-width="4"/>
    <line id="Line_88" data-name="Line 88" y1="68.488" transform="translate(1196.726 -9.893)" fill="none" stroke="#fff" stroke-linecap="round" stroke-linejoin="round" stroke-width="4"/>
    <line id="Line_89" data-name="Line 89" y1="59.534" transform="translate(1549.239 -9.893)" fill="none" stroke="#fff" stroke-linecap="round" stroke-linejoin="round" stroke-width="4"/>
    <line id="Line_90" data-name="Line 90" y1="46.997" transform="translate(1218.723 -9.893)" fill="none" stroke="#fff" stroke-linecap="round" stroke-linejoin="round" stroke-width="4"/>
    <line id="Line_91" data-name="Line 91" y1="46.997" transform="translate(955.411 -9.893)" fill="none" stroke="#fff" stroke-linecap="round" stroke-linejoin="round" stroke-width="4"/>
    <g id="Group_1782" data-name="Group 1782" transform="translate(1419.635 -9.894)">
      <path id="Path_4636" data-name="Path 4636" d="M521.955,49.918V90.55c0,5.428,5.017,9.827,11.2,9.827h22.41c6.187,0,11.2,4.4,11.2,9.827v95.338" transform="translate(-521.955 -49.918)" fill="none" stroke="#fff" stroke-linecap="round" stroke-linejoin="round" stroke-width="4"/>
      <path id="Path_4637" data-name="Path 4637" d="M544.393,127.552c-6.584,0-11.923-4.684-11.923-10.464s5.339-10.461,11.923-10.461,11.926,4.684,11.926,10.461S550.98,127.552,544.393,127.552Z" transform="translate(-499.582 48.997)" fill="none" stroke="#fff" stroke-linecap="round" stroke-linejoin="round" stroke-width="4"/>
    </g>
    <g id="Group_1783" data-name="Group 1783" transform="translate(813.494 -9.894)">
      <path id="Path_4638" data-name="Path 4638" d="M328.159,49.918v24c0,5.428,5.014,9.827,11.2,9.827h22.41c6.187,0,11.2,4.4,11.2,9.83v14.8" transform="translate(-328.159 -49.918)" fill="none" stroke="#fff" stroke-linecap="round" stroke-linejoin="round" stroke-width="4"/>
      <path id="Path_4639" data-name="Path 4639" d="M350.6,92.146c-6.584,0-11.923-4.684-11.923-10.464s5.339-10.464,11.923-10.464,11.926,4.687,11.926,10.464S357.184,92.146,350.6,92.146Z" transform="translate(-305.786 -12.765)" fill="none" stroke="#fff" stroke-linecap="round" stroke-linejoin="round" stroke-width="4"/>
    </g>
    <g id="Group_1784" data-name="Group 1784" transform="translate(1297.481 -9.893)">
      <line id="Line_92" data-name="Line 92" y1="114.989" transform="translate(11.926)" fill="none" stroke="#fff" stroke-linecap="round" stroke-linejoin="round" stroke-width="4"/>
      <path id="Path_4640" data-name="Path 4640" d="M494.826,113.2c-6.587,0-11.926-4.684-11.926-10.464s5.339-10.461,11.926-10.461,11.926,4.684,11.926,10.461S501.413,113.2,494.826,113.2Z" transform="translate(-482.9 23.968)" fill="none" stroke="#fff" stroke-linecap="round" stroke-linejoin="round" stroke-width="4"/>
    </g>
    <g id="Group_1785" data-name="Group 1785" transform="translate(907.795 -9.894)">
      <path id="Path_4641" data-name="Path 4641" d="M358.309,49.918v135.33c0,5.428,5.014,9.83,11.2,9.83h17.152" transform="translate(-358.309 -49.918)" fill="none" stroke="#fff" stroke-linecap="round" stroke-linejoin="round" stroke-width="4"/>
      <path id="Path_4642" data-name="Path 4642" d="M379.3,119.929c-6.587,0-11.926-4.687-11.926-10.464S372.713,99,379.3,99s11.926,4.684,11.926,10.464S385.887,119.929,379.3,119.929Z" transform="translate(-339.021 35.695)" fill="none" stroke="#fff" stroke-linecap="round" stroke-linejoin="round" stroke-width="4"/>
    </g>
    <g id="Group_1786" data-name="Group 1786" transform="translate(1077.027 -9.894)">
      <path id="Path_4643" data-name="Path 4643" d="M459.654,49.918V64.586c0,5.428-5.017,9.827-11.2,9.827H427.429c-6.187,0-11.2,4.4-11.2,9.827V98.5" transform="translate(-404.303 -49.918)" fill="none" stroke="#fff" stroke-linecap="round" stroke-linejoin="round" stroke-width="4"/>
      <path id="Path_4644" data-name="Path 4644" d="M424.342,88.545c-6.587,0-11.926-4.684-11.926-10.464s5.339-10.461,11.926-10.461,11.926,4.684,11.926,10.461S430.929,88.545,424.342,88.545Z" transform="translate(-412.416 -19.041)" fill="none" stroke="#fff" stroke-linecap="round" stroke-linejoin="round" stroke-width="4"/>
    </g>
    <g id="Group_1787" data-name="Group 1787" transform="translate(1612.162 -9.894)">
      <path id="Path_4645" data-name="Path 4645" d="M583.51,49.918v34.41c0,5.428,5.014,9.83,11.2,9.83h16.245" transform="translate(-583.51 -49.918)" fill="none" stroke="#fff" stroke-linecap="round" stroke-linejoin="round" stroke-width="4"/>
      <path id="Path_4646" data-name="Path 4646" d="M616.137,72.69c0,5.777-5.339,10.461-11.926,10.461s-11.926-4.684-11.926-10.461,5.339-10.464,11.926-10.464S616.137,66.91,616.137,72.69Z" transform="translate(-564.839 -28.45)" fill="none" stroke="#fff" stroke-linecap="round" stroke-linejoin="round" stroke-width="4"/>
    </g>
  </g>
</svg>
