<svg id="linkedin" xmlns="http://www.w3.org/2000/svg" width="23.996" height="24" viewBox="0 0 23.996 24">
  <path id="Path_11189" data-name="Path 11189" d="M17.9,23.062H1.406a.469.469,0,0,1-.469-.469V1.406A.469.469,0,0,1,1.406.937h.937a.469.469,0,0,0,0-.937H1.406A1.408,1.408,0,0,0,0,1.406V22.594A1.408,1.408,0,0,0,1.406,24H17.9a.469.469,0,0,0,0-.937Zm0,0" fill="#fff"/>
  <path id="Path_11190" data-name="Path 11190" d="M136.966,0h-16.5a.469.469,0,0,0,0,.937h16.5a.469.469,0,0,1,.469.469V22.594a.469.469,0,0,1-.469.469h-.937a.469.469,0,0,0,0,.937h.937a1.408,1.408,0,0,0,1.406-1.406V1.406A1.408,1.408,0,0,0,136.966,0Zm0,0" transform="translate(-114.376 0)" fill="#fff"/>
  <path id="Path_11191" data-name="Path 11191" d="M72.972,76.2A2.473,2.473,0,1,0,70.5,73.723,2.475,2.475,0,0,0,72.972,76.2Zm0-4.008a1.535,1.535,0,1,1-1.535,1.535A1.537,1.537,0,0,1,72.972,72.187Zm0,0" transform="translate(-67.196 -67.91)" fill="#fff"/>
  <path id="Path_11192" data-name="Path 11192" d="M201.042,181.75a4.562,4.562,0,0,0-2.835,1v-.294a.469.469,0,0,0-.469-.469h-3.269a.469.469,0,0,0-.469.469v10.969a.469.469,0,0,0,.469.469h3.445a.469.469,0,0,0,.469-.469v-6.331a1.418,1.418,0,1,1,2.835,0v6.331a.469.469,0,0,0,.469.469h3.445a.469.469,0,0,0,.469-.469v-7.113A4.563,4.563,0,0,0,201.042,181.75Zm3.62,11.2h-2.507v-5.862a2.355,2.355,0,1,0-4.71,0v5.862h-2.507V182.922h2.332v.985a.469.469,0,0,0,.847.276,3.617,3.617,0,0,1,6.546,2.125Zm0,0" transform="translate(-184.908 -173.23)" fill="#fff"/>
  <path id="Path_11193" data-name="Path 11193" d="M76.969,186.75a.469.469,0,0,0-.469.469v10.969a.469.469,0,0,0,.469.469h3.445a.469.469,0,0,0,.469-.469V187.219a.469.469,0,0,0-.469-.469Zm2.976,10.969H77.437V187.687h2.507Zm0,0" transform="translate(-72.915 -177.996)" fill="#fff"/>
  <path id="Path_11194" data-name="Path 11194" d="M80.469.937a.469.469,0,0,0,0-.937h0a.469.469,0,0,0,0,.937Zm0,0" transform="translate(-76.251)" fill="#fff"/>
  <path id="Path_11195" data-name="Path 11195" d="M412.469,492h0a.469.469,0,1,0,.469.469A.469.469,0,0,0,412.469,492Zm0,0" transform="translate(-392.691 -468.938)" fill="#fff"/>
</svg>
