<svg id="schedule-icon" xmlns="http://www.w3.org/2000/svg" width="34.626" height="35.667" viewBox="0 0 34.626 35.667">
  <g id="XMLID_971_">
    <g id="XMLID_977_">
      <path id="XMLID_1030_" d="M30.932,6.822H32A.7.7,0,0,0,32,5.43H29.433a.686.686,0,0,0-.676.7V8.772a.676.676,0,1,0,1.352,0V8.006a16.716,16.716,0,0,1,3.165,9.828A16.225,16.225,0,0,1,17.313,34.275,16.225,16.225,0,0,1,1.352,17.833,16.225,16.225,0,0,1,17.313,1.392a15.735,15.735,0,0,1,1.947.121.681.681,0,0,0,.752-.607.692.692,0,0,0-.589-.775A16.969,16.969,0,0,0,5.071,5.223,17.99,17.99,0,0,0,0,17.833a17.99,17.99,0,0,0,5.071,12.61,16.958,16.958,0,0,0,24.484,0A18.233,18.233,0,0,0,30.932,6.822Z" transform="translate(0)" fill="#fff"/>
      <path id="XMLID_1029_" d="M68.238,71.155a.713.713,0,0,0-.975.216,13.153,13.153,0,0,0,1.868,16.507,13.658,13.658,0,0,0,19.089,0,13.172,13.172,0,0,0,0-18.8,13.657,13.657,0,0,0-16.733-1.855.69.69,0,0,0-.221.96.713.713,0,0,0,.975.218,12.152,12.152,0,0,1,14.98,1.662,11.792,11.792,0,0,1,0,16.835,12.228,12.228,0,0,1-17.09,0,11.847,11.847,0,0,1-1.674-14.777A.69.69,0,0,0,68.238,71.155Z" transform="translate(-61.362 -60.642)" fill="#fff"/>
      <path id="XMLID_1028_" d="M376.755,247.722h.722a.707.707,0,0,0,0-1.392h-.722a.707.707,0,0,0,0,1.392Z" transform="translate(-350.517 -229.181)" fill="#fff"/>
      <path id="XMLID_1004_" d="M103.835,246.7a.648.648,0,0,0,.586.7h.722a.707.707,0,0,0,0-1.392h-.722A.648.648,0,0,0,103.835,246.7Z" transform="translate(-96.754 -228.88)" fill="#fff"/>
      <path id="XMLID_1001_" d="M247.5,105.39v-.859a.594.594,0,1,0-1.171,0v.859a.594.594,0,1,0,1.171,0Z" transform="translate(-229.591 -96.606)" fill="#fff"/>
      <path id="XMLID_1415_" d="M246.006,376.865v.858a.594.594,0,1,0,1.171,0v-.858a.594.594,0,1,0-1.171,0Z" transform="translate(-229.289 -349.982)" fill="#fff"/>
      <path id="XMLID_996_" d="M189.972,157.086a.523.523,0,0,0-.828,0,.792.792,0,0,0,0,.985l1.984,2.359a2.748,2.748,0,0,0-.239,1.13,2.048,2.048,0,1,0,4.034,0,2.749,2.749,0,0,0-.239-1.13l4-4.761a.792.792,0,0,0,0-.985.523.523,0,0,0-.828,0l-4,4.761a1.735,1.735,0,0,0-1.9,0Zm3.781,4.474a.859.859,0,1,1-.846-1.006A.938.938,0,0,1,193.753,161.56Z" transform="translate(-175.362 -143.727)" fill="#fff"/>
      <path id="XMLID_980_" d="M119.178,119.366a.79.79,0,0,0,0-.984.522.522,0,0,0-.828,0,.792.792,0,0,0,0,.984.522.522,0,0,0,.828,0Z" transform="translate(-110.148 -109.951)" fill="#fff"/>
      <path id="XMLID_979_" d="M316.024,11.27a.545.545,0,0,0,.415-.2.792.792,0,0,0,0-.984.523.523,0,0,0-.829,0,.792.792,0,0,0,0,.984A.545.545,0,0,0,316.024,11.27Z" transform="translate(-294.003 -9.19)" fill="#fff"/>
    </g>
  </g>
</svg>
