<svg xmlns="http://www.w3.org/2000/svg" width="24.022" height="23.41" viewBox="0 0 24.022 23.41">
  <g id="twitter" transform="translate(0 0)">
    <g id="Group_11290" data-name="Group 11290" transform="translate(0 0)">
      <g id="Group_11289" data-name="Group 11289">
        <g id="Group_11288" data-name="Group 11288">
          <path id="Path_11196" data-name="Path 11196" d="M137.162,145.287l.022.012a.406.406,0,0,0,.2.051.472.472,0,0,0,.427-.326.606.606,0,0,0-.231-.74l-.019-.011a.441.441,0,0,0-.623.273A.606.606,0,0,0,137.162,145.287Z" transform="translate(-130.466 -138.753)" fill="#fff"/>
          <path id="Path_11197" data-name="Path 11197" d="M23.912,49.013a.421.421,0,0,0-.549-.151,8.268,8.268,0,0,1-.871.4,6.7,6.7,0,0,0,.873-1.943.624.624,0,0,0-.153-.608.41.41,0,0,0-.532-.044A8.2,8.2,0,0,1,20.057,47.9a4.818,4.818,0,0,0-3.606-1.725c-2.869,0-5.2,2.775-5.2,6.186,0,.224.01.449.031.675a11.179,11.179,0,0,1-2.178-.47.466.466,0,0,0-.576.392.576.576,0,0,0,.33.685,11.962,11.962,0,0,0,2.959.559A.439.439,0,0,0,12.2,54a.638.638,0,0,0,.1-.481,6.286,6.286,0,0,1-.109-1.16c0-2.8,1.913-5.07,4.264-5.07a3.99,3.99,0,0,1,3.109,1.6.426.426,0,0,0,.432.166,8.734,8.734,0,0,0,1.876-.668,4.673,4.673,0,0,1-1.276,1.394.612.612,0,0,0-.2.659.472.472,0,0,0,.5.374,8.454,8.454,0,0,0,1.285-.285,9.749,9.749,0,0,1-1.263,1.3.6.6,0,0,0-.2.466l.014.722c0,7.594-4.865,15.448-13,15.448A11.254,11.254,0,0,1,2.375,67.1a9.066,9.066,0,0,0,5.392-2.487A.624.624,0,0,0,7.924,64a.486.486,0,0,0-.435-.382,4.27,4.27,0,0,1-3.693-2.7l.155,0a4.541,4.541,0,0,0,1.366-.209.553.553,0,0,0,.349-.556.54.54,0,0,0-.376-.53,4.8,4.8,0,0,1-3.362-4.152,4.324,4.324,0,0,0,1.6.363.484.484,0,0,0,.459-.389.616.616,0,0,0-.187-.633A5.364,5.364,0,0,1,1.9,50.6a5.938,5.938,0,0,1,.283-1.824,15.032,15.032,0,0,0,2.575,2.648.425.425,0,0,0,.651-.152.626.626,0,0,0-.128-.774,14.224,14.224,0,0,1-2.845-3.083.44.44,0,0,0-.4-.2.468.468,0,0,0-.369.274A7.072,7.072,0,0,0,.965,50.6,6.973,6.973,0,0,0,2,54.306a4.283,4.283,0,0,1-.375-.22.406.406,0,0,0-.465.008.585.585,0,0,0-.231.48v.069a6.63,6.63,0,0,0,2.22,5.073l-.008,0a.429.429,0,0,0-.439.179.639.639,0,0,0-.095.54A5.728,5.728,0,0,0,6.223,64.52a7.943,7.943,0,0,1-4.627,1.5,8.119,8.119,0,0,1-1.075-.072.472.472,0,0,0-.494.368.615.615,0,0,0,.189.656,12.307,12.307,0,0,0,13.49,1.108,13.683,13.683,0,0,0,4.377-3.9,19.091,19.091,0,0,0,3.587-11.163s0-.009,0-.013l-.009-.439a11.278,11.278,0,0,0,2.283-2.883A.643.643,0,0,0,23.912,49.013Z" transform="translate(0 -46.177)" fill="#fff"/>
        </g>
      </g>
    </g>
    <g id="Group_11292" data-name="Group 11292" transform="translate(16.963 13.468)">
      <g id="Group_11291" data-name="Group 11291">
        <path id="Path_11198" data-name="Path 11198" d="M362.246,287.676a.43.43,0,0,0-.644.191v0a.619.619,0,0,0,.161.764.411.411,0,0,0,.24.079.46.46,0,0,0,.4-.271A.62.62,0,0,0,362.246,287.676Z" transform="translate(-361.534 -287.597)" fill="#fff"/>
      </g>
    </g>
    <g id="Group_11294" data-name="Group 11294" transform="translate(12.976 15.099)">
      <g id="Group_11293" data-name="Group 11293">
        <path id="Path_11199" data-name="Path 11199" d="M280.338,316.96a.42.42,0,0,0-.66.076,11.171,11.171,0,0,1-2.886,2.905.618.618,0,0,0-.175.761.461.461,0,0,0,.408.281.411.411,0,0,0,.232-.074,12.17,12.17,0,0,0,3.145-3.164A.632.632,0,0,0,280.338,316.96Z" transform="translate(-276.555 -316.832)" fill="#fff"/>
      </g>
    </g>
  </g>
</svg>
