<svg id="check-white" xmlns="http://www.w3.org/2000/svg" width="25" height="25" viewBox="0 0 25 25">
  <path id="Path_4528" data-name="Path 4528" d="M104.593,66.1h0a.9.9,0,0,1-.691-.314L99.16,60.631a.934.934,0,0,1,1.382-1.256l4.083,4.428,11.307-11.275a.911.911,0,0,1,1.319,0,.938.938,0,0,1,0,1.319l-12,11.966A.855.855,0,0,1,104.593,66.1Z" transform="translate(-92.973 -49.105)" fill="#e9eaed"/>
  <path id="Path_4529" data-name="Path 4529" d="M12.5,25a12.5,12.5,0,1,1,0-25,.925.925,0,0,1,.942.942.925.925,0,0,1-.942.942A10.616,10.616,0,1,0,23.116,12.5.942.942,0,0,1,25,12.5,12.533,12.533,0,0,1,12.5,25Z" fill="#e9eaed"/>
</svg>
