<svg xmlns="http://www.w3.org/2000/svg" width="815.552" height="97.159" viewBox="0 0 815.552 97.159">
  <g id="icigai-logo" transform="translate(-170.31 -901.157)" opacity="0.1">
    <g id="Group_1515" data-name="Group 1515" transform="translate(170.31 904.474)">
      <g id="Group_1514" data-name="Group 1514" transform="translate(0 0)">
        <path id="Path_4378" data-name="Path 4378" d="M171.652,907.9h16.423a1.237,1.237,0,0,1,1.15.7v49.207q0,.766.128,2.045a1.256,1.256,0,0,0-.128.575l.128,1.022q-.129.766-.128.895l.128.7-.128,1.023c0,.085.042.383.128.895-.086.511-.128.81-.128.894s.042.384.128.895q-.129.768-.128.832a9.216,9.216,0,0,1,.128,1.342H170.31V909.055Q170.31,907.9,171.652,907.9Zm-1.342,62.052h19.044v.895H170.31Zm0,1.79h19.044v.894H170.31Zm0,1.726h19.044v.9H170.31Zm0,1.789h19.044v.895H170.31Zm0,1.917h19.044v.831H170.31Zm0,1.726h19.044v.9H170.31Zm0,1.79h19.044v.895H170.31Zm0,1.917h19.044v.831H170.31Zm0,1.726h19.044v.894H170.31Zm0,1.79h19.044v.894H170.31Zm0,1.724h19.044v.9H170.31Zm0,1.918h19.044v.894H170.31Zm0,1.79h19.044v.83H170.31Zm0,1.724h19.044v.895H170.31Zm0,1.789h19.044v.9H170.31Zm0,1.917h19.044v.832H170.31Zm0,1.726h19.044v.895H170.31Z" transform="translate(-170.31 -907.905)" fill="#fff"/>
        <path id="Path_4379" data-name="Path 4379" d="M786.827,907.9H803.25a1.238,1.238,0,0,1,1.15.7v49.207q0,.766.128,2.045a1.247,1.247,0,0,0-.128.575l.128,1.022c-.087.511-.128.809-.128.895l.128.7-.128,1.023c0,.085.042.383.128.895-.087.511-.128.81-.128.894s.042.384.128.895c-.087.512-.128.789-.128.832a9.26,9.26,0,0,1,.128,1.342H785.485V909.055Q785.485,907.9,786.827,907.9Zm-1.342,62.052h19.044v.895H785.485Zm0,1.79h19.044v.894H785.485Zm0,1.726h19.044v.9H785.485Zm0,1.789h19.044v.895H785.485Zm0,1.917h19.044v.831H785.485Zm0,1.726h19.044v.9H785.485Zm0,1.79h19.044v.895H785.485Zm0,1.917h19.044v.831H785.485Zm0,1.726h19.044v.894H785.485Zm0,1.79h19.044v.894H785.485Zm0,1.724h19.044v.9H785.485Zm0,1.918h19.044v.894H785.485Zm0,1.79h19.044v.83H785.485Zm0,1.724h19.044v.895H785.485Zm0,1.789h19.044v.9H785.485Zm0,1.917h19.044v.832H785.485Zm0,1.726h19.044v.895H785.485Z" transform="translate(-483.139 -907.905)" fill="#fff"/>
      </g>
    </g>
    <g id="Group_1516" data-name="Group 1516" transform="translate(767.982 904.473)">
      <path id="Path_4380" data-name="Path 4380" d="M1386.376,1000.727H1408.5l25.972-50.5,25.009,50.5h22.6L1434.23,907.9Z" transform="translate(-1386.376 -907.905)" fill="#fff"/>
      <line id="Line_6" data-name="Line 6" x2="38.877" transform="translate(29.578 45.53)" fill="#f1f2f2" stroke="rgba(0,0,0,0)" stroke-width="1"/>
      <line id="Line_7" data-name="Line 7" x2="38.877" transform="translate(29.578 48.415)" fill="#f1f2f2" stroke="rgba(0,0,0,0)" stroke-width="1"/>
      <line id="Line_8" data-name="Line 8" x2="38.877" transform="translate(29.578 51.301)" fill="#f1f2f2" stroke="rgba(0,0,0,0)" stroke-width="1"/>
      <line id="Line_9" data-name="Line 9" x2="38.877" transform="translate(29.578 54.187)" fill="#f1f2f2" stroke="rgba(0,0,0,0)" stroke-width="1"/>
      <line id="Line_10" data-name="Line 10" x2="38.877" transform="translate(29.578 57.072)" fill="#f1f2f2" stroke="rgba(0,0,0,0)" stroke-width="1"/>
      <line id="Line_11" data-name="Line 11" x2="38.877" transform="translate(29.578 59.958)" fill="#f1f2f2" stroke="rgba(0,0,0,0)" stroke-width="1"/>
      <line id="Line_12" data-name="Line 12" x2="38.877" transform="translate(29.578 62.844)" fill="#f1f2f2" stroke="rgba(0,0,0,0)" stroke-width="1"/>
      <line id="Line_13" data-name="Line 13" x2="38.877" transform="translate(29.578 65.73)" fill="#f1f2f2" stroke="rgba(0,0,0,0)" stroke-width="1"/>
      <line id="Line_14" data-name="Line 14" x2="38.877" transform="translate(29.578 68.615)" fill="#f1f2f2" stroke="rgba(0,0,0,0)" stroke-width="1"/>
      <line id="Line_15" data-name="Line 15" x2="38.877" transform="translate(29.578 71.501)" fill="#f1f2f2" stroke="rgba(0,0,0,0)" stroke-width="1"/>
      <line id="Line_16" data-name="Line 16" x2="38.877" transform="translate(29.578 74.387)" fill="#f1f2f2" stroke="rgba(0,0,0,0)" stroke-width="1"/>
      <line id="Line_17" data-name="Line 17" x2="38.877" transform="translate(29.578 77.272)" fill="#f1f2f2" stroke="rgba(0,0,0,0)" stroke-width="1"/>
    </g>
    <g id="Group_1518" data-name="Group 1518" transform="translate(287.297 901.157)">
      <g id="Group_1517" data-name="Group 1517" transform="translate(0 0)">
        <path id="Path_4381" data-name="Path 4381" d="M491.922,916.05,478.6,928.829a30.032,30.032,0,0,0-19.9-9.176c-.59-.036-1.18-.048-1.783-.048-.431,0-.849.012-1.267.024-.6.024-1.193.074-1.783.135-.431.037-.849.086-1.266.148-.6.085-1.193.184-1.784.32a11.119,11.119,0,0,0-1.279.3c-.6.135-1.193.307-1.771.492-.431.135-.861.282-1.279.442-.6.222-1.206.468-1.784.726-.43.185-.848.394-1.266.615-.6.283-1.205.6-1.783.947-.43.259-.849.517-1.267.8-.1.06-.209.122-.308.2-.5.345-1,.689-1.475,1.07-.443.332-.861.677-1.279,1.033-.615.529-1.205,1.082-1.783,1.66-.431.431-.849.885-1.267,1.353a26.484,26.484,0,0,0-1.783,2.251c-.443.615-.874,1.242-1.267,1.894a28.333,28.333,0,0,0-1.784,3.37c-.1.208-.2.418-.282.639a30.121,30.121,0,0,0,2.066,27.476c.221.369.455.738.7,1.094.184.271.369.542.566.812.566.762,1.156,1.5,1.783,2.213.406.468.824.923,1.267,1.352.566.579,1.168,1.132,1.783,1.661.418.369.849.713,1.279,1.045.578.443,1.181.873,1.783,1.279.418.271.837.529,1.267.775.578.344,1.181.676,1.783.972.418.208.836.418,1.266.59.16.086.332.147.492.221q.646.277,1.292.516c.418.147.848.3,1.279.431.578.185,1.168.356,1.771.5.418.112.849.209,1.279.3.591.123,1.181.22,1.784.307.418.062.836.111,1.266.147.59.074,1.181.112,1.783.136.418.012.849.024,1.267.024v18.448c-.418,0-.849,0-1.267-.024-.6,0-1.193-.038-1.783-.074-.431-.025-.849-.049-1.266-.1-.6-.036-1.193-.11-1.784-.184-.43-.049-.861-.111-1.279-.173-.591-.086-1.181-.2-1.771-.307-.431-.074-.848-.173-1.279-.27-.6-.123-1.193-.259-1.784-.418-.43-.11-.848-.221-1.266-.356-.6-.16-1.193-.344-1.783-.553-.43-.135-.849-.271-1.267-.431-.6-.209-1.193-.443-1.783-.689-.431-.172-.861-.344-1.279-.541-.6-.258-1.193-.541-1.783-.824-.418-.209-.849-.418-1.267-.639-.6-.32-1.193-.653-1.783-1-.431-.247-.849-.5-1.267-.75-.492-.32-.984-.639-1.476-.971-.1-.074-.209-.136-.308-.222a48.578,48.578,0,1,1,62.477-73.743Z" transform="translate(-408.34 -901.157)" fill="#fff"/>
      </g>
      <rect id="Rectangle_381" data-name="Rectangle 381" width="1.781" height="85.302" transform="translate(48.584 11.857)" fill="#fff"/>
      <path id="Path_4382" data-name="Path 4382" d="M502.761,925.28v85.278c-.6,0-1.193-.037-1.783-.074v-85.2Z" transform="translate(-455.448 -913.424)" fill="#fff"/>
      <path id="Path_4383" data-name="Path 4383" d="M496.555,925.28v85.106c-.6-.036-1.193-.11-1.783-.185V925.28Z" transform="translate(-452.293 -913.424)" fill="#fff"/>
      <path id="Path_4384" data-name="Path 4384" d="M490.337,925.28v84.749c-.59-.086-1.18-.2-1.771-.307V925.28Z" transform="translate(-449.137 -913.424)" fill="#fff"/>
      <path id="Path_4385" data-name="Path 4385" d="M484.119,925.28v84.172c-.6-.123-1.193-.259-1.784-.418V925.28Z" transform="translate(-445.968 -913.424)" fill="#fff"/>
      <path id="Path_4386" data-name="Path 4386" d="M477.913,925.28v83.4c-.6-.16-1.193-.344-1.783-.553V925.28Z" transform="translate(-442.813 -913.424)" fill="#fff"/>
      <path id="Path_4387" data-name="Path 4387" d="M471.707,925.28v82.413c-.6-.209-1.193-.443-1.783-.689V925.28Z" transform="translate(-439.657 -913.424)" fill="#fff"/>
      <path id="Path_4388" data-name="Path 4388" d="M465.476,925.28v81.183c-.6-.259-1.193-.542-1.783-.824V925.28Z" transform="translate(-436.488 -913.424)" fill="#fff"/>
      <path id="Path_4389" data-name="Path 4389" d="M459.27,925.28V1005c-.6-.32-1.193-.652-1.783-1V925.28Z" transform="translate(-433.332 -913.424)" fill="#fff"/>
      <path id="Path_4390" data-name="Path 4390" d="M453.065,925.28v77.973c-.492-.32-.984-.639-1.476-.971-.1-.074-.209-.135-.307-.222V925.28Z" transform="translate(-430.176 -913.424)" fill="#fff"/>
    </g>
    <g id="Group_1520" data-name="Group 1520" transform="translate(592.399 905.619)">
      <path id="Path_4392" data-name="Path 4392" d="M1119.235,910.236v74.2h-1.1V910.305Z" transform="translate(-1074.387 -910.236)" fill="#fff"/>
      <path id="Path_4393" data-name="Path 4393" d="M1112.384,910.844v73.9h-1.113V910.981C1111.661,910.936,1112.028,910.89,1112.384,910.844Z" transform="translate(-1070.897 -910.545)" fill="#fff"/>
      <path id="Path_4394" data-name="Path 4394" d="M1105.544,911.824v73.417h-1.113V912.008C1104.809,911.939,1105.177,911.881,1105.544,911.824Z" transform="translate(-1067.418 -911.044)" fill="#fff"/>
      <path id="Path_4395" data-name="Path 4395" d="M1098.7,913.107v72.786h-1.113V913.36C1097.97,913.28,1098.337,913.188,1098.7,913.107Z" transform="translate(-1063.94 -911.696)" fill="#fff"/>
      <path id="Path_4396" data-name="Path 4396" d="M1091.865,914.789v71.959h-1.113V915.11C1091.131,915,1091.5,914.892,1091.865,914.789Z" transform="translate(-1060.462 -912.552)" fill="#fff"/>
      <path id="Path_4397" data-name="Path 4397" d="M1085.025,916.843v70.95h-1.114v-70.56C1084.279,917.1,1084.657,916.969,1085.025,916.843Z" transform="translate(-1056.984 -913.596)" fill="#fff"/>
      <path id="Path_4398" data-name="Path 4398" d="M1078.173,919.388v69.7h-1.1v-69.24C1077.439,919.675,1077.806,919.525,1078.173,919.388Z" transform="translate(-1053.506 -914.89)" fill="#fff"/>
      <path id="Path_4399" data-name="Path 4399" d="M1071.333,922.422V990.63h-1.1V922.973Z" transform="translate(-1050.028 -916.433)" fill="#fff"/>
      <path id="Path_4400" data-name="Path 4400" d="M1064.493,926.133v66.384h-1.1V926.81C1063.759,926.569,1064.126,926.34,1064.493,926.133Z" transform="translate(-1046.55 -918.32)" fill="#fff"/>
      <path id="Path_4401" data-name="Path 4401" d="M1057.654,930.615V994.8h-.516V973.674h-.585v-42.21C1056.908,931.178,1057.287,930.891,1057.654,930.615Z" transform="translate(-1043.071 -920.599)" fill="#fff"/>
      <path id="Path_4402" data-name="Path 4402" d="M1050.815,936.264v40.282h-1.1V937.32C1050.08,936.953,1050.436,936.608,1050.815,936.264Z" transform="translate(-1039.594 -923.472)" fill="#fff"/>
      <path id="Path_4403" data-name="Path 4403" d="M1043.962,943.548v36.7h-1.114V944.982C1043.205,944.489,1043.572,944.008,1043.962,943.548Z" transform="translate(-1036.103 -927.176)" fill="#fff"/>
      <path id="Path_4404" data-name="Path 4404" d="M1037.123,953.633V985.38h-1.113V955.836C1036.354,955.078,1036.721,954.344,1037.123,953.633Z" transform="translate(-1032.626 -932.305)" fill="#fff"/>
      <path id="Path_4405" data-name="Path 4405" d="M1030.283,971.188v23.118h-.528a43.852,43.852,0,0,1-.585-5.921V978.1A41.693,41.693,0,0,1,1030.283,971.188Z" transform="translate(-1029.147 -941.232)" fill="#fff"/>
      <rect id="Rectangle_382" data-name="Rectangle 382" width="1.108" height="34.894" transform="translate(47.184 39.304)" fill="#fff"/>
      <rect id="Rectangle_383" data-name="Rectangle 383" width="1.108" height="34.894" transform="translate(50.626 39.304)" fill="#fff"/>
      <rect id="Rectangle_384" data-name="Rectangle 384" width="1.108" height="34.894" transform="translate(54.068 39.304)" fill="#fff"/>
      <rect id="Rectangle_385" data-name="Rectangle 385" width="1.108" height="34.894" transform="translate(57.509 39.304)" fill="#fff"/>
      <rect id="Rectangle_386" data-name="Rectangle 386" width="1.108" height="34.894" transform="translate(60.951 39.304)" fill="#fff"/>
      <rect id="Rectangle_387" data-name="Rectangle 387" width="1.108" height="34.894" transform="translate(64.393 39.304)" fill="#fff"/>
      <g id="Group_1519" data-name="Group 1519" transform="translate(0 37.104)">
        <path id="Path_4391" data-name="Path 4391" d="M1118.82,985.731v8.606a44.847,44.847,0,0,1-89.088,7.365,43.957,43.957,0,0,1-.586-5.92c-.011-.482-.022-.964-.022-1.445h17.211a27.647,27.647,0,0,0,53.108,10.761c.3-.7.563-1.423.8-2.156H1072.87V985.731Z" transform="translate(-1029.123 -985.731)" fill="#fff"/>
      </g>
    </g>
    <rect id="Rectangle_388" data-name="Rectangle 388" width="19.044" height="91.704" transform="translate(472.656 904.473)" fill="#fff"/>
    <rect id="Rectangle_389" data-name="Rectangle 389" width="19.044" height="91.704" transform="translate(966.818 904.473)" fill="#fff"/>
  </g>
</svg>
