<svg xmlns="http://www.w3.org/2000/svg" width="905" height="605.893" viewBox="0 0 905 605.893">
  <g id="services_hero" transform="translate(-5442.978 404.275)">
    <g id="Polygon_1" data-name="Polygon 1" transform="translate(5935.978 -296)" fill="none">
      <path d="M171.75,0,229,100.5,171.75,201H57.25L0,100.5,57.25,0Z" stroke="none"/>
      <path d="M 57.83122253417969 1 L 1.15087890625 100.5 L 57.83122253417969 200 L 171.1687774658203 200 L 227.84912109375 100.5 L 171.1687774658203 1 L 57.83122253417969 1 M 57.25 0 L 171.75 0 L 229 100.5 L 171.75 201 L 57.25 201 L 0 100.5 L 57.25 0 Z" stroke="none" fill="#7f8486"/>
    </g>
    <g id="Polygon_2" data-name="Polygon 2" transform="translate(5763.978 -195)" fill="none">
      <path d="M171.75,0,229,100,171.75,200H57.25L0,100,57.25,0Z" stroke="none"/>
      <path d="M 57.82980346679688 1 L 1.152297973632813 100 L 57.82980346679688 199 L 171.1701965332031 199 L 227.8477020263672 100 L 171.1701965332031 1 L 57.82980346679688 1 M 57.25 0 L 171.75 0 L 229 100 L 171.75 200 L 57.25 200 L 0 100 L 57.25 0 Z" stroke="none" fill="#7f8486"/>
    </g>
    <g id="Polygon_5" data-name="Polygon 5" transform="translate(5935.978 -96)" fill="none">
      <path d="M171.75,0,229,99.5,171.75,199H57.25L0,99.5,57.25,0Z" stroke="none"/>
      <path d="M 57.82833862304688 1 L 1.153701782226563 99.5 L 57.82833862304688 198 L 171.1716613769531 198 L 227.8462982177734 99.5 L 171.1716613769531 1 L 57.82833862304688 1 M 57.25 0 L 171.75 0 L 229 99.5 L 171.75 199 L 57.25 199 L 0 99.5 L 57.25 0 Z" stroke="none" fill="#7f8486"/>
    </g>
    <path id="Path_14866" data-name="Path 14866" d="M5758.223-300.151l-57.162-98.369" transform="translate(234.621 5.004)" fill="none" stroke="#7f8486" stroke-width="1"/>
    <path id="Path_14867" data-name="Path 14867" d="M5791.113-300.373l56.382-97.9" transform="translate(316.506 5.225)" fill="none" stroke="#7f8486" stroke-width="1"/>
    <path id="Path_14868" data-name="Path 14868" d="M5820.643-294h114.625l57.312,98.648" transform="translate(343.358 100.046)" fill="none" stroke="#7f8486" stroke-width="1"/>
    <path id="Path_14869" data-name="Path 14869" d="M5820.643-188.5H5936.2" transform="translate(343.358 195.98)" fill="none" stroke="#7f8486" stroke-width="1"/>
    <path id="Path_14870" data-name="Path 14870" d="M5753.862-136,5700.33-42.356" transform="translate(238.982 243.719)" fill="none" stroke="#7f8486" stroke-width="1"/>
    <path id="Path_14871" data-name="Path 14871" d="M5609.545-137l57.313,96.629" transform="translate(154.632 241.734)" fill="none" stroke="#707070" stroke-width="1"/>
    <path id="Path_14872" data-name="Path 14872" d="M5578.5-189.5H5459.214" transform="translate(14.707 195.071)" fill="none" stroke="#7f8486" stroke-width="1"/>
    <path id="Path_14873" data-name="Path 14873" d="M5579.847-193.186l-60.108-100.4" transform="translate(69.74 100.426)" fill="none" stroke="#7f8486" stroke-width="1"/>
    <text id="Service" transform="translate(5442.978 -81)" fill="#fff" font-size="36" font-family="SegoeUI-Semibold, Segoe UI" font-weight="600"><tspan x="0" y="0">Service</tspan></text>
    <text id="Service-2" data-name="Service" transform="translate(6157.978 -81)" fill="#fff" font-size="36" font-family="SegoeUI-Semibold, Segoe UI" font-weight="600"><tspan x="0" y="0">Service</tspan></text>
    <text id="Service-3" data-name="Service" transform="translate(5981.978 -183)" fill="#fff" font-size="36" font-family="SegoeUI-Semibold, Segoe UI" font-weight="600"><tspan x="0" y="0">Service</tspan></text>
    <text id="Service-4" data-name="Service" transform="translate(5981.978 16)" fill="#fff" font-size="36" font-family="SegoeUI-Semibold, Segoe UI" font-weight="600"><tspan x="0" y="0">Service</tspan></text>
    <text id="Service-5" data-name="Service" transform="translate(5808.978 -84)" fill="#fff" font-size="36" font-family="SegoeUI-Semibold, Segoe UI" font-weight="600"><tspan x="0" y="0">Service</tspan></text>
    <text id="Service-6" data-name="Service" transform="translate(5636.978 16)" fill="#fff" font-size="36" font-family="SegoeUI-Semibold, Segoe UI" font-weight="600"><tspan x="0" y="0">Service</tspan></text>
    <ellipse id="Ellipse_40" data-name="Ellipse 40" cx="11.5" cy="11" rx="11.5" ry="11" transform="translate(5578.978 -204)" fill="#fff" opacity="0.7"/>
    <ellipse id="Ellipse_41" data-name="Ellipse 41" cx="11.5" cy="12" rx="11.5" ry="12" transform="translate(5462.978 -7)" fill="#fff" opacity="0.7"/>
    <circle id="Ellipse_45" data-name="Ellipse 45" cx="11.5" cy="11.5" r="11.5" transform="translate(5981.978 93)" fill="#fff" opacity="0.7"/>
    <ellipse id="Ellipse_46" data-name="Ellipse 46" cx="12" cy="11" rx="12" ry="11" transform="translate(6151.978 -5)" fill="#fff" opacity="0.7"/>
    <ellipse id="Ellipse_47" data-name="Ellipse 47" cx="11.5" cy="11" rx="11.5" ry="11" transform="translate(6267.978 -5)" fill="#fff" opacity="0.7"/>
    <ellipse id="Ellipse_48" data-name="Ellipse 48" cx="11.5" cy="12.5" rx="11.5" ry="12.5" transform="translate(6324.978 -106)" fill="#fff" opacity="0.7"/>
    <ellipse id="Ellipse_49" data-name="Ellipse 49" cx="11.5" cy="11" rx="11.5" ry="11" transform="translate(6267.978 -204)" fill="#fff" opacity="0.7"/>
    <ellipse id="Ellipse_50" data-name="Ellipse 50" cx="10.5" cy="11.5" rx="10.5" ry="11.5" transform="translate(6157.978 -404)" fill="#fff" opacity="0.7"/>
    <ellipse id="Ellipse_51" data-name="Ellipse 51" cx="11" cy="11.5" rx="11" ry="11.5" transform="translate(5923.978 -404)" fill="#fff" opacity="0.7"/>
    <g id="Polygon_3" data-name="Polygon 3" transform="translate(5591.978 -95)" fill="none">
      <path d="M171.75,0,229,100,171.75,200H57.25L0,100,57.25,0Z" stroke="none"/>
      <path d="M 57.82980346679688 1 L 1.152297973632813 100 L 57.82980346679688 199 L 171.1701965332031 199 L 227.8477020263672 100 L 171.1701965332031 1 L 57.82980346679688 1 M 57.25 0 L 171.75 0 L 229 100 L 171.75 200 L 57.25 200 L 0 100 L 57.25 0 Z" stroke="none" fill="#7f8486"/>
    </g>
    <g id="Ellipse_52" data-name="Ellipse 52" transform="translate(5751.978 93)" fill="#fff" stroke="#707070" stroke-width="1" opacity="0.7">
      <circle cx="11.5" cy="11.5" r="11.5" stroke="none"/>
      <circle cx="11.5" cy="11.5" r="11" fill="none"/>
    </g>
    <g id="Ellipse_42" data-name="Ellipse 42" transform="translate(5637.978 93)" fill="#fff" stroke="#707070" stroke-width="1" opacity="0.7">
      <ellipse cx="12" cy="11.5" rx="12" ry="11.5" stroke="none"/>
      <ellipse cx="12" cy="11.5" rx="11.5" ry="11" fill="none"/>
    </g>
    <g id="Consult-Talk" transform="translate(6016.101 -404.275)">
      <rect id="Rectangle_14052" data-name="Rectangle 14052" width="2.34" height="2.34" transform="translate(16.378 27.28)" fill="#fff"/>
      <rect id="Rectangle_14053" data-name="Rectangle 14053" width="2.34" height="2.34" transform="translate(28.076 27.28)" fill="#fff"/>
      <path id="Path_14874" data-name="Path 14874" d="M71.187,41.841l-4.571-.653a16.376,16.376,0,0,0-.769-1.872l2.766-3.687A1.17,1.17,0,0,0,68.5,34.1l-4.964-4.964a1.157,1.157,0,0,0-.709-.331V17.544a9.359,9.359,0,0,0,3.51-7.3,9.262,9.262,0,0,0-5.35-8.451A1.17,1.17,0,0,0,59.322,2.85V9.4l-2.34.78-2.34-.78V2.85A1.17,1.17,0,0,0,52.974,1.8a9.262,9.262,0,0,0-5.35,8.446,9.359,9.359,0,0,0,3.51,7.3v7.907h-3.51a1.17,1.17,0,0,0-1.158,1l-.757,5.3,2.316.331.613-4.293h4.991l.613,4.293a1.17,1.17,0,0,0,.831.957A13.966,13.966,0,0,1,57.88,34.2a1.17,1.17,0,0,0,1.265-.09l3.464-2.6,3.528,3.528-2.6,3.464a1.17,1.17,0,0,0-.09,1.265A13.966,13.966,0,0,1,64.6,42.573a1.17,1.17,0,0,0,.957.831l4.293.613v4.991l-4.293.613a1.17,1.17,0,0,0-.957.831,13.967,13.967,0,0,1-1.155,2.808,1.17,1.17,0,0,0,.09,1.265l2.6,3.464L62.6,61.515l-3.462-2.606a1.17,1.17,0,0,0-1.265-.09,13.967,13.967,0,0,1-2.808,1.155,1.17,1.17,0,0,0-.831.957l-.609,4.3H48.794V60.279a12.985,12.985,0,0,0-.526-3.651,10.657,10.657,0,1,0-7.48-8.261c-.028-.012-.055-.026-.083-.036l-9.458-3.783v-1.8a12.973,12.973,0,0,0,4.07-3.259h2.949a3.51,3.51,0,0,0,3.51-3.51V33.425a3.51,3.51,0,0,0,2.34-3.294v-3.51a3.51,3.51,0,0,0-2.34-3.294V21.942a16.378,16.378,0,0,0-32.756,0v1.385a3.51,3.51,0,0,0-2.34,3.294v3.51a3.51,3.51,0,0,0,3.51,3.51h2.34c.075,0,.147-.012.221-.016a12.9,12.9,0,0,0,6.8,9.125v1.8L10.089,48.33A12.809,12.809,0,0,0,2,60.279v10.8a1.17,1.17,0,0,0,1.17,1.17H47.624a1.17,1.17,0,0,0,1.17-1.17v-3.51h5.849a1.17,1.17,0,0,0,1.158-1l.653-4.57a16.377,16.377,0,0,0,1.872-.769l3.687,2.766a1.17,1.17,0,0,0,1.529-.109l4.964-4.964a1.17,1.17,0,0,0,.109-1.529L65.849,53.7a16.378,16.378,0,0,0,.769-1.872l4.571-.653a1.17,1.17,0,0,0,1-1.157V43a1.17,1.17,0,0,0-1-1.158ZM58.319,31.794c-.055-.027-.117-.044-.172-.07V17.262H55.813v9.277l-.012-.084a1.17,1.17,0,0,0-1.158-1h-1.17V16.958a1.17,1.17,0,0,0-.5-.96A7.019,7.019,0,0,1,52.3,5v5.239a1.17,1.17,0,0,0,.8,1.11l3.509,1.17a1.17,1.17,0,0,0,.739,0l3.51-1.17a1.17,1.17,0,0,0,.8-1.11V5a7.019,7.019,0,0,1-.668,11,1.17,1.17,0,0,0-.5.957V30.169ZM42.945,46.508a8.247,8.247,0,1,1,3.9,6.95,12.77,12.77,0,0,0-3.054-3.366,8,8,0,0,1-.845-3.584ZM38.265,37.15h-1.42a12.751,12.751,0,0,0,1.2-3.526c.074,0,.146.016.221.016h1.17v2.34A1.17,1.17,0,0,1,38.265,37.15Zm-2.34-12.868a3.527,3.527,0,0,1-2.808-1.4L31.012,20.07a1.17,1.17,0,0,0-.788-.459,1.183,1.183,0,0,0-.879.247l-3.926,3.136a5.87,5.87,0,0,1-3.649,1.287h-6.9v-1.17a10.529,10.529,0,0,1,21.057,0Zm5.849,5.849A1.17,1.17,0,0,1,40.6,31.3h-2.34V25.451H40.6a1.17,1.17,0,0,1,1.17,1.17ZM25.4,7.9A14.053,14.053,0,0,1,39.435,21.942v1.17h-1.17a12.868,12.868,0,0,0-25.737,0h-1.17v-1.17A14.053,14.053,0,0,1,25.4,7.9ZM10.189,31.3a1.17,1.17,0,0,1-1.17-1.17v-3.51a1.17,1.17,0,0,1,1.17-1.17h2.34V31.3Zm4.679,0V26.621h6.9a8.217,8.217,0,0,0,5.115-1.795l2.984-2.388,1.377,1.843a5.878,5.878,0,0,0,4.679,2.34V31.3a10.467,10.467,0,0,1-1.781,5.849H25.4v2.34H32A10.518,10.518,0,0,1,14.868,31.3ZM25.4,44.169a12.828,12.828,0,0,0,3.51-.5v1.668a3.51,3.51,0,0,1-7.019,0V43.67a12.828,12.828,0,0,0,3.51.5ZM46.454,69.905H39.435V57.037H37.1V69.905H13.7V57.037h-2.34V69.905H4.34V60.279A10.479,10.479,0,0,1,10.959,50.5l8.848-3.539a5.812,5.812,0,0,0,11.181,0L39.835,50.5a10.479,10.479,0,0,1,6.619,9.776Z" transform="translate(-2 -1.68)" fill="#fff"/>
      <rect id="Rectangle_14054" data-name="Rectangle 14054" width="2.34" height="2.34" transform="translate(47.964 28.45)" fill="#fff"/>
      <rect id="Rectangle_14055" data-name="Rectangle 14055" width="2.34" height="2.34" transform="translate(47.964 58.866)" fill="#fff"/>
      <rect id="Rectangle_14056" data-name="Rectangle 14056" width="2.34" height="2.34" transform="translate(58.232 55.582) rotate(-45)" fill="#fff"/>
      <rect id="Rectangle_14057" data-name="Rectangle 14057" width="2.34" height="2.34" transform="translate(63.172 43.658)" fill="#fff"/>
      <rect id="Rectangle_14058" data-name="Rectangle 14058" width="2.34" height="2.34" transform="translate(58.233 34.075) rotate(-45)" fill="#fff"/>
    </g>
    <g id="select" transform="translate(5845.591 -283.492)">
      <path id="Path_14875" data-name="Path 14875" d="M9.3,50.183V36H7.152V50.183a3.227,3.227,0,1,0,2.152,0ZM8.227,54.288A1.076,1.076,0,1,1,9.3,53.212,1.076,1.076,0,0,1,8.227,54.288Z" transform="translate(-0.697 1.652)" fill="#fff"/>
      <path id="Path_14876" data-name="Path 14876" d="M14.227,36a3.22,3.22,0,0,0-1.076,6.257V56.44H15.3V42.257A3.22,3.22,0,0,0,14.227,36Zm0,4.3A1.076,1.076,0,1,1,15.3,39.227,1.076,1.076,0,0,1,14.227,40.3Z" transform="translate(-0.242 1.652)" fill="#fff"/>
      <path id="Path_14877" data-name="Path 14877" d="M53.3,50.183V36H51.152V50.183a3.227,3.227,0,1,0,2.152,0Zm-1.076,4.105A1.076,1.076,0,1,1,53.3,53.212,1.076,1.076,0,0,1,52.227,54.288Z" transform="translate(2.637 1.652)" fill="#fff"/>
      <path id="Path_14878" data-name="Path 14878" d="M58.227,36a3.22,3.22,0,0,0-1.076,6.257V56.44H59.3V42.257A3.22,3.22,0,0,0,58.227,36Zm0,4.3A1.076,1.076,0,1,1,59.3,39.227,1.076,1.076,0,0,1,58.227,40.3Z" transform="translate(3.092 1.652)" fill="#fff"/>
      <path id="Path_14879" data-name="Path 14879" d="M47.258,35.425a3.21,3.21,0,0,0-1.2.237A3.2,3.2,0,0,0,40.8,34.112a3.128,3.128,0,0,0-3.227-.641V24.214a11.873,11.873,0,0,0,8.466-9.638l4.548,2.5a10.561,10.561,0,1,0,2.186-1.254l-6.628-3.646a11.817,11.817,0,0,0-23.6,0l-6.628,3.645a10.879,10.879,0,1,0,2.185,1.253l4.549-2.5a11.867,11.867,0,0,0,8.467,9.64v19.83a3.227,3.227,0,0,1-.329,1.419l-.9-4.512a6.953,6.953,0,0,0-6.8-5.574,2.727,2.727,0,0,0-2.269,4.24l1.107,1.661a4.8,4.8,0,0,1,.766,2.059l.744,5.952a7.307,7.307,0,0,0,.9,2.74l3.553,7.309v1.9H25.743V67.7H49.41V61.243H47.258V59.45l1.721-2.295a7.571,7.571,0,0,0,1.506-4.518V38.652a3.231,3.231,0,0,0-3.227-3.227Zm9.682-1.076a8.551,8.551,0,0,1-5.155-1.731,6.452,6.452,0,0,1,10.31,0A8.551,8.551,0,0,1,56.94,34.349Zm-3.227-9.682a3.227,3.227,0,1,1,3.227,3.227A3.231,3.231,0,0,1,53.713,24.667Zm3.227-7.53a8.6,8.6,0,0,1,6.7,13.989,8.6,8.6,0,0,0-3.153-2.451,5.379,5.379,0,1,0-7.1,0,8.614,8.614,0,0,0-3.153,2.451,8.6,8.6,0,0,1,6.7-13.989ZM11.758,34.349A8.551,8.551,0,0,1,6.6,32.618a6.452,6.452,0,0,1,10.31,0A8.551,8.551,0,0,1,11.758,34.349ZM8.53,24.667a3.227,3.227,0,1,1,3.227,3.227A3.231,3.231,0,0,1,8.53,24.667Zm11.834,1.076a8.557,8.557,0,0,1-1.9,5.383,8.6,8.6,0,0,0-3.153-2.451,5.379,5.379,0,1,0-7.1,0,8.614,8.614,0,0,0-3.153,2.451,8.6,8.6,0,1,1,15.31-5.383Zm4.3-12.909a9.682,9.682,0,1,1,17.382,5.844,8.568,8.568,0,0,0-4.135-4,5.379,5.379,0,1,0-7.13,0,8.567,8.567,0,0,0-4.136,4,9.657,9.657,0,0,1-1.981-5.845Zm12.909-2.152a3.227,3.227,0,1,1-3.227-3.227A3.231,3.231,0,0,1,37.576,10.682Zm-9.293,9.685a6.425,6.425,0,0,1,12.13,0,9.6,9.6,0,0,1-3.225,1.724,3.2,3.2,0,0,0-5.679,0A9.606,9.606,0,0,1,28.284,20.367ZM47.258,65.546H27.894V63.395H47.258Zm1.076-12.909a5.409,5.409,0,0,1-1.076,3.227l-2.152,2.869v2.51H30.046v-2.4l-3.8-7.818a5.312,5.312,0,0,1-.667-2l-.744-5.953a6.949,6.949,0,0,0-1.11-2.985l-1.108-1.662a.576.576,0,0,1,.479-.9,4.8,4.8,0,0,1,4.689,3.844l1.383,6.914h2.623l.919-1.838a5.408,5.408,0,0,0,.568-2.4V23.591a1.076,1.076,0,1,1,2.152,0V40.8h2.152V36.5a1.076,1.076,0,1,1,2.152,0v4.3h2.152V36.5a1.076,1.076,0,1,1,2.152,0v4.3h2.152V38.652a1.076,1.076,0,0,1,2.152,0Z" transform="translate(-1 -1)" fill="#fff"/>
    </g>
    <g id="technical-support_2_" data-name="technical-support (2)" transform="translate(5677.77 -179.142)">
      <path id="Path_14880" data-name="Path 14880" d="M99.551,34.631A13.6,13.6,0,0,0,84.1,21.153a5.027,5.027,0,0,0-2.063-4.438,2.731,2.731,0,0,0,.2-1.016V8.2A3.912,3.912,0,0,0,78.1,4.29a.756.756,0,0,1-.836-.574C76.78,1.216,75.205,0,72.455,0H69.779a.977.977,0,0,0,0,1.954h2.677c2.289,0,2.676,1.011,2.9,2.137a2.716,2.716,0,0,0,2.9,2.148A1.96,1.96,0,0,1,80.277,8.2v7.5c0,1.535-3.2.751-3.2-1.609a1.152,1.152,0,0,0-2.167-.545,5.567,5.567,0,0,1-4.916,2.949H58.808a1.786,1.786,0,0,1-1.781-1.781V7.526A5.579,5.579,0,0,1,62.6,1.954h2.62a.977.977,0,0,0,0-1.954H62.6a7.535,7.535,0,0,0-7.526,7.526v7.188a3.721,3.721,0,0,0,1.054,2.6,5.013,5.013,0,0,0-1.5,3.467,4.86,4.86,0,0,0,4.43,4.551,10.137,10.137,0,0,0,4.186,7.1v2.516c-.057.031-1.979.772-2.04.8H55.5a3.614,3.614,0,0,0-3.609,3.609v0l-1.75.679-.019.007a9.63,9.63,0,0,0-5.691,8.792v15.2A2.675,2.675,0,0,0,47.1,66.7H91.762a2.675,2.675,0,0,0,2.672-2.672V58.211a.977.977,0,1,0-1.954,0v5.815a.718.718,0,0,1-.718.718H88.977a3.037,3.037,0,0,0,.2-1.083V62.135a1.42,1.42,0,0,0-1.417-1.421H86.617a3.569,3.569,0,0,0,.357-1.547V48.2a13.492,13.492,0,0,0,5.207-1.468,7.534,7.534,0,0,1,.3,2.1v4.824a.977.977,0,0,0,1.954,0V48.828a9.5,9.5,0,0,0-.541-3.152A13.561,13.561,0,0,0,99.551,34.631ZM58.99,23.334a2.867,2.867,0,0,1-2.4-2.557,3.124,3.124,0,0,1,1.34-2.434,4.11,4.11,0,0,0,1.063.106Zm20.77-4.9a2.844,2.844,0,0,0,.926-.265,2.922,2.922,0,0,1,1.3,3.441,13.428,13.428,0,0,0-2.229.9ZM60.944,24.122V18.449h9.05a7.554,7.554,0,0,0,5.565-2.459A4.384,4.384,0,0,0,77.78,18.1l.026.011v5.619A13.617,13.617,0,0,0,72.639,31.8c-5.238,2.151-11.7-1.457-11.7-7.681ZM72.389,35.737H65.055a1.92,1.92,0,0,0,.148-.766V33.52a10.945,10.945,0,0,0,7.157.45A13.615,13.615,0,0,0,72.389,35.737ZM53.842,39.346A1.657,1.657,0,0,1,55.5,37.691H72.69A13.6,13.6,0,0,0,85.02,48.2V59.167a1.67,1.67,0,0,1-1.07,1.547H54.912a1.67,1.67,0,0,1-1.07-1.547Zm29.6-6.106.62,2.313a1.476,1.476,0,0,0,1.041,1.042l2.313.62a1.478,1.478,0,0,0,1.422-.381l3.486-3.486a5.485,5.485,0,0,1-9.493,4.087h0a5.488,5.488,0,0,1,4.546-9.17l-3.554,3.554a1.476,1.476,0,0,0-.381,1.423Zm-.149,7-3.972,3.972a11.653,11.653,0,0,1-2.959-2.962l3.972-3.972c.008.016.018.03.027.046A7.487,7.487,0,0,0,83.3,40.243ZM49.686,62.135v1.527a3.04,3.04,0,0,0,.2,1.083H47.1a.719.719,0,0,1-.718-.718v-15.2a7.749,7.749,0,0,1,4.471-6.981l1.034-.4V59.167a3.569,3.569,0,0,0,.357,1.547H51.1a1.42,1.42,0,0,0-1.416,1.421Zm37.536.533v.993a1.074,1.074,0,0,1-1.061,1.083H52.7a1.074,1.074,0,0,1-1.061-1.083v-.993Zm-6.14-17.448,4.231-4.231a7.433,7.433,0,0,0,8.819-8.809,1.557,1.557,0,0,0-2.623-.78l-3.854,3.854-1.776-.476L85.4,33,89.31,29.1a1.558,1.558,0,0,0-.755-2.617A7.429,7.429,0,0,0,79.6,35.255l-4.238,4.238a11.648,11.648,0,1,1,5.721,5.727Z" transform="translate(-44.428 0)" fill="#fff"/>
      <path id="Path_14881" data-name="Path 14881" d="M212.412,379.744h2.982a.977.977,0,1,0,0-1.954h-2.982a.977.977,0,1,0,0,1.954Z" transform="translate(-189.679 -328.576)" fill="#fff"/>
    </g>
    <g id="technician" transform="translate(5847.101 75.446)">
      <path id="Path_14882" data-name="Path 14882" d="M53.3,45a4.3,4.3,0,1,0,4.3,4.3A4.3,4.3,0,0,0,53.3,45Zm0,6.455A2.152,2.152,0,1,1,55.455,49.3,2.152,2.152,0,0,1,53.3,51.455Z" transform="translate(1.561 1.258)" fill="#fff"/>
      <path id="Path_14883" data-name="Path 14883" d="M65.729,49.366l-.721-.183.387-.635a1.076,1.076,0,0,0-.161-1.312L62.19,44.192a1.089,1.089,0,0,0-1.312-.161l-.635.387L60.06,43.7a1.076,1.076,0,0,0-1.044-.818h-4.3a1.076,1.076,0,0,0-1.044.818l-.043.161a5.365,5.365,0,0,0-1.248-3.324l1.56-1.549a10.693,10.693,0,0,0,10.37-2.765,9.712,9.712,0,0,0,2.55-9.413,1.061,1.061,0,0,0-.688-.742,1.085,1.085,0,0,0-.99.161l-5.336,4L56.606,26.99l4-5.336a1.085,1.085,0,0,0,.161-.99,1.061,1.061,0,0,0-.742-.688,9.712,9.712,0,0,0-9.413,2.55c-2.84,2.84-3.97,7.165-2.8,10.4L42.18,38.576h-.022l-3.582-2.689V33.37a10.784,10.784,0,0,0,6.4-8.778h.054a3.237,3.237,0,0,0,3.227-3.227V20.288a3.237,3.237,0,0,0-3.227-3.227v-.3a7.53,7.53,0,0,0,3.227-6.153V3.076A1.076,1.076,0,0,0,47.183,2H29.97a9.7,9.7,0,0,0-9.682,9.682v2.152a4.312,4.312,0,0,0,1.861,3.539,3.227,3.227,0,0,0-1.861,2.915v1.076a3.237,3.237,0,0,0,3.227,3.227h.054a10.784,10.784,0,0,0,6.4,8.778v2.517l-3.389,2.539-9.65-10.36-4.54-6.057a1.146,1.146,0,0,0-.441-.344L6.626,19.385a1.076,1.076,0,0,0-1.183.226L2.4,22.655a1.076,1.076,0,0,0-.226,1.183l2.281,5.325A1.146,1.146,0,0,0,4.8,29.6l6.057,4.54,6.067,5.648a5.353,5.353,0,0,0-2,4.066l-.043-.161a1.076,1.076,0,0,0-1.044-.818H9.53a1.076,1.076,0,0,0-1.044.818l-.183.721-.635-.387a1.091,1.091,0,0,0-1.312.161L3.312,47.236a1.089,1.089,0,0,0-.161,1.312l.387.635-.721.183A1.076,1.076,0,0,0,2,50.41v4.3a1.076,1.076,0,0,0,.818,1.044l.721.183-.387.635a1.076,1.076,0,0,0,.161,1.312l3.044,3.044a1.076,1.076,0,0,0,1.312.161l.635-.387.183.721a1.076,1.076,0,0,0,1.044.818h4.3a1.076,1.076,0,0,0,1.044-.818l.032-.129v2.022a3.237,3.237,0,0,0,3.227,3.227H50.41a3.237,3.237,0,0,0,3.227-3.227V61.3l.032.129a1.076,1.076,0,0,0,1.044.818h4.3a1.076,1.076,0,0,0,1.044-.818l.183-.721.635.387a1.076,1.076,0,0,0,1.312-.161l3.044-3.044a1.076,1.076,0,0,0,.161-1.312l-.387-.635.721-.183a1.076,1.076,0,0,0,.818-1.044v-4.3A1.076,1.076,0,0,0,65.729,49.366ZM49.861,33.94a1.076,1.076,0,0,0,.194-1.248c-1.226-2.453-.312-6.25,2.087-8.638a7.555,7.555,0,0,1,5.669-2.259l-3.486,4.647a1.076,1.076,0,0,0,.1,1.409l4.561,4.561a1.076,1.076,0,0,0,1.409.1l4.647-3.486a7.571,7.571,0,0,1-2.259,5.669,8.414,8.414,0,0,1-8.7,2.055,1.076,1.076,0,0,0-1.183.226L50.69,39.19a5.288,5.288,0,0,0-2.431-.613H45.214ZM46.107,20.288v1.076a1.076,1.076,0,0,1-1.076,1.076V19.212A1.076,1.076,0,0,1,46.107,20.288ZM23.515,22.44a1.076,1.076,0,0,1-1.076-1.076V20.288a1.076,1.076,0,0,1,1.076-1.076Zm0-7.53v.775a2.139,2.139,0,0,1-1.076-1.85V11.682a7.539,7.539,0,0,1,7.53-7.53H46.107v6.455a5.348,5.348,0,0,1-1.377,3.572,1.013,1.013,0,0,0-.495-.3L38.168,12.22a1.057,1.057,0,0,0-1.194.473,4.825,4.825,0,0,1-1.2,1.366,5.894,5.894,0,0,1-2.453,1.065,7.92,7.92,0,0,0,.957-3.346A1.076,1.076,0,0,0,33.2,10.606H32.122a1.082,1.082,0,0,0-.42.086l-7.53,3.227A1.076,1.076,0,0,0,23.515,14.909Zm2.152,8.606v-7.9l6.239-2.668a3.163,3.163,0,0,1-.57,1.226,5.419,5.419,0,0,1-.559.484,1.506,1.506,0,0,0-.753,1.646,1.433,1.433,0,0,0,1.022.925A7.746,7.746,0,0,0,37.07,15.77a6.507,6.507,0,0,0,1.269-1.28l4.54,1.237v7.789a8.606,8.606,0,0,1-17.212,0Zm6.024,13.77a1.091,1.091,0,0,0,.43-.861V34.058a10.865,10.865,0,0,0,4.3,0v2.367a1.091,1.091,0,0,0,.43.861l2.991,2.248-5.573,3.184L28.7,39.534ZM6.325,28.055,4.442,23.666l2.012-2.012,4.389,1.883,3.83,5.1-3.249,3.249Zm6.756,5.218,2.98-2.98,7.713,8.283H20.288a5.379,5.379,0,0,0-1.323.183Zm1.84,24.84a1.1,1.1,0,0,0-.968-.065,1.083,1.083,0,0,0-.635.732l-.323,1.312H10.37l-.323-1.312a1.083,1.083,0,0,0-.635-.732,1.1,1.1,0,0,0-.968.065l-1.162.7-1.85-1.85.7-1.162a1.1,1.1,0,0,0,.065-.968,1.083,1.083,0,0,0-.732-.635l-1.312-.323V51.249l1.312-.323a1.083,1.083,0,0,0,.732-.635,1.1,1.1,0,0,0-.065-.968l-.7-1.162,1.85-1.85L8.444,47a1.064,1.064,0,0,0,.968.075,1.083,1.083,0,0,0,.635-.732l.323-1.312h2.625l.323,1.312a1.083,1.083,0,0,0,.635.732A1.064,1.064,0,0,0,14.92,47l1.162-.688,1.85,1.85-.7,1.162a1.1,1.1,0,0,0-.065.968,1.083,1.083,0,0,0,.732.635l1.312.323v2.625L17.9,54.2a1.083,1.083,0,0,0-.732.635,1.1,1.1,0,0,0,.065.968l.7,1.162-1.85,1.85Zm21.214,6.283H32.412a2.152,2.152,0,1,1,3.722,0Zm5.669,0H38.426a4.552,4.552,0,0,0,.151-1.076,4.3,4.3,0,1,0-8.606,0,4.551,4.551,0,0,0,.151,1.076H26.743V62.007l1.312-.323a1.059,1.059,0,0,0,.732-.635,1.076,1.076,0,0,0-.065-.957l-.7-1.162,1.861-1.861,1.162.7a1.04,1.04,0,0,0,.957.065,1.059,1.059,0,0,0,.635-.732l.323-1.312h2.625l.323,1.312a1.059,1.059,0,0,0,.635.732,1.076,1.076,0,0,0,.957-.065l1.162-.7,1.861,1.861-.7,1.162a1.076,1.076,0,0,0-.065.957,1.059,1.059,0,0,0,.732.635l1.312.323Zm9.682-1.076a1.076,1.076,0,0,1-1.076,1.076H43.955V61.168a1.076,1.076,0,0,0-.818-1.044l-.721-.183.387-.635a1.091,1.091,0,0,0-.161-1.312L39.6,54.95a1.091,1.091,0,0,0-1.312-.161l-.635.387-.183-.721a1.076,1.076,0,0,0-1.044-.818h-4.3a1.076,1.076,0,0,0-1.044.818l-.183.721-.635-.387a1.091,1.091,0,0,0-1.312.161L25.9,57.994a1.091,1.091,0,0,0-.161,1.312l.387.635-.721.183a1.076,1.076,0,0,0-.818,1.044v3.227H18.137a1.076,1.076,0,0,1-1.076-1.076V60.877l2.991-2.991a1.089,1.089,0,0,0,.161-1.312l-.387-.635.721-.183a1.076,1.076,0,0,0,.818-1.044v-4.3a1.076,1.076,0,0,0-.818-1.044l-.721-.183.387-.635a1.076,1.076,0,0,0-.161-1.312l-2.991-2.991v-.29a3.237,3.237,0,0,1,3.227-3.227h6.164l7.283,4.163a1.123,1.123,0,0,0,1.076,0l7.283-4.163h6.164a3.237,3.237,0,0,1,3.227,3.227v.29l-2.991,2.991a1.076,1.076,0,0,0-.161,1.312l.387.635L48,49.366a1.076,1.076,0,0,0-.818,1.044v4.3A1.076,1.076,0,0,0,48,55.756l.721.183-.387.635a1.076,1.076,0,0,0,.161,1.312l2.991,2.991Zm12.909-9.445-1.312.323a1.083,1.083,0,0,0-.732.635,1.1,1.1,0,0,0,.065.968l.7,1.162-1.85,1.85-1.162-.7a1.1,1.1,0,0,0-.968-.065,1.083,1.083,0,0,0-.635.732l-.323,1.312H55.552l-.323-1.312a1.083,1.083,0,0,0-.635-.732,1.1,1.1,0,0,0-.968.065l-1.162.7-1.85-1.85.7-1.162a1.1,1.1,0,0,0,.065-.968,1.083,1.083,0,0,0-.732-.635l-1.312-.323V51.249l1.312-.323a1.083,1.083,0,0,0,.732-.635,1.1,1.1,0,0,0-.065-.968l-.7-1.162,1.85-1.85L53.626,47a1.064,1.064,0,0,0,.968.075,1.083,1.083,0,0,0,.635-.732l.323-1.312h2.625l.323,1.312a1.083,1.083,0,0,0,.635.732A1.064,1.064,0,0,0,60.1,47l1.162-.688,1.85,1.85-.7,1.162a1.1,1.1,0,0,0-.065.968,1.083,1.083,0,0,0,.732.635l1.312.323Z" transform="translate(-2 -2)" fill="#fff"/>
      <path id="Path_14884" data-name="Path 14884" d="M11.3,45a4.3,4.3,0,1,0,4.3,4.3A4.3,4.3,0,0,0,11.3,45Zm0,6.455A2.152,2.152,0,1,1,13.455,49.3,2.152,2.152,0,0,1,11.3,51.455Z" transform="translate(-1.621 1.258)" fill="#fff"/>
    </g>
  </g>
</svg>
