<svg xmlns="http://www.w3.org/2000/svg" width="168.563" height="176.623" viewBox="0 0 168.563 176.623">
  <g id="software_development" data-name="software development" transform="translate(0)">
    <path id="Path_4495" data-name="Path 4495" d="M97.067,176.623H72.59A12.618,12.618,0,0,1,60.219,166.7l-3.106-13.784a67.6,67.6,0,0,1-14.38-8.345L29.324,148.8a12.787,12.787,0,0,1-14.9-5.8l-12.2-21.106A12.868,12.868,0,0,1,4.6,106.18l10.391-9.552A73.083,73.083,0,0,1,14.981,80L4.641,70.487A12.846,12.846,0,0,1,2.191,54.8L14.466,33.573A12.74,12.74,0,0,1,29.31,27.825l13.423,4.232a67.784,67.784,0,0,1,14.38-8.345L60.219,9.92A12.619,12.619,0,0,1,72.59,0H97.067a12.618,12.618,0,0,1,12.371,9.928l3.106,13.784a67.6,67.6,0,0,1,14.38,8.345l13.409-4.232a12.77,12.77,0,0,1,14.9,5.8l12.2,21.106a12.868,12.868,0,0,1-2.37,15.712L154.668,80a73.65,73.65,0,0,1,0,16.632l10.347,9.508.044.044a12.824,12.824,0,0,1,2.406,15.638L155.19,143.05a12.747,12.747,0,0,1-14.844,5.748l-13.431-4.239a67.784,67.784,0,0,1-14.38,8.345L109.43,166.7a12.6,12.6,0,0,1-12.364,9.928ZM43.866,132.9a5.554,5.554,0,0,1,3.518,1.258,56.627,56.627,0,0,0,16.4,9.516,5.53,5.53,0,0,1,3.474,3.967L71,164.274a1.67,1.67,0,0,0,1.6,1.31H97.081a1.678,1.678,0,0,0,1.6-1.3l3.746-16.632a5.516,5.516,0,0,1,3.474-3.967,56.8,56.8,0,0,0,16.4-9.516,5.5,5.5,0,0,1,5.174-1.008l16.2,5.115a1.643,1.643,0,0,0,1.95-.684L157.9,116.365a1.789,1.789,0,0,0-.361-2.127l-12.422-11.422A5.487,5.487,0,0,1,143.4,97.93a65.115,65.115,0,0,0,.736-9.619,64.205,64.205,0,0,0-.736-9.619,5.526,5.526,0,0,1,1.715-4.887l12.452-11.451a1.791,1.791,0,0,0,.294-2.164l-12.2-21.1a1.678,1.678,0,0,0-2-.736l-16.176,5.107a5.5,5.5,0,0,1-5.174-1.008,56.627,56.627,0,0,0-16.4-9.516,5.531,5.531,0,0,1-3.474-3.967L98.693,12.342a1.722,1.722,0,0,0-1.626-1.3H72.59a1.678,1.678,0,0,0-1.6,1.3L67.239,28.981a5.519,5.519,0,0,1-3.466,3.967,56.627,56.627,0,0,0-16.4,9.516A5.518,5.518,0,0,1,42.2,43.471l-16.2-5.115a1.652,1.652,0,0,0-1.95.684L11.78,60.258a1.792,1.792,0,0,0,.375,2.142L24.57,73.806a5.487,5.487,0,0,1,1.715,4.887,65.114,65.114,0,0,0-.736,9.619,64.2,64.2,0,0,0,.736,9.619,5.526,5.526,0,0,1-1.715,4.887L12.118,114.268a1.791,1.791,0,0,0-.294,2.164l12.2,21.1a1.653,1.653,0,0,0,2,.736L42.2,133.159A5.373,5.373,0,0,1,43.866,132.9Z" transform="translate(-0.548 0)" fill="#fff"/>
    <path id="Path_4496" data-name="Path 4496" d="M16.029,66.873a5.512,5.512,0,0,1-5.387-6.756L21.681,12.281a5.516,5.516,0,1,1,10.752,2.473L21.394,62.59A5.509,5.509,0,0,1,16.029,66.873Z" transform="translate(62.739 50.876)" fill="#fff"/>
    <path id="Path_4497" data-name="Path 4497" d="M20.022,53.154a5.52,5.52,0,0,1-3.694-9.626L30.171,31.076,16.328,18.624a5.524,5.524,0,1,1,7.389-8.213l18.4,16.558a5.532,5.532,0,0,1,0,8.213l-18.4,16.558a5.51,5.51,0,0,1-3.694,1.413Z" transform="translate(88.176 57.236)" fill="#fff"/>
    <path id="Path_4498" data-name="Path 4498" d="M29.418,53.158a5.51,5.51,0,0,1-3.694-1.413L7.325,35.187a5.532,5.532,0,0,1,0-8.213l18.4-16.558a5.524,5.524,0,0,1,7.389,8.213L19.269,31.081,33.112,43.533a5.52,5.52,0,0,1-3.694,9.626Z" transform="translate(30.945 57.231)" fill="#fff"/>
  </g>
</svg>
