<svg id="strategy_1_" data-name="strategy (1)" xmlns="http://www.w3.org/2000/svg" width="51.776" height="51.776" viewBox="0 0 51.776 51.776">
  <path id="Path_1252" data-name="Path 1252" d="M2.173,48.873l2.29,3.053L2.07,57.507a.862.862,0,0,0,1.208,1.1l17.259-9.492a.862.862,0,0,0,0-1.512L3.278,38.107A.863.863,0,0,0,2.07,39.2l2.392,5.582-2.29,3.053a.863.863,0,0,0,0,1.036Zm3.9,3.674,8.1-1.906-9.53,5.242Zm8.1-6.479-8.1-1.906L4.644,40.827Zm-8.371-.2,10.55,2.482L5.8,50.837,3.942,48.355Z" transform="translate(-2 -6.934)" fill="#3a404a"/>
  <path id="Path_1253" data-name="Path 1253" d="M41.066,2A13.813,13.813,0,0,0,27.3,14.944H25.027l-2.336-2.336-1.22,1.22,1.116,1.116H19.061a9.061,9.061,0,0,0,0,18.122h9.566L30.963,35.4l1.22-1.22-1.116-1.116h16.47a4.746,4.746,0,1,1,0,9.492H39.7l-2.336-2.336-1.22,1.22,1.116,1.116H23.807v1.726h13.45L36.141,45.4l1.22,1.22L39.7,44.284h7.841a6.472,6.472,0,1,0,0-12.944H31.068l1.116-1.116L30.963,29,28.627,31.34H19.061a7.335,7.335,0,0,1,0-14.67h3.526l-1.116,1.116,1.22,1.22,2.336-2.336H27.3A13.8,13.8,0,1,0,41.066,2Zm0,25.888A12.088,12.088,0,0,1,29.028,16.67h2.589a9.492,9.492,0,1,0,0-1.726H29.028A12.075,12.075,0,1,1,41.066,27.888Zm-1.979-8.882,2.589-2.589a.863.863,0,0,0,0-1.22l-2.589-2.589-1.22,1.22,1.116,1.116H33.35a7.766,7.766,0,1,1,0,1.726h5.632l-1.116,1.116Z" transform="translate(-3.097 -2)" fill="#3a404a"/>
  <path id="Path_1254" data-name="Path 1254" d="M51.178,17.178A5.183,5.183,0,0,0,46,12v1.726a3.452,3.452,0,1,1,0,6.9v1.726A5.183,5.183,0,0,0,51.178,17.178Z" transform="translate(-8.031 -3.371)" fill="#3a404a"/>
</svg>
