<svg xmlns="http://www.w3.org/2000/svg" width="25.51" height="27.669" viewBox="0 0 25.51 27.669">
  <path id="structure" d="M27.993,2.561a.428.428,0,0,0-.033-.165.433.433,0,0,0-.234-.234.428.428,0,0,0-.165-.033h-16V.416a.431.431,0,0,0-.271-.4A.438.438,0,0,0,11.2,0a.4.4,0,0,0-.072-.014H5.508a.428.428,0,0,0-.165.033A.435.435,0,0,0,5.2.111L2.61,2.7a.445.445,0,0,0-.127.306V8.624a.432.432,0,0,0,.432.432H5.089v4.153L2.67,15.622a.425.425,0,0,0-.187.347s0,.006,0,.009,0,.006,0,.01h0V27.221a.432.432,0,0,0,.432.432H19.768a.437.437,0,0,0,.306-.127l2.592-2.592,0-.006,0,0,2.592-2.592,0,0,0,0,2.592-2.592a.437.437,0,0,0,.127-.306V8.627a.061.061,0,0,0,0-.01.1.1,0,0,0,0-.01V2.561ZM5.7,13.821H8.1v1.716H3.98ZM5.687.848H10.08L8.351,2.577H3.959Zm3.276,2.34,1.731-1.731V2.537c0,.008,0,.015,0,.023s0,.015,0,.023V5.852L9.1,7.445l-.026.026-.113.113v-4.4Zm2.468,3.15a.437.437,0,0,0,.127-.306V5.593h1.12L10.942,7.329h-.5ZM16.5,2.993h4.39L19.155,4.729H14.764Zm10.016,0L24.781,4.729h-4.4l1.736-1.736Zm.611,10.638-1.735,1.735V11.228a.061.061,0,0,0,0-.01.1.1,0,0,0,0-.01v-.254l1.735-1.735ZM8.961,15.537V10.785h4.75v4.751H8.961ZM13.9,5.593h4.393L16.556,7.329H12.164Zm6.3,4.939L21.929,8.8V13.2L20.2,14.926ZM22.793,7.94,24.529,6.2V10.6l-1.735,1.735Zm-.611-.611h-4.4l1.735-1.735h4.4Zm-5.268.864h4.4L19.59,9.921h-4.4Zm-2.329,2.593h4.75v4.751h-4.75ZM20.2,16.148l1.729-1.729v4.412L20.2,20.559Zm2.593-2.594,1.735-1.735v4.412l-1.735,1.735ZM27.128,8,25.393,9.732V5.339L27.128,3.6Zm-15.828.2h4.393L13.964,9.921H9.572ZM3.348,16.4H8.1V21.17H3.348Zm5.615,0h4.748V21.17H8.963Zm5.623,0h4.75V21.17h-4.75Zm5.615,5.38,1.729-1.729v4.4L20.2,26.179Zm2.593-2.593,1.735-1.735v4.4l-1.735,1.735Zm2.6-2.6,1.735-1.735v4.4l-1.735,1.735ZM15.279,2.993,13.543,4.729H11.558V2.993ZM3.348,3.441H8.1V8.192H3.348Zm5.18,5.615h0a.431.431,0,0,0,.306-.127l.738-.738h.5L8.223,10.048a.437.437,0,0,0-.127.306v2.6H5.954v-3.9ZM3.348,22.035H8.1V26.79H3.348ZM8.963,26.79V22.035h4.748V26.79Zm5.623-4.755h4.75V26.79h-4.75Z" transform="translate(-2.483 0.016)" fill="#3a404a"/>
</svg>
