<svg xmlns="http://www.w3.org/2000/svg" width="71.28" height="418.915" viewBox="0 0 71.28 418.915">
  <path id="about-us-title-pic" d="M50.9,0,45.3-16.937H20.93L15.238,0H3.259l23.5-66.231H40.069L63.615,0ZM32.771-53.609,23.684-26.3H42.548l-9-27.31ZM101.711.826A18.9,18.9,0,0,1,92.3-1.492,15.477,15.477,0,0,1,86.014-7.94h-.78V0H74.264V-69.628H85.646v27.4h.78a14.745,14.745,0,0,1,6.059-6.449,18.081,18.081,0,0,1,9.226-2.364q9.547,0,15.078,6.954t5.531,18.979q0,11.979-5.554,18.956T101.711.826Zm5.577-37.843a10.905,10.905,0,0,0-9.157-4.337,11.112,11.112,0,0,0-9.249,4.383q-3.419,4.383-3.419,11.865,0,7.527,3.419,11.888a11.134,11.134,0,0,0,9.249,4.36,10.905,10.905,0,0,0,9.157-4.337q3.328-4.337,3.328-11.911T107.288-37.017Zm38.9,24.143a10.861,10.861,0,0,0,9.226,4.337,10.8,10.8,0,0,0,9.2-4.337q3.236-4.337,3.236-12.232,0-7.849-3.259-12.209a10.793,10.793,0,0,0-9.18-4.36,10.84,10.84,0,0,0-9.226,4.36q-3.259,4.36-3.259,12.209Q142.928-17.212,146.187-12.875ZM155.412,1.01q-11.291,0-17.717-6.954T131.27-25.106q0-12.117,6.472-19.117t17.671-7q11.245,0,17.694,6.977t6.449,19.14q0,12.209-6.449,19.163T155.412,1.01Zm79.313-51.223V0h-10.97V-7.986h-.78q-3.81,9-15.009,9-8.216,0-12.806-4.888t-4.59-13.7V-50.213h11.383v29.788q0,5.783,2.433,8.606T211.913-9q5.508,0,8.468-3.167t2.96-8.812V-50.213Zm17.579-12.3h11.337v12.622h10.74V-40.8h-10.74v24.647q0,3.718,1.652,5.439T270.525-9q1.561,0,3.855-.229v8.9a31.351,31.351,0,0,1-5.967.551q-8.629,0-12.37-3.167T252.3-13.4V-40.8h-7.94v-9.088h7.94ZM324-66.231v42.318q0,6.839,4.085,10.9T339.419-8.95q7.252,0,11.314-4.062t4.062-10.9V-66.231h11.842v43.42q0,10.97-7.39,17.717T339.419,1.652q-12.438,0-19.828-6.747T312.2-22.812v-43.42Zm56.776,30.385a13.352,13.352,0,0,1,5.6-11.084q5.6-4.292,14.5-4.292,8.95,0,14.3,3.787a13.852,13.852,0,0,1,5.944,10.625H410.424a6.679,6.679,0,0,0-3.1-4.246,11.914,11.914,0,0,0-6.4-1.538,11.594,11.594,0,0,0-6.518,1.7,5.1,5.1,0,0,0-2.57,4.406A4.21,4.21,0,0,0,393.648-33a15.02,15.02,0,0,0,5.623,2.249l8.858,2.02q7.252,1.652,10.648,4.911a11.581,11.581,0,0,1,3.4,8.767,13.82,13.82,0,0,1-5.967,11.635Q410.24,1.01,400.785,1.01q-9.409,0-15.032-3.855a13.957,13.957,0,0,1-6.265-10.694h11.245A7.268,7.268,0,0,0,394.2-9.157a13.524,13.524,0,0,0,6.862,1.538,12.9,12.9,0,0,0,7.022-1.721,5.178,5.178,0,0,0,2.708-4.521q0-4.177-6.931-5.691l-8.9-2.065q-7.252-1.652-10.717-5.118A12.319,12.319,0,0,1,380.773-35.847Z" transform="translate(1.652 -3.259) rotate(90)" fill="#fff" opacity="0.3"/>
</svg>
