<svg xmlns="http://www.w3.org/2000/svg" width="178.599" height="48.859" viewBox="0 0 178.599 48.859">
  <path id="asus" d="M168.311,3.028h-.844V4.647h.844a2.033,2.033,0,0,0,1-.179.662.662,0,0,0,.288-.607.7.7,0,0,0-.3-.638,1.9,1.9,0,0,0-.986-.195ZM16.223,46.34V37.263H17.8V40.52a4.266,4.266,0,0,1,2.79-.9,5.076,5.076,0,0,1,1.8.289,2.138,2.138,0,0,1,1.093.794,2.73,2.73,0,0,1,.329,1.473v4.167H22.229V42.172a1.415,1.415,0,0,0-.512-1.215,2.4,2.4,0,0,0-1.452-.383,3.409,3.409,0,0,0-1.32.258,1.751,1.751,0,0,0-.88.7,2.35,2.35,0,0,0-.263,1.213v3.6H16.223Zm13.436-1,.228.985a8.3,8.3,0,0,1-1.192.1,3.653,3.653,0,0,1-1.335-.193,1.332,1.332,0,0,1-.665-.5,2.879,2.879,0,0,1-.194-1.315V40.632H25.342v-.867H26.5V38.136l1.571-.668v2.3h1.587v.867H28.073v3.844a1.437,1.437,0,0,0,.081.613.581.581,0,0,0,.273.218,1.432,1.432,0,0,0,.538.08c.177,0,.408-.015.695-.044Zm4.991,0,.228.985a8.305,8.305,0,0,1-1.192.1,3.654,3.654,0,0,1-1.335-.193,1.335,1.335,0,0,1-.665-.5,2.879,2.879,0,0,1-.194-1.315V40.632H30.333v-.867h1.159V38.136l1.571-.668v2.3H34.65v.867H33.063v3.844a1.437,1.437,0,0,0,.081.613.582.582,0,0,0,.272.218,1.434,1.434,0,0,0,.539.08c.177,0,.408-.015.7-.044ZM36.2,48.859V39.765h1.437v.854a3.361,3.361,0,0,1,1.15-.752,4.243,4.243,0,0,1,1.551-.252,4.863,4.863,0,0,1,2.1.434,3.061,3.061,0,0,1,1.377,1.224,3.45,3.45,0,0,1-.048,3.548,3.261,3.261,0,0,1-1.49,1.238,5.08,5.08,0,0,1-2.057.429,4.014,4.014,0,0,1-1.416-.235,3.238,3.238,0,0,1-1.03-.594v3.2H36.2Zm1.428-5.769a2.309,2.309,0,0,0,.728,1.876,2.67,2.67,0,0,0,1.763.607,2.708,2.708,0,0,0,1.8-.63A2.4,2.4,0,0,0,42.668,43a2.341,2.341,0,0,0-.733-1.883,2.608,2.608,0,0,0-1.749-.626,2.668,2.668,0,0,0-1.788.666,2.41,2.41,0,0,0-.775,1.935Zm9-2.056V39.765h1.8v1.268Zm0,5.306V45.07h1.8v1.27Zm3.368.154,3.727-9.385h1.264l-3.719,9.385Zm4.991,0,3.727-9.385h1.264l-3.719,9.385Zm7.895-.154-2.85-6.574h1.632l1.482,3.8.551,1.412c.024-.072.186-.524.482-1.357l1.482-3.851h1.622l1.4,3.812.467,1.258.532-1.27,1.6-3.8H72.8L69.89,46.34H68.253L66.771,42.4l-.362-1.122-1.883,5.059H62.877Zm12.972,0L73,39.765H74.63l1.482,3.8.551,1.412c.024-.072.186-.524.482-1.357l1.482-3.851h1.622l1.4,3.812.467,1.258.533-1.27,1.6-3.8h1.536L82.862,46.34H81.225L79.743,42.4l-.362-1.122L77.5,46.339H75.849Zm12.972,0-2.85-6.574H87.6l1.482,3.8.551,1.412c.024-.072.186-.524.482-1.357L91.6,39.765h1.622l1.4,3.812.467,1.258.532-1.27,1.6-3.8h1.536L95.834,46.34H94.2L92.715,42.4l-.362-1.122L90.47,46.339H88.82Zm10.709,0V45.07h1.8v1.27Zm10.622-.812a6.191,6.191,0,0,1-3.431.96,4.372,4.372,0,0,1-2.359-.529,1.57,1.57,0,0,1-.824-1.352,1.391,1.391,0,0,1,.311-.883,2.226,2.226,0,0,1,.814-.64,4.785,4.785,0,0,1,1.138-.366c.308-.057.775-.114,1.4-.167a19.672,19.672,0,0,0,2.818-.385c.006-.152.009-.249.009-.289a1.035,1.035,0,0,0-.45-.96,3.417,3.417,0,0,0-1.8-.378,3.741,3.741,0,0,0-1.646.275,1.691,1.691,0,0,0-.785.976l-1.542-.15a2.412,2.412,0,0,1,.692-1.129,3.279,3.279,0,0,1,1.4-.663,8.605,8.605,0,0,1,2.113-.233,7.788,7.788,0,0,1,1.937.2,2.844,2.844,0,0,1,1.1.5,1.6,1.6,0,0,1,.491.759,4.547,4.547,0,0,1,.078,1.027v1.485a10.988,10.988,0,0,0,.1,1.966,2.055,2.055,0,0,0,.4.79h-1.65a1.868,1.868,0,0,1-.313-.812Zm-.132-2.489a15.624,15.624,0,0,1-2.578.423,8.015,8.015,0,0,0-1.377.222,1.349,1.349,0,0,0-.623.363.763.763,0,0,0-.222.529.871.871,0,0,0,.479.744,2.69,2.69,0,0,0,1.4.3,4.367,4.367,0,0,0,1.623-.281,2.2,2.2,0,0,0,1.045-.771,2,2,0,0,0,.255-1.114v-.411h0Zm3.413,1.338,1.56-.173a1.467,1.467,0,0,0,.733,1.017,3.329,3.329,0,0,0,1.68.353,3.26,3.26,0,0,0,1.613-.313.887.887,0,0,0,.527-.734.665.665,0,0,0-.467-.6,8.856,8.856,0,0,0-1.613-.376,19.183,19.183,0,0,1-2.407-.537,2.274,2.274,0,0,1-1.018-.625,1.293,1.293,0,0,1-.059-1.7,2.174,2.174,0,0,1,.775-.624,4.035,4.035,0,0,1,1-.325,6.642,6.642,0,0,1,1.365-.133,7.5,7.5,0,0,1,1.925.224,2.79,2.79,0,0,1,1.224.6,2.015,2.015,0,0,1,.542,1.019l-1.542.15a1.171,1.171,0,0,0-.611-.792,2.919,2.919,0,0,0-1.425-.286,3.456,3.456,0,0,0-1.551.254c-.311.169-.467.368-.467.594a.517.517,0,0,0,.2.391,1.5,1.5,0,0,0,.6.3c.159.04.623.135,1.4.283q1.674.317,2.335.518a2.4,2.4,0,0,1,1.042.585,1.305,1.305,0,0,1,.377.953,1.53,1.53,0,0,1-.461,1.05,3.012,3.012,0,0,1-1.329.761,6.609,6.609,0,0,1-1.963.268,5.781,5.781,0,0,1-2.769-.532,2.4,2.4,0,0,1-1.214-1.578ZM129.15,46.34v-.966a3.945,3.945,0,0,1-2.958,1.114,5.156,5.156,0,0,1-1.539-.222,2.626,2.626,0,0,1-1.06-.56,1.817,1.817,0,0,1-.488-.826,4.137,4.137,0,0,1-.1-1.042V39.765h1.578v3.645a4.743,4.743,0,0,0,.1,1.177,1.237,1.237,0,0,0,.631.691,2.588,2.588,0,0,0,1.195.249,3.469,3.469,0,0,0,1.332-.255,1.732,1.732,0,0,0,.88-.7,2.57,2.57,0,0,0,.26-1.285V39.765h1.578V46.34h-1.41Zm3.254-1.963,1.56-.173a1.469,1.469,0,0,0,.733,1.017,3.329,3.329,0,0,0,1.68.353,3.26,3.26,0,0,0,1.613-.313.887.887,0,0,0,.527-.734.666.666,0,0,0-.467-.6,8.87,8.87,0,0,0-1.613-.376,19.212,19.212,0,0,1-2.407-.537,2.272,2.272,0,0,1-1.018-.625,1.294,1.294,0,0,1-.06-1.7,2.174,2.174,0,0,1,.775-.624,4.044,4.044,0,0,1,1-.325,6.642,6.642,0,0,1,1.365-.133,7.5,7.5,0,0,1,1.925.224,2.79,2.79,0,0,1,1.224.6,2.015,2.015,0,0,1,.542,1.019l-1.542.15a1.171,1.171,0,0,0-.611-.792,2.922,2.922,0,0,0-1.425-.286,3.456,3.456,0,0,0-1.551.254c-.311.169-.467.368-.467.594a.517.517,0,0,0,.195.391,1.5,1.5,0,0,0,.6.3c.159.04.623.135,1.4.283q1.674.317,2.335.518a2.4,2.4,0,0,1,1.042.585,1.306,1.306,0,0,1,.377.953,1.531,1.531,0,0,1-.461,1.05,3.01,3.01,0,0,1-1.329.761,6.609,6.609,0,0,1-1.963.268,5.779,5.779,0,0,1-2.769-.532,2.4,2.4,0,0,1-1.214-1.578Zm10.06,1.963V45.07h1.8v1.27Zm10.622-2.409,1.551.143a2.7,2.7,0,0,1-1.3,1.773,4.846,4.846,0,0,1-2.575.64,4.95,4.95,0,0,1-3.072-.881,2.984,2.984,0,0,1-1.165-2.529,3.447,3.447,0,0,1,.5-1.864,3.03,3.03,0,0,1,1.523-1.2,6.055,6.055,0,0,1,2.222-.4,5.02,5.02,0,0,1,2.482.543,2.467,2.467,0,0,1,1.24,1.539l-1.536.167a1.771,1.771,0,0,0-.775-1,2.583,2.583,0,0,0-1.347-.334,2.981,2.981,0,0,0-1.94.6,2.309,2.309,0,0,0-.745,1.908,2.372,2.372,0,0,0,.721,1.928,2.835,2.835,0,0,0,1.877.6,2.8,2.8,0,0,0,1.551-.4,1.814,1.814,0,0,0,.79-1.238Zm2.315-.879a2.947,2.947,0,0,1,1.44-2.705,5.539,5.539,0,0,1,2.928-.731,5.189,5.189,0,0,1,3.141.89,2.863,2.863,0,0,1,1.218,2.454,3.289,3.289,0,0,1-.539,2,3.457,3.457,0,0,1-1.569,1.131,6.147,6.147,0,0,1-2.252.4,5.209,5.209,0,0,1-3.161-.886,2.966,2.966,0,0,1-1.206-2.55Zm1.623,0a2.279,2.279,0,0,0,.782,1.891,3.362,3.362,0,0,0,3.922,0,2.334,2.334,0,0,0,.778-1.925,2.225,2.225,0,0,0-.784-1.849,3.373,3.373,0,0,0-3.916,0A2.269,2.269,0,0,0,157.023,43.052Zm8.957,3.288V39.765h1.41v.922a3.118,3.118,0,0,1,1.168-.776,4.4,4.4,0,0,1,1.658-.3,4.07,4.07,0,0,1,1.695.3,1.842,1.842,0,0,1,.934.847,3.818,3.818,0,0,1,2.877-1.151,3.58,3.58,0,0,1,2.132.543,1.923,1.923,0,0,1,.746,1.667V46.34h-1.569V42.2a2.219,2.219,0,0,0-.153-.964,1.129,1.129,0,0,0-.557-.474,2.35,2.35,0,0,0-.949-.179,2.744,2.744,0,0,0-1.632.463,1.687,1.687,0,0,0-.649,1.475v3.82h-1.578V42.069a1.479,1.479,0,0,0-.386-1.116,1.779,1.779,0,0,0-1.263-.372,3.006,3.006,0,0,0-1.23.249,1.621,1.621,0,0,0-.82.723,2.972,2.972,0,0,0-.255,1.376V46.34H165.98ZM156.448,14.1c10,2.951,9.8,19.593-3.65,19.558l-30.822-.079.031-9.036,31.446.205c2.272.015,2.013-3.432,0-3.632-8.409-.836-14.824-1.176-23.233-2.013a9.152,9.152,0,0,1-7.857-7.127L156.448,14.1ZM82.295,0h9.03V8.763h-9.03Zm9.03,10.043V21.92c0,1.647.982,3,2.184,3h16.705c1.2,0,2.184-1.35,2.184-3V11.357l8.946.558v12.9c0,4.227-4.15,8.845-8.6,8.845H90.892c-4.449,0-8.6-4.359-8.6-8.593V9.481l9.03.563ZM112.4,8.763V0h8.946V8.763H112.4ZM11.325,33.452l15.262-23.16-4.48-.374L15.9,9.4,0,33.447ZM27.594,8.763H40.5L40.551,0l-15.1.006a5.856,5.856,0,0,0-5.235,2.853l-3.9,5.9H27.594Zm3.536,1.909V33.661h9.229l.127-22.207-2.533-.212-6.823-.571Zm50.247,8.895c2.574,5.908-.333,14.118-9.784,14.094l-30.822-.079.03-9.036,31.447.205c2.272.015,2.013-3.432,0-3.632-8.409-.836-14.824-1.176-23.233-2.013a9.155,9.155,0,0,1-7.946-7.6l33.659,2.814.15.014.091.01.088.011.017,0,.094.013.019,0,.116.019h.009l.1.017h.007l.11.021.048.009.016,0,.138.031.008,0,.128.031h0l.064.016q.124.033.245.07l.059.018.076.025a6.437,6.437,0,0,1,1.066.462h0q.155.085.307.178l.072.045.024.015.053.035q.167.108.328.225c.059.043.117.087.174.132l.052.04q.2.156.387.326l.007.006.1.091.011.009.087.082.008.007q.161.155.314.317.109.115.215.234l1.859,2.726Zm-1.256-1.983.111.151,0,0c.051.071.1.142.152.214l-.267-.369Zm.9,1.364c.044.074.088.149.131.225l.006.011.011.019c.069.121.136.242.2.364ZM48.944,0H80.849V8.763H41.005V7.581C41.005,5,45.653,0,48.944,0Zm81.206,0h31.906V8.763H122.211V7.581c0-2.58,4.647-7.58,7.938-7.58Zm38.289,2.569a2.584,2.584,0,0,1,1.407.3,1.05,1.05,0,0,1,.455.94,1.146,1.146,0,0,1-.288.794,1.232,1.232,0,0,1-.774.39l1,2.077h-.774L168.519,5.1h-1.052V7.076h-.678V2.569h1.649ZM171.808,4.9a3.561,3.561,0,0,0-.257-1.349,3.33,3.33,0,0,0-.736-1.119A3.54,3.54,0,0,0,167,1.665a3.433,3.433,0,0,0-1.113.747,3.719,3.719,0,0,0-.776,1.153,3.4,3.4,0,0,0-.006,2.643,3.545,3.545,0,0,0,.761,1.13A3.5,3.5,0,0,0,167,8.1a3.366,3.366,0,0,0,1.319.264,3.483,3.483,0,0,0,1.338-.266,3.639,3.639,0,0,0,1.155-.769,3.221,3.221,0,0,0,.74-1.09,3.461,3.461,0,0,0,.253-1.336ZM168.322.973a3.986,3.986,0,0,1,1.524.293,3.917,3.917,0,0,1,2.1,2.112,3.927,3.927,0,0,1,.291,1.507,3.915,3.915,0,0,1-.286,1.5,3.649,3.649,0,0,1-.84,1.243,4.023,4.023,0,0,1-1.292.867,3.835,3.835,0,0,1-4.25-.856,3.861,3.861,0,0,1-.846-4.246,4.018,4.018,0,0,1,.868-1.3,3.69,3.69,0,0,1,1.237-.838,3.9,3.9,0,0,1,1.5-.288Z" fill="#d6d6d6" fill-rule="evenodd"/>
</svg>
