<svg xmlns="http://www.w3.org/2000/svg" width="97.656" height="47.471" viewBox="0 0 97.656 47.471">
  <path id="fujitsu-2" d="M27.515,33.215a4.135,4.135,0,1,1-8.269,0V18.959a3.2,3.2,0,0,1,.855-2.421h-5.56a3.222,3.222,0,0,1,1,2.424v13.4a7.461,7.461,0,0,0,7.841,7.413,7.493,7.493,0,0,0,7.841-7.413V18.959a2.944,2.944,0,0,1,1-2.424h-5.56a3.575,3.575,0,0,1,.855,2.424ZM5.56,39.49A3.325,3.325,0,0,1,4.7,37.064V27.94H9.552a3.286,3.286,0,0,1,2.138.855l-.143-3.134H4.7V18.818h6.558a2.72,2.72,0,0,1,2.138.855l-.143-3.136H0a3.222,3.222,0,0,1,1,2.424V37.067a3.253,3.253,0,0,1-1,2.426H5.56Zm27.087,7.981c.261-.185,3.089-3.367,3.136-5.56V18.959a3.643,3.643,0,0,0-1-2.424h5.56a3.31,3.31,0,0,0-1,2.424V38.775C39.371,43.6,37.15,47.336,32.647,47.471Zm14.684-10.4a3.406,3.406,0,0,0,1,2.426h-5.56a3.984,3.984,0,0,0,1-2.566V18.959a3.7,3.7,0,0,0-1-2.421h5.56a3.263,3.263,0,0,0-1,2.424Zm7.413-20.529H60.3M41.344,2.424A5.743,5.743,0,0,1,46.048,0a6.211,6.211,0,0,1,6.13,6.13,6.2,6.2,0,0,1-6.13,6.13,7.318,7.318,0,0,1-3.564-1.141,13.466,13.466,0,0,1-2.851-2.994,3.079,3.079,0,0,0-2.424-1.141,3.279,3.279,0,0,0-3.279,3.279,3.382,3.382,0,0,0,3.279,3.279,5.485,5.485,0,0,0,3.707-2.281v2.281a4.89,4.89,0,0,1-3.707,1.568,4.8,4.8,0,0,1-4.847-4.847,4.912,4.912,0,0,1,4.847-4.99,4.816,4.816,0,0,1,3.564,1.711,10.686,10.686,0,0,0,2.851,2.851,4.4,4.4,0,0,0,6.843-3.7,4.365,4.365,0,0,0-4.419-4.419c-2.1,0-3.747,1.2-4.99,3.709l.285-3ZM93.094,33.215a4.143,4.143,0,0,1-4.134,4.134,4.213,4.213,0,0,1-4.277-4.134V18.959a3.354,3.354,0,0,1,1-2.424h-5.56a3.6,3.6,0,0,1,1,2.424v13.4c-.036,4.348,3.464,7.444,7.841,7.413a7.341,7.341,0,0,0,7.7-7.413v-13.4a3.744,3.744,0,0,1,1-2.424H92.1a3.24,3.24,0,0,1,1,2.424V33.215ZM49.47,19.816a3.194,3.194,0,0,1,3.136-1h3.136V36.924a3.568,3.568,0,0,1-1,2.566H60.3a3.8,3.8,0,0,1-1-2.426V18.818H62.3c.953-.059,1.761-.159,2.281,1l1-3.279H50.468l-1,3.279m27.8,0V16.537c-1.849-.506-10.129-1.868-11.69,4.562a6.542,6.542,0,0,0,3.564,6.843c1.936.915,4.46,2.329,5.275,2.851,1.307.789,1.544,2.01,1.141,3.564-.39,1.72-4.581,5.455-9.979.713l1.141,3.992c3.35,1.309,8.753.8,11.263-2,2.438-2.756,2.034-6.845-.57-8.554-1.677-1.145-5.928-3.493-6.7-3.849-.644-.349-3.015-3.077-.428-5.56,2.55-2.447,6.2-1,6.986.713Z" fill="#d6d6d6"/>
</svg>
