<svg id="intel" xmlns="http://www.w3.org/2000/svg" width="78.756" height="51.936" viewBox="0 0 78.756 51.936">
  <path id="Path_4516" data-name="Path 4516" d="M37.41,46.3C21.848,47.733,5.627,45.472,3.355,33.31,2.244,27.314,4.979,20.956,8.6,17v-2.11C2.075,20.619-1.462,27.862.575,36.418c2.6,10.974,16.52,17.189,37.769,15.125,8.411-.815,19.411-3.519,27.063-7.723V37.854c-6.945,4.138-18.43,7.556-28,8.444Zm41-31.545C74.716-3.27,39.723-4.413,17.166,9.318v1.517C39.7-.749,71.656-.679,74.566,15.923c.976,5.492-2.117,11.213-7.644,14.508v4.308C73.571,32.3,80.39,24.413,78.407,14.752Z" transform="translate(0 0)" fill="#d6d6d6"/>
  <path id="Path_4517" data-name="Path 4517" d="M135.657,87.712h-4.08v18.173c0,2.13,1.03,3.982,4.08,4.278ZM87.071,94.347H82.983l0,11.873c0,2.137,1.033,3.987,4.09,4.278Zm-4.088-6.083h4.075v3.868H82.983Zm28.524,22.045a4.357,4.357,0,0,1-4.7-4.557V89.989h4.045v4.359H113.9v3.267h-3.046V105.5a1.255,1.255,0,0,0,1.4,1.436H113.9v3.371h-2.391m7.443-6.716a3.361,3.361,0,0,0,3.585,3.591,4.57,4.57,0,0,0,3.715-1.521l2.5,2.381a7.99,7.99,0,0,1-6.244,2.546c-3.871,0-7.58-2.113-7.58-8.272,0-5.265,3.241-8.242,7.49-8.242,4.32,0,6.8,3.484,6.8,8.058v1.459H118.951m3.288-6.172a3.105,3.105,0,0,0-2.9,1.675,4.181,4.181,0,0,0-.389,1.739h6.234C125.106,99.1,124.317,97.422,122.238,97.422Zm-24.182.192c1.186,0,1.679.586,1.679,1.538v11.181h4.046v-11.2c0-2.27-1.21-4.777-4.762-4.777l-8.357,0v15.987H94.71V97.614Zm41.99-6.655a1.624,1.624,0,1,1,1.63-1.624A1.616,1.616,0,0,1,140.047,90.959Zm0-2.977a1.35,1.35,0,1,0,1.357,1.353A1.364,1.364,0,0,0,140.047,87.983Zm.72,2.326h-.3a.068.068,0,0,1-.062-.041l-.41-.7a.122.122,0,0,0-.058-.032h-.188v.7a.071.071,0,0,1-.068.075H139.4a.074.074,0,0,1-.068-.075V88.48c0-.1.034-.145.124-.158s.355-.024.5-.024c.506,0,.8.149.8.618v.034a.492.492,0,0,1-.365.519l.427.727a.131.131,0,0,1,.011.051.058.058,0,0,1-.067.06Zm-.393-1.391c0-.2-.122-.258-.383-.258h-.258v.556c.041,0,.224.009.258.009.261,0,.383-.087.383-.273Z" transform="translate(-71.507 -75.584)" fill="#d6d6d6"/>
</svg>
