<svg xmlns="http://www.w3.org/2000/svg" width="222.021" height="39.631" viewBox="0 0 222.021 39.631">
  <g id="windows-10" transform="translate(0)">
    <path id="Path_4515" data-name="Path 4515" d="M18.109,3.15Q28.8,1.514,39.527.04q.007,9.392,0,18.779c-7.139.027-14.279.136-21.423.158Q18.1,11.059,18.109,3.15ZM0,5.676c5.369-.828,10.762-1.544,16.154-2.218q.007,7.789.009,15.574c-5.387,0-10.775.077-16.163.063Zm85.3.874c1.412-.9,3.219.978,2.395,2.39a1.724,1.724,0,0,1-2.68.67A1.837,1.837,0,0,1,85.3,6.55Zm36.992-.186q1.358-.007,2.716,0V31.713H122.3c0-.919-.014-1.839-.077-2.757a6.894,6.894,0,0,1-10.2,1.689c-2.141-1.843-2.793-4.84-2.68-7.552a9.673,9.673,0,0,1,3.119-7.474c2.848-2.345,7.9-2.209,9.847,1.236-.037-3.5,0-6.994-.019-10.489m-5.849,10.023a5.29,5.29,0,0,0-4.051,4.378c-.535,2.472-.44,5.333,1.118,7.434a4.792,4.792,0,0,0,7.2.172,6.875,6.875,0,0,0,1.585-4.817c.013-1.806.168-3.844-1.032-5.351A4.773,4.773,0,0,0,116.445,16.388Zm86.077-9.054c.239-.032.72-.1.955-.131q.02,12.251,0,24.51H200.8c.018-6.8-.046-13.6.031-20.4a18.739,18.739,0,0,1-5.555,2.753q.02-1.358.031-2.716a25.46,25.46,0,0,0,7.213-4.011Zm10.86-.009a6.509,6.509,0,0,1,6.366,2.467c1.987,2.807,2.173,6.406,2.273,9.725-.067,3.5-.453,7.3-2.689,10.159a6.763,6.763,0,0,1-9.041,1.349c-2.241-1.616-3.119-4.437-3.518-7.049a25.507,25.507,0,0,1,.937-11.653,7.154,7.154,0,0,1,5.672-5m-.416,2.431c-2.413.978-3.105,3.83-3.441,6.148a28.421,28.421,0,0,0,.335,9.747,5.5,5.5,0,0,0,2.748,3.916,3.91,3.91,0,0,0,5.044-1.616c1.48-2.557,1.517-5.627,1.535-8.5-.059-2.8-.172-5.818-1.72-8.253A3.749,3.749,0,0,0,212.966,9.755ZM51.588,7.714c1.019,0,2.037,0,3.06.018,1.59,5.741,3.156,11.49,4.749,17.235a24.1,24.1,0,0,1,.742,3.686C61.8,21.6,64.061,14.7,65.962,7.714c.883,0,1.766,0,2.649.009C70.01,12.7,71.318,17.7,72.7,22.676a40.525,40.525,0,0,1,1.381,5.989c1.5-7.04,3.635-13.939,5.333-20.933,1.005-.014,2.01-.014,3.015-.014-2.191,8.009-4.473,15.995-6.691,23.994H72.477c-1.607-5.745-3.2-11.5-4.826-17.231a14.714,14.714,0,0,1-.471-2.848,23.948,23.948,0,0,1-.458,2.476C65.079,19.96,63.413,25.8,61.815,31.658c-1.086.059-2.173.063-3.26.054q-3.5-11.993-6.967-24ZM94.647,17.28a6.507,6.507,0,0,1,8.095-2.757c2.322.905,3.187,3.594,3.26,5.885.126,3.766.023,7.537.054,11.3q-1.358,0-2.716,0c-.041-3.617.1-7.244-.064-10.861-.072-1.793-.833-3.948-2.784-4.405-2.848-.86-5.691,1.707-5.782,4.523-.081,3.581,0,7.167-.032,10.748H91.961q.007-8.6,0-17.2h2.721c0,.924-.009,1.847-.036,2.771Zm40.931-3.2c2.422-.213,5.106.168,6.927,1.92,2.055,1.9,2.667,4.844,2.553,7.538a9.249,9.249,0,0,1-2.7,6.569c-3.7,3.368-10.58,2.63-12.93-2-1.847-3.88-1.476-9.249,1.9-12.2a9.685,9.685,0,0,1,4.256-1.829m-.489,2.463c-3.989,1.227-4.664,6.438-3.419,9.865a5.553,5.553,0,0,0,7.633,2.97c1.879-.865,2.734-2.983,2.916-4.926.2-2.268.023-4.839-1.58-6.61a5.422,5.422,0,0,0-5.55-1.3Zm41.682-2.472a11.58,11.58,0,0,1,5.026.67c.443.842.1,1.947.2,2.893-1.906-1.191-4.532-1.951-6.6-.738a2.331,2.331,0,0,0-.1,3.893c1.978,1.281,4.491,1.616,6.248,3.264a4.54,4.54,0,0,1-.8,6.85,9.843,9.843,0,0,1-9.276.244c0-1.014,0-2.028-.023-3.042,2.055,1.566,4.944,2.436,7.4,1.322a2.343,2.343,0,0,0,.244-3.853c-1.978-1.458-4.69-1.689-6.447-3.509a4.476,4.476,0,0,1,.512-6.442,8.446,8.446,0,0,1,3.616-1.553Zm-92.052.439q1.358-.007,2.716,0v17.2H84.718Q84.718,23.109,84.718,14.514Zm61.471,0h2.834c1.123,4.1,2.21,8.2,3.355,12.3a12.629,12.629,0,0,1,.4,2.363c1.281-4.934,2.9-9.779,4.355-14.664l2.477.014c1.245,4.889,2.793,9.706,3.825,14.646,1.064-4.913,2.576-9.715,3.758-14.6.91-.045,1.82-.059,2.734-.068-1.725,5.736-3.377,11.49-5.111,17.217H162c-1.222-4.663-2.807-9.236-3.8-13.948-1.182,4.708-2.82,9.29-4.17,13.948H151.31c-1.7-5.736-3.441-11.459-5.12-17.2ZM0,20.729c5.383-.018,10.766.068,16.149.059,0,5.206.014,10.413,0,15.619C10.775,35.61,5.387,34.913,0,34.184Zm18.077.208h21.45q.014,9.365,0,18.734c-7.13-1.068-14.274-2.06-21.418-3.028q-.014-7.851-.032-15.705Z" transform="translate(0 -0.04)" fill="#d6d6d6"/>
  </g>
</svg>
