<svg xmlns="http://www.w3.org/2000/svg" width="114.379" height="30.811" viewBox="0 0 114.379 30.811">
  <g id="zagg" transform="translate(0)">
    <path id="Path_4518" data-name="Path 4518" d="M97.682,52.9c-.893,1.545-.163,2.81,1.622,2.81h10.212c1.784,0,2.514-1.265,1.623-2.81l-5.107-8.843c-.891-1.545-2.352-1.545-3.244,0Z" transform="translate(-73.521 -32.413)" fill="#d6d6d6"/>
    <path id="Path_4519" data-name="Path 4519" d="M49.193,30.831H56.17L40.508,2.889a4.255,4.255,0,0,0-3.935-2.1H32.456L49.193,30.831ZM1.018,6.14H15.675L.668,25.919a3.109,3.109,0,0,0-.357,3.272,3.11,3.11,0,0,0,2.824,1.694H19.2l3.086-5.294H7.937L22.981,5.716a3.11,3.11,0,0,0,.356-3.273A3.108,3.108,0,0,0,20.513.75H1.018ZM68.83,20.214h7.735a6.929,6.929,0,0,1-1.858,3.508,9.188,9.188,0,0,1-5.9,2.215H68.72A10.062,10.062,0,1,1,76.591,9.611l4.251-3.128A15.337,15.337,0,1,0,68.693,31.214h.112a14.432,14.432,0,0,0,9.545-3.673c2.5-2.418,3.766-5.771,3.766-9.966v-2.64H68.83v5.278Zm31.49,0h7.735a6.931,6.931,0,0,1-1.858,3.508,9.189,9.189,0,0,1-5.9,2.215h-.087a10.062,10.062,0,1,1,7.871-16.325l4.251-3.128a15.338,15.338,0,1,0-12.149,24.731h.112a14.432,14.432,0,0,0,9.545-3.673c2.5-2.418,3.766-5.771,3.766-9.966v-2.64H100.32v5.278h0Z" transform="translate(-0.001 -0.403)" fill="#d6d6d6"/>
    <g id="Group_1657" data-name="Group 1657" transform="translate(110.968 0)">
      <path id="Path_4520" data-name="Path 4520" d="M455.75,3.41A1.705,1.705,0,1,1,457.455,1.7,1.705,1.705,0,0,1,455.75,3.41ZM457.144,1.7A1.394,1.394,0,1,0,455.75,3.1,1.394,1.394,0,0,0,457.144,1.7Z" transform="translate(-454.044 0)" fill="#d6d6d6"/>
      <path id="Path_4521" data-name="Path 4521" d="M459.4,4.7l.4.583h-.417l-.346-.524h-.283v.524h-.359V3.654h.721c.389,0,.637.2.637.536A.5.5,0,0,1,459.4,4.7Zm-.3-.726h-.35v.477h.359c.181,0,.278-.1.278-.236C459.386,4.051,459.276,3.971,459.1,3.971Z" transform="translate(-457.328 -2.761)" fill="#d6d6d6"/>
    </g>
  </g>
</svg>
