<svg xmlns="http://www.w3.org/2000/svg" xmlns:xlink="http://www.w3.org/1999/xlink" width="450" height="319.377" viewBox="0 0 450 319.377">
  <defs>
    <filter id="Path_4499" x="55.902" y="0" width="394.098" height="319.377" filterUnits="userSpaceOnUse">
      <feOffset input="SourceAlpha"/>
      <feGaussianBlur stdDeviation="25" result="blur"/>
      <feFlood flood-opacity="0.102"/>
      <feComposite operator="in" in2="blur"/>
      <feComposite in="SourceGraphic"/>
    </filter>
    <filter id="Path_4501" x="0" y="3" width="189.152" height="224.832" filterUnits="userSpaceOnUse">
      <feOffset dx="10" dy="3" input="SourceAlpha"/>
      <feGaussianBlur stdDeviation="25" result="blur-2"/>
      <feFlood flood-opacity="0.161"/>
      <feComposite operator="in" in2="blur-2"/>
      <feComposite in="SourceGraphic"/>
    </filter>
  </defs>
  <g id="about-us-num" transform="translate(-1365 -1208)">
    <text id="About_Us" data-name="About Us" transform="translate(1430 1249)" fill="#232a35" font-size="39" font-family="SFUIText-Semibold, SF UI Text" font-weight="600"><tspan x="0" y="0">About Us</tspan></text>
    <g transform="matrix(1, 0, 0, 1, 1365, 1208)" filter="url(#Path_4499)">
      <path id="Path_4499-2" data-name="Path 4499" d="M84.315-31.793q-31.4,0-49.443-22.606t-18.04-62.472q0-39.644,18.1-61.971T84.315-201.17q31.292,0,49.388,22.327t18.1,62.083q0,39.644-18.1,62.305T84.315-31.793ZM65.329-77Q72.289-63.2,84.315-63.2T103.358-77q7.016-13.808,7.016-39.866,0-25.835-7.016-39.365t-19.042-13.53q-12.027,0-18.987,13.53t-6.96,39.365Q58.369-90.813,65.329-77ZM220.062-36.136V-159.967h-2.116L179.193-133.8v-35.189l40.869-27.84H260.93V-36.136Z" transform="translate(114.07 276.17)" fill="#fff"/>
    </g>
    <g transform="matrix(1, 0, 0, 1, 1365, 1208)" filter="url(#Path_4501)">
      <path id="Path_4501-2" data-name="Path 4501" d="M8387.933,2401.371v-38.187h-16.586V2346.6h16.586v-20.058H8348.78v74.832Z" transform="translate(-8283.78 -2251.54)" fill="#fff"/>
    </g>
  </g>
</svg>
