<svg id="artificial-intelligence_3_" data-name="artificial-intelligence (3)" xmlns="http://www.w3.org/2000/svg" width="66.76" height="66.76" viewBox="0 0 66.76 66.76">
  <g id="Group_1624" data-name="Group 1624" transform="translate(0 0)">
    <g id="Group_1623" data-name="Group 1623">
      <path id="Path_4411" data-name="Path 4411" d="M66.76,35.274a11.135,11.135,0,0,0-5.268-9.446,11.069,11.069,0,0,0,1.089-4.8c0-4.807-5.936-8.7-9.823-10.738a11.229,11.229,0,0,0-19.47-6.652A11.048,11.048,0,0,0,25.071,0,11.116,11.116,0,0,0,14,10.37c0,.01,0,.02,0,.031-.234.119-.518.269-.865.456a32.3,32.3,0,0,0-3.513,2.191c-3.608,2.612-5.438,5.3-5.438,7.985a11.069,11.069,0,0,0,1.089,4.8,11.1,11.1,0,0,0-.352,18.666A11.1,11.1,0,0,0,9.748,58.1c1.45,5.055,7.223,8.662,14.016,8.662a17.2,17.2,0,0,0,9.608-2.85,16.793,16.793,0,0,0,9.622,2.85c6.793,0,12.566-3.608,14.016-8.662a11.1,11.1,0,0,0,4.833-13.6A11.068,11.068,0,0,0,66.76,35.274ZM23.765,64.152c-5.744,0-10.738-3.1-11.617-7.2a1.3,1.3,0,0,0-.687-.891,8.462,8.462,0,0,1-4.3-5.075,7.755,7.755,0,0,0,3.488.819h0a7.967,7.967,0,0,0,4.964-1.776,1.3,1.3,0,1,0-1.654-2.016,5.22,5.22,0,0,1-7.127-.475,8.384,8.384,0,0,1,.9-2.969,1.3,1.3,0,0,0-.555-1.756,8.5,8.5,0,0,1,.41-15.273,1.3,1.3,0,0,0,.555-1.9,8.464,8.464,0,0,1-1.36-4.609c0-3.091,4.436-6.177,7.4-7.793a11.159,11.159,0,0,0,4.34,6.829,1.344,1.344,0,0,0,1.822-.282,1.3,1.3,0,0,0-.282-1.822A8.5,8.5,0,0,1,25.071,2.608a8.46,8.46,0,0,1,6.924,3.583v.132c-.005.86-.008,2.767,0,7.078H24.736a1.3,1.3,0,0,0-.922,2.226,5.237,5.237,0,0,1,0,7.4,5.349,5.349,0,0,1-7.389,0,1.3,1.3,0,1,0-1.844,1.844,7.977,7.977,0,0,0,.631.566l-3.3,3.39a4.577,4.577,0,0,0,.006,6.456,4.65,4.65,0,0,0,6.462,0,1.3,1.3,0,0,0-1.844-1.844,2.028,2.028,0,0,1-2.773,0,1.966,1.966,0,0,1,0-2.776l.012-.012,3.8-3.908c.044-.046,1.364.335,1.53.357a7.837,7.837,0,0,0,8.11-11.087h4.775c0,3.335.008,7.747.017,13.586H28.816v-.329a1.3,1.3,0,0,0-2.608,0v3.266a1.3,1.3,0,1,0,2.608,0V32.2h3.2c0,.617.01,6.422.013,8.629h-3.65a4.567,4.567,0,0,0-7.522-1.666A1.3,1.3,0,0,0,22.7,41.008c1.731-1.732,4.569.978,2.772,2.776a1.3,1.3,0,0,0,0,1.844,1.326,1.326,0,0,0,1.844,0,4.542,4.542,0,0,0,1.215-2.189h3.5c.005,3,.01,5.846.015,8.371H21.815a1.3,1.3,0,0,0-.922.382,4.577,4.577,0,0,0,0,6.463,4.677,4.677,0,0,0,6.461,0A1.3,1.3,0,0,0,25.51,56.81a2.027,2.027,0,0,1-2.773,0,1.967,1.967,0,0,1-.3-2.394H32.05c0,2.227.018,6.813.02,7.226A14.476,14.476,0,0,1,23.765,64.152ZM59.578,42.811a1.3,1.3,0,0,0-.555,1.756A8.5,8.5,0,0,1,55.3,56.059a1.3,1.3,0,0,0-.687.891c-.879,4.106-5.873,7.2-11.617,7.2a14.324,14.324,0,0,1-8.312-2.507l-.011-7.228h4.713a4.568,4.568,0,1,0,.153-2.608H34.669l-.012-8.371h12.11a4.57,4.57,0,1,0,0-2.608H34.652L34.64,32.2h2.855a4.57,4.57,0,1,0,0-2.608H34.636l-.02-13.586h3.809a4.573,4.573,0,1,0-.032-2.608h-3.78L34.6,6.179A8.6,8.6,0,0,1,50.179,11.1a1.4,1.4,0,0,0,.9,1.263c5.567,2.82,8.89,6.06,8.89,8.667,0,3.247-2.127,7.069-5.687,7.184a1.3,1.3,0,0,0,.04,2.608h.04a8.575,8.575,0,0,0,5.742-2.782,8.494,8.494,0,0,1-.531,14.77ZM41.871,53.37a1.961,1.961,0,1,1,1.961,1.963A1.964,1.964,0,0,1,41.871,53.37Zm7.313-11.236A1.961,1.961,0,1,1,51.145,44.1,1.964,1.964,0,0,1,49.184,42.134ZM39.912,30.9a1.961,1.961,0,1,1,1.961,1.963A1.964,1.964,0,0,1,39.912,30.9Zm.914-16.25a1.961,1.961,0,1,1,1.961,1.963A1.964,1.964,0,0,1,40.826,14.648Z" transform="translate(0 0)"/>
    </g>
  </g>
  <g id="Group_1626" data-name="Group 1626" transform="translate(15.854 43.223)">
    <g id="Group_1625" data-name="Group 1625">
      <path id="Path_4412" data-name="Path 4412" d="M123.006,331.5a1.3,1.3,0,0,0-1.41,1.188,1.3,1.3,0,0,0,1.188,1.411c.038,0,.074,0,.112,0a1.305,1.305,0,0,0,1.3-1.193s0,0,0,0A1.3,1.3,0,0,0,123.006,331.5Z" transform="translate(-121.592 -331.493)"/>
    </g>
  </g>
  <g id="Group_1628" data-name="Group 1628" transform="translate(48.287 26.388)">
    <g id="Group_1627" data-name="Group 1627">
      <path id="Path_4413" data-name="Path 4413" d="M372.539,202.746h0a1.3,1.3,0,0,0-1.812,1.875,0,0,0,0,0,0,0,1.3,1.3,0,0,0,1.812-1.875Z" transform="translate(-370.328 -202.38)"/>
    </g>
  </g>
</svg>
