<svg id="big-data" xmlns="http://www.w3.org/2000/svg" width="66.925" height="66.925" viewBox="0 0 66.925 66.925">
  <g id="XMLID_17_" transform="translate(0 0)">
    <path id="XMLID_848_" d="M62.707,16.923a14.531,14.531,0,0,0-9.145-4.3A16.4,16.4,0,0,0,24.449,6.6a13.764,13.764,0,0,0-8.509.008,1.307,1.307,0,1,0,.814,2.484,11.136,11.136,0,0,1,7.69.291,1.307,1.307,0,0,0,1.6-.494A13.787,13.787,0,0,1,51.194,14.1a1.307,1.307,0,0,0,1.271,1.09,12.015,12.015,0,0,1-.17,24.028H50.847V31.66c0-1.507-.967-3.649-5.576-5.3A36.352,36.352,0,0,0,33.463,24.6a36.352,36.352,0,0,0-11.809,1.761c-4.609,1.649-5.576,3.791-5.576,5.3v7.555H11A8.386,8.386,0,0,1,8.382,22.862a1.307,1.307,0,0,0,.882-1.45,11.207,11.207,0,0,1-.143-1.78A11.094,11.094,0,0,1,9.6,16.4a1.307,1.307,0,0,0-2.5-.761,13.705,13.705,0,0,0-.591,3.994c0,.377.016.756.047,1.134A11,11,0,0,0,11,41.829h5.077V59.867c0,1.507.967,3.649,5.576,5.3a36.352,36.352,0,0,0,11.809,1.761,36.352,36.352,0,0,0,11.809-1.761c4.609-1.649,5.576-3.791,5.576-5.3V41.829H52.3A14.629,14.629,0,0,0,62.707,16.923ZM48.233,41.063c0,.674-1.006,1.822-3.842,2.836a33.717,33.717,0,0,1-10.928,1.608A33.717,33.717,0,0,1,22.534,43.9c-2.836-1.015-3.842-2.162-3.842-2.836V35.553a14.549,14.549,0,0,0,2.962,1.4,36.352,36.352,0,0,0,11.809,1.761,36.352,36.352,0,0,0,11.809-1.761,14.552,14.552,0,0,0,2.962-1.4ZM18.692,44.955a14.549,14.549,0,0,0,2.962,1.4,36.352,36.352,0,0,0,11.809,1.761A36.352,36.352,0,0,0,45.271,46.36a14.553,14.553,0,0,0,2.962-1.4v5.509c0,.674-1.006,1.822-3.842,2.836a33.717,33.717,0,0,1-10.928,1.608A33.717,33.717,0,0,1,22.534,53.3c-2.836-1.014-3.842-2.162-3.842-2.836Zm3.842-16.131a33.714,33.714,0,0,1,10.928-1.608,33.714,33.714,0,0,1,10.928,1.608c2.836,1.014,3.842,2.162,3.842,2.836s-1.006,1.822-3.842,2.836A33.718,33.718,0,0,1,33.463,36.1,33.717,33.717,0,0,1,22.534,34.5c-2.836-1.015-3.842-2.162-3.842-2.836S19.7,29.839,22.534,28.824ZM44.391,62.7a33.718,33.718,0,0,1-10.928,1.608A33.718,33.718,0,0,1,22.534,62.7c-2.836-1.014-3.842-2.162-3.842-2.836V54.357a14.549,14.549,0,0,0,2.962,1.4,36.352,36.352,0,0,0,11.809,1.761,36.352,36.352,0,0,0,11.809-1.761,14.552,14.552,0,0,0,2.962-1.4v5.509c0,.674-1.006,1.822-3.842,2.836Z" transform="translate(0 0)"/>
    <path id="XMLID_893_" d="M78.167,76.473a1.308,1.308,0,1,0-.924-.383A1.316,1.316,0,0,0,78.167,76.473Z" transform="translate(-66.813 -64.205)"/>
  </g>
</svg>
