<svg id="business-consultancy" xmlns="http://www.w3.org/2000/svg" width="63.919" height="63.919" viewBox="0 0 63.919 63.919">
  <path id="Path_4471" data-name="Path 4471" d="M58.54,41.827a6.182,6.182,0,1,0-7.1.75,8.031,8.031,0,0,0-3.688,6.082l-.415,5.023H42.093a3.093,3.093,0,1,0,0,6.186h4.124V63.99H63.743V49.319A8.014,8.014,0,0,0,58.54,41.827Zm-4.075-8.765a4.124,4.124,0,1,1-4.124,4.124A4.128,4.128,0,0,1,54.464,33.062Zm7.217,28.867h-13.4V59.867h.358a5.128,5.128,0,0,0,5.133-4.688l.69-7.59L52.405,47.4l-.69,7.59A3.077,3.077,0,0,1,48.636,57.8H42.093a1.031,1.031,0,1,1,0-2.062h5.244a2.054,2.054,0,0,0,2.054-1.884l.417-5.031a5.947,5.947,0,0,1,11.873.491Z" transform="translate(0.176 -0.071)"/>
  <path id="Path_4472" data-name="Path 4472" d="M22.65,53.681l-5.243.008-.417-5.031A8.037,8.037,0,0,0,13.3,42.577a6.191,6.191,0,1,0-7.1-.75A8.014,8.014,0,0,0,1,49.319V63.99H18.526V59.867H22.65a3.093,3.093,0,0,0,0-6.186ZM10.279,33.062a4.124,4.124,0,1,1-4.124,4.124A4.128,4.128,0,0,1,10.279,33.062ZM22.65,57.8H16.107a3.077,3.077,0,0,1-3.079-2.812l-.69-7.59-2.054.187.69,7.59a5.128,5.128,0,0,0,5.133,4.688h.358v2.062H3.062V49.319a5.947,5.947,0,0,1,11.874-.491l.417,5.039a2.051,2.051,0,0,0,2.053,1.875H22.65a1.031,1.031,0,0,1,0,2.062Z" transform="translate(-1 -0.071)"/>
  <path id="Path_4473" data-name="Path 4473" d="M42.082,38.285c.107-.234.206-.469.295-.706l2.706-.74v-5.7l-2.706-.74c-.089-.236-.187-.472-.295-.706l1.392-2.439L41.838,25.62a3.012,3.012,0,0,0,.153-.908,3.081,3.081,0,0,0-1.62-2.7l2.517-5.033a11.131,11.131,0,0,0,1.08-3.605h1.563L49.207,19.5l3.4-5.67a.944.944,0,0,1,1.754.487v7.3h2.062v-7.3a3.006,3.006,0,0,0-5.584-1.546l-1.633,2.722L46.7,11.31H44.015A11.045,11.045,0,0,0,33.013,1h-.6a11.045,11.045,0,0,0-11,10.31H18.726l-2.509,4.182-1.633-2.722A3.006,3.006,0,0,0,9,14.316v7.3h2.062v-7.3a.944.944,0,0,1,1.754-.486l3.4,5.669,3.676-6.128h1.563a11.116,11.116,0,0,0,1.08,3.605l2.517,5.033a3.081,3.081,0,0,0-1.62,2.7,3.024,3.024,0,0,0,.153.909L21.95,27.257,23.342,29.7c-.107.234-.206.469-.295.706l-2.706.739v5.7l2.706.739c.089.237.188.472.295.706L21.95,40.724l4.029,4.029,2.439-1.392c.234.107.469.206.706.295l.739,2.706h5.7l.739-2.706c.237-.089.472-.188.706-.295l2.439,1.392,4.029-4.029ZM36.836,33.99a4.124,4.124,0,1,1-8.074-1.185,7.178,7.178,0,0,0,7.9,0A4.118,4.118,0,0,1,36.836,33.99Zm-10.31-10.31H38.9a1.031,1.031,0,0,1,0,2.062H26.526a1.031,1.031,0,0,1,0-2.062Zm6.186,8.248A5.164,5.164,0,0,1,27.661,27.8h10.1A5.164,5.164,0,0,1,32.712,31.929ZM23.433,12.039a8.987,8.987,0,0,1,8.978-8.978h.6a8.979,8.979,0,0,1,8.03,12.993L38.26,21.619H33.743v-5.3a4.124,4.124,0,1,0-2.062,0v5.3H27.163l-2.783-5.564A9.035,9.035,0,0,1,23.433,12.039ZM32.712,14.4a2.062,2.062,0,1,1,2.062-2.062A2.064,2.064,0,0,1,32.712,14.4ZM39.1,42.182l-2.04-1.164-.5.264a8.233,8.233,0,0,1-1.413.59l-.541.167L33.987,44.3H31.437l-.619-2.261-.541-.167a8.229,8.229,0,0,1-1.414-.59l-.5-.264-2.039,1.163-1.8-1.8,1.164-2.04-.264-.5a8.233,8.233,0,0,1-.59-1.413l-.167-.541-2.26-.617V32.715l2.261-.619.167-.541a8.229,8.229,0,0,1,.59-1.414l.264-.5L24.521,27.6l.309-.309a3.083,3.083,0,0,0,.722.339,7.181,7.181,0,0,0,1.576,3.706,6.186,6.186,0,1,0,11.167,0,7.185,7.185,0,0,0,1.577-3.706,3.1,3.1,0,0,0,.722-.339l.309.309-1.163,2.039.264.5a8.277,8.277,0,0,1,.59,1.414l.167.541,2.261.619v2.551l-2.261.618-.167.541A8.219,8.219,0,0,1,40,37.839l-.264.5L40.9,40.38Z" transform="translate(-0.752 -1)"/>
  <path id="Path_4474" data-name="Path 4474" d="M53,27h2.062v2.062H53Z" transform="translate(0.609 -0.195)"/>
  <path id="Path_4475" data-name="Path 4475" d="M53,23h2.062v2.062H53Z" transform="translate(0.609 -0.319)"/>
  <path id="Path_4476" data-name="Path 4476" d="M9,27h2.062v2.062H9Z" transform="translate(-0.752 -0.195)"/>
  <path id="Path_4477" data-name="Path 4477" d="M9,23h2.062v2.062H9Z" transform="translate(-0.752 -0.319)"/>
</svg>
