<svg xmlns="http://www.w3.org/2000/svg" width="122" height="122.181" viewBox="0 0 122 122.181">
  <g id="cyber-sec" transform="translate(-2 -2)">
    <path id="Path_4877" data-name="Path 4877" d="M27,11h4.067v4.067H27Z" transform="translate(25.833 9.3)" fill="#fff"/>
    <path id="Path_4878" data-name="Path 4878" d="M53,35h4.067v4.067H53Z" transform="translate(52.7 34.1)" fill="#fff"/>
    <path id="Path_4879" data-name="Path 4879" d="M35,51h4.067v4.067H35Z" transform="translate(34.1 50.633)" fill="#fff"/>
    <path id="Path_4880" data-name="Path 4880" d="M27,54h4.067v4.067H27Z" transform="translate(25.833 53.733)" fill="#fff"/>
    <path id="Path_4881" data-name="Path 4881" d="M11,31h4.067v4.067H11Z" transform="translate(9.3 29.967)" fill="#fff"/>
    <path id="Path_4882" data-name="Path 4882" d="M35,11h4.067v4.067H35Z" transform="translate(34.1 9.3)" fill="#fff"/>
    <path id="Path_4883" data-name="Path 4883" d="M51,27h4.067v4.067H51Z" transform="translate(50.633 25.833)" fill="#fff"/>
    <path id="Path_4884" data-name="Path 4884" d="M46,17h4.067v4.067H46Z" transform="translate(45.467 15.5)" fill="#fff"/>
    <path id="Path_4885" data-name="Path 4885" d="M16,17h4.067v4.067H16Z" transform="translate(14.467 15.5)" fill="#fff"/>
    <path id="Path_4886" data-name="Path 4886" d="M46,45h4.067v4.067H46Z" transform="translate(45.467 44.433)" fill="#fff"/>
    <path id="Path_4887" data-name="Path 4887" d="M16,45h4.067v4.067H16Z" transform="translate(14.467 44.433)" fill="#fff"/>
    <path id="Path_4888" data-name="Path 4888" d="M34.876,31a6.088,6.088,0,0,0-1.793,11.838V47.27H37.15V42.827A6.086,6.086,0,0,0,34.876,31Zm2.273,6.021a2.035,2.035,0,1,1-2.115-1.954h.081a2.033,2.033,0,0,1,2.033,1.952Z" transform="translate(27.884 29.964)" fill="#fff"/>
    <path id="Path_4889" data-name="Path 4889" d="M49.4,34.574V32.167a10.167,10.167,0,0,0-20.333,0v2.407A6.1,6.1,0,0,0,25,40.3V56.567a6.1,6.1,0,0,0,6.1,6.1H47.367a6.1,6.1,0,0,0,6.1-6.1V40.3A6.1,6.1,0,0,0,49.4,34.574ZM33.133,32.167a6.1,6.1,0,1,1,12.2,0V34.2h-12.2ZM49.4,56.567A2.033,2.033,0,0,1,47.367,58.6H31.1a2.033,2.033,0,0,1-2.033-2.033V40.3A2.033,2.033,0,0,1,31.1,38.267H47.367A2.033,2.033,0,0,1,49.4,40.3Z" transform="translate(23.767 20.667)" fill="#fff"/>
    <path id="Path_4890" data-name="Path 4890" d="M117.9,81.3a6,6,0,0,0-2.613.61l-4.677-4.677H91.467V73.167h10.167V69.1H91.467V65.033h10.647l11.564-5.783a6.088,6.088,0,1,0-1.877-4.384,5.9,5.9,0,0,0,.075.738l-10.722,5.362H91.467V56.9h6.1V52.833h-6.1V48.767h8.975l6.71-6.71a6,6,0,0,0,2.615.61,6.1,6.1,0,1,0-6.1-6.1,6,6,0,0,0,.61,2.613L98.758,44.7H91.467A10.179,10.179,0,0,0,81.3,34.533V29.275l11.62-11.618a6,6,0,0,0,2.613.61,6.1,6.1,0,1,0-6.1-6.1,6,6,0,0,0,.61,2.613l-12.81,12.81v6.944H73.167v-6.1H69.1v6.1H65.033V19.926a6.1,6.1,0,1,0-4.067,0V34.533H56.9v-6.1H52.833v6.1H48.767V19.458l-8.743-8.743a6,6,0,0,0,.61-2.615,6.1,6.1,0,1,0-6.1,6.1,6,6,0,0,0,2.613-.61L44.7,21.142V34.533A10.179,10.179,0,0,0,34.533,44.7H27.242L21.723,39.18a6,6,0,0,0,.61-2.613,6.1,6.1,0,1,0-6.1,6.1,6,6,0,0,0,2.613-.61l6.71,6.71h8.977v4.067H21.6L10.947,61.707a6,6,0,0,0-2.847-.74,6.1,6.1,0,1,0,5.618,3.725L23.069,56.9H34.533v4.067h-6.1v4.067h6.1V69.1h-18.3v4.067h18.3v4.067H23.279L15.084,89.523a6.035,6.035,0,0,0-.885-.089,6.157,6.157,0,1,0,4.494,2.009L25.454,81.3h9.079A10.179,10.179,0,0,0,44.7,91.467v13.392l-7.554,7.552a6,6,0,0,0-2.613-.61,6.1,6.1,0,1,0,6.1,6.1,6,6,0,0,0-.61-2.613l8.743-8.743V91.467h4.067v12.2H56.9v-12.2h4.067V108.86l12.35,7.727a6.189,6.189,0,1,0,2.174-3.438l-10.457-6.541V91.467H69.1v6.1h4.067v-6.1h4.067v16.267H91.841a6.1,6.1,0,1,0,0-4.067H81.3v-12.2A10.179,10.179,0,0,0,91.467,81.3h17.458l3.485,3.487a6,6,0,0,0-.61,2.613,6.1,6.1,0,1,0,6.1-6.1Zm0-28.467a2.033,2.033,0,1,1-2.033,2.033A2.033,2.033,0,0,1,117.9,52.833Zm-8.133-18.3a2.033,2.033,0,1,1-2.033,2.033A2.033,2.033,0,0,1,109.767,34.533Zm-14.233-24.4A2.033,2.033,0,1,1,93.5,12.167,2.033,2.033,0,0,1,95.533,10.133ZM63,12.167A2.033,2.033,0,1,1,60.967,14.2,2.033,2.033,0,0,1,63,12.167ZM32.5,8.1a2.033,2.033,0,1,1,2.033,2.033A2.033,2.033,0,0,1,32.5,8.1ZM14.2,36.567A2.033,2.033,0,1,1,16.233,38.6,2.033,2.033,0,0,1,14.2,36.567ZM8.1,69.1a2.033,2.033,0,1,1,2.033-2.033A2.033,2.033,0,0,1,8.1,69.1Zm6.1,28.467a2.033,2.033,0,1,1,2.033-2.033A2.033,2.033,0,0,1,14.2,97.567Zm20.333,22.367a2.033,2.033,0,1,1,2.033-2.033A2.033,2.033,0,0,1,34.533,119.933Zm44.733-4.067a2.033,2.033,0,1,1-2.033,2.033A2.033,2.033,0,0,1,79.267,115.867Zm18.3-12.2a2.033,2.033,0,1,1-2.033,2.033A2.033,2.033,0,0,1,97.567,103.667ZM87.4,81.3a6.1,6.1,0,0,1-6.1,6.1H44.7a6.1,6.1,0,0,1-6.1-6.1V44.7a6.1,6.1,0,0,1,6.1-6.1H81.3a6.1,6.1,0,0,1,6.1,6.1Zm30.5,8.133a2.033,2.033,0,1,1,2.033-2.033A2.033,2.033,0,0,1,117.9,89.433Z" transform="translate(0 0)" fill="#fff"/>
  </g>
</svg>
