<svg xmlns="http://www.w3.org/2000/svg" width="122" height="122" viewBox="0 0 122 122">
  <g id="data-analytics" transform="translate(-2 -1.998)">
    <path id="Path_4863" data-name="Path 4863" d="M121.963,2h-61a2.033,2.033,0,0,0-2.033,2.033V30.466H12.166A10.166,10.166,0,0,0,2,40.632V93.5a10.166,10.166,0,0,0,10.166,10.166h24.4V111.8H34.532a6.118,6.118,0,0,0-6.1,6.1v4.067A2.033,2.033,0,0,0,30.466,124h36.6a2.033,2.033,0,0,0,2.033-2.033V117.9a6.118,6.118,0,0,0-6.1-6.1H60.965v-8.133h24.4A10.166,10.166,0,0,0,95.531,93.5V54.865h26.433A2.033,2.033,0,0,0,124,52.832V4.033A2.033,2.033,0,0,0,121.963,2ZM63,115.864a2.033,2.033,0,0,1,2.033,2.033v2.033H32.5V117.9a2.033,2.033,0,0,1,2.033-2.033ZM40.632,111.8v-8.133H56.9V111.8ZM91.464,93.5a6.118,6.118,0,0,1-6.1,6.1h-73.2a6.118,6.118,0,0,1-6.1-6.1V91.464h85.4Zm0-6.1H6.067V40.632a6.118,6.118,0,0,1,6.1-6.1H58.932v18.3a2.033,2.033,0,0,0,2.033,2.033h30.5ZM119.93,50.8H63V6.067H119.93Z" transform="translate(0 0.002)" fill="#fff"/>
    <path id="Path_4864" data-name="Path 4864" d="M28.366,20A22.366,22.366,0,1,0,50.732,42.366,22.366,22.366,0,0,0,28.366,20Zm0,40.666a18.3,18.3,0,1,1,18.3-18.3A18.3,18.3,0,0,1,28.366,60.666Z" transform="translate(4.133 18.601)" fill="#fff"/>
    <path id="Path_4865" data-name="Path 4865" d="M20.1,31.1a2.033,2.033,0,0,1,2.033,2.033H26.2a6.1,6.1,0,0,0-4.067-5.726V25H18.067v2.407A6.086,6.086,0,0,0,20.1,39.233a2.033,2.033,0,1,1-2.033,2.033H14a6.1,6.1,0,0,0,4.067,5.726V49.4h4.067V46.992A6.086,6.086,0,0,0,20.1,35.166a2.033,2.033,0,1,1,0-4.067Z" transform="translate(12.399 23.767)" fill="#fff"/>
    <path id="Path_4866" data-name="Path 4866" d="M73.933,42.916l-10.166-12.2a2.1,2.1,0,0,0-3.131,0l-10.166,12.2a2.033,2.033,0,0,0,1.566,3.335H56.1V93.016a2.033,2.033,0,0,0,2.033,2.033h8.133A2.033,2.033,0,0,0,68.3,93.016V46.251h4.067a2.033,2.033,0,0,0,1.566-3.335Zm-7.665-.732a2.033,2.033,0,0,0-2.033,2.033V90.983H60.168V44.217a2.033,2.033,0,0,0-2.033-2.033H56.366L62.2,35.19l5.836,6.994Z" transform="translate(49.596 28.949)" fill="#fff"/>
    <path id="Path_4867" data-name="Path 4867" d="M54.133,12.636,41.934,2.469A2.033,2.033,0,0,0,38.6,4.035V8.1H4.033A2.033,2.033,0,0,0,2,10.135v8.133A2.033,2.033,0,0,0,4.033,20.3H38.6v4.067a2.033,2.033,0,0,0,1.179,1.85,2.08,2.08,0,0,0,.854.183,2.033,2.033,0,0,0,1.3-.468l12.2-10.166a2.033,2.033,0,0,0,0-3.131ZM42.666,20.017V18.268a2.033,2.033,0,0,0-2.033-2.033H6.067V12.168H40.632a2.033,2.033,0,0,0,2.033-2.033V8.386L49.66,14.2Z" transform="translate(0 0)" fill="#fff"/>
    <path id="Path_4868" data-name="Path 4868" d="M37.033,34.333h8.133A2.033,2.033,0,0,0,47.2,32.3V16.033A2.033,2.033,0,0,0,45.166,14H37.033A2.033,2.033,0,0,0,35,16.033V32.3A2.033,2.033,0,0,0,37.033,34.333Zm2.033-16.266h4.067v12.2H39.067Z" transform="translate(34.098 12.401)" fill="#fff"/>
    <path id="Path_4869" data-name="Path 4869" d="M45.033,38.466h8.133A2.033,2.033,0,0,0,55.2,36.433v-24.4A2.033,2.033,0,0,0,53.166,10H45.033A2.033,2.033,0,0,0,43,12.033v24.4A2.033,2.033,0,0,0,45.033,38.466Zm2.033-24.4h4.067V34.4H47.067Z" transform="translate(42.364 8.268)" fill="#fff"/>
    <path id="Path_4870" data-name="Path 4870" d="M53.033,42.6h8.133A2.033,2.033,0,0,0,63.2,40.566V8.033A2.033,2.033,0,0,0,61.166,6H53.033A2.033,2.033,0,0,0,51,8.033V40.566A2.033,2.033,0,0,0,53.033,42.6Zm2.033-32.532h4.067V38.532H55.067Z" transform="translate(50.631 4.135)" fill="#fff"/>
    <path id="Path_4871" data-name="Path 4871" d="M30,30h8.133v4.067H30Z" transform="translate(28.932 28.933)" fill="#fff"/>
    <path id="Path_4872" data-name="Path 4872" d="M36,30H48.2v4.067H36Z" transform="translate(35.131 28.933)" fill="#fff"/>
    <path id="Path_4873" data-name="Path 4873" d="M30,34h8.133v4.067H30Z" transform="translate(28.932 33.067)" fill="#fff"/>
    <path id="Path_4874" data-name="Path 4874" d="M36,34H48.2v4.067H36Z" transform="translate(35.131 33.067)" fill="#fff"/>
    <path id="Path_4875" data-name="Path 4875" d="M30,38h8.133v4.067H30Z" transform="translate(28.932 37.2)" fill="#fff"/>
    <path id="Path_4876" data-name="Path 4876" d="M36,38H48.2v4.067H36Z" transform="translate(35.131 37.2)" fill="#fff"/>
  </g>
</svg>
