<svg xmlns="http://www.w3.org/2000/svg" width="122" height="122" viewBox="0 0 122 122">
  <g id="e-commerece-solutions" transform="translate(-6 -6)">
    <g id="linear_color" data-name="linear color" transform="translate(6 6)">
      <path id="Path_4949" data-name="Path 4949" d="M121.656,6H12.344A6.351,6.351,0,0,0,6,12.344V98.232a6.351,6.351,0,0,0,6.344,6.344H55.452l-1.661,13.281a58.191,58.191,0,0,0-11.569,5.673A2.44,2.44,0,0,0,43.576,128H90.424a2.44,2.44,0,0,0,1.353-4.47,58.191,58.191,0,0,0-11.569-5.673l-1.661-13.281h43.108A6.351,6.351,0,0,0,128,98.232V12.344A6.351,6.351,0,0,0,121.656,6ZM12.344,10.88H121.656a1.465,1.465,0,0,1,1.464,1.464V80.176H10.88V12.344A1.465,1.465,0,0,1,12.344,10.88ZM55.288,123.12H53.7A36.732,36.732,0,0,1,67,120.192a36.734,36.734,0,0,1,13.288,2.928ZM75.1,116.327a32.823,32.823,0,0,0-16.2,0l1.468-11.751H73.63Zm48.019-18.1a1.465,1.465,0,0,1-1.464,1.464H12.344a1.465,1.465,0,0,1-1.464-1.464V85.056H123.12Z" transform="translate(-6 -6)" fill="#fff"/>
      <path id="Path_4950" data-name="Path 4950" d="M232.44,354.88h7.808a2.44,2.44,0,0,0,0-4.88H232.44a2.44,2.44,0,0,0,0,4.88Z" transform="translate(-175.344 -266.064)" fill="#fff"/>
      <path id="Path_4951" data-name="Path 4951" d="M96.44,58.88h6.049l11.156,33.468a2.433,2.433,0,0,0,.363.692h0a6.353,6.353,0,1,0,3.375.976h20.365c-.046.482-.072.97-.072,1.464a15.372,15.372,0,1,0,15.372-15.372c-.485,0-.964.024-1.437.069l3.752-11.254a2.44,2.44,0,0,0-2.315-3.212H121.816a2.44,2.44,0,1,0,0,4.88h27.846l-2.281,6.842c-.063,0-.126-.01-.19-.01H125.72a2.44,2.44,0,1,0,0,4.88h19.42a15.472,15.472,0,0,0-6.088,6.832H117.719L106.563,55.668A2.44,2.44,0,0,0,104.248,54H96.44a2.44,2.44,0,0,0,0,4.88Zm17.568,41.968a1.464,1.464,0,1,1,1.464-1.464A1.464,1.464,0,0,1,114.008,100.848ZM163.54,95.48a10.492,10.492,0,1,1-10.492-10.492A10.492,10.492,0,0,1,163.54,95.48Z" transform="translate(-72.528 -42.288)" fill="#fff"/>
      <path id="Path_4952" data-name="Path 4952" d="M311.353,206.523l3.9,1.952a2.44,2.44,0,0,0,3.121-.83l3.9-5.856a2.44,2.44,0,1,0-4.06-2.707l-2.708,4.064-1.976-.989a2.44,2.44,0,1,0-2.182,4.365Z" transform="translate(-235.828 -151.149)" fill="#fff"/>
    </g>
  </g>
</svg>
