<svg xmlns="http://www.w3.org/2000/svg" width="122" height="121.269" viewBox="0 0 122 121.269">
  <g id="erp-solutions" transform="translate(0 -1.544)">
    <g id="Group_1886" data-name="Group 1886" transform="translate(0 1.544)">
      <g id="Group_1885" data-name="Group 1885" transform="translate(0 0)">
        <path id="Path_4957" data-name="Path 4957" d="M25.838,102.413,20.4,96.975l4.839-13.537L20.57,72.172,7.579,66.025V58.332L20.57,52.185l4.669-11.267L20.4,27.382l5.438-5.438,13.544,4.839,11.251-4.657,6.158-13h7.685l6.158,13,11.251,4.657,13.544-4.839,5.438,5.438L96.522,39.539l7.14,2.554,5.957-16.678L97.4,13.193,82.087,18.666,76.232,16.24l-6.958-14.7H51.994l-6.958,14.7-5.855,2.425L23.867,13.193,11.649,25.415l5.468,15.3-2.433,5.866L0,53.538V70.819l14.685,6.954,2.433,5.866-5.468,15.3,12.218,12.222,16.682-5.957L38,98.07Z" transform="translate(0 -1.544)" fill="#fff"/>
        <path id="Path_4958" data-name="Path 4958" d="M270.875,229.167l7.174-9.8-7.932-13.745-12.074,1.315-3.953-2.274-4.9-11.123H233.334l-4.9,11.115-3.956,2.274-12.07-1.315-7.924,13.741,7.17,9.808v4.548l-7.17,9.808,7.928,13.734,12.07-1.315,3.956,2.274,4.9,11.123H249.19l4.9-11.115,3.953-2.274,12.074,1.315,7.928-13.734-7.17-9.815Zm-1.861,14.855-2.986,5.177-9.626-1.05-8.265,4.748-3.888,8.86h-5.965l-3.907-8.86-8.246-4.76-9.622,1.05-2.986-5.177,5.715-7.807v-9.527l-5.715-7.807,2.986-5.177,9.622,1.05,8.246-4.76,3.907-8.86h5.972l3.9,8.86,8.246,4.76,9.626-1.05,2.986,5.177-5.722,7.807V236.2Z" transform="translate(-156.048 -148.068)" fill="#fff"/>
        <path id="Path_4959" data-name="Path 4959" d="M310.935,289.544A15.159,15.159,0,1,0,326.093,304.7,15.159,15.159,0,0,0,310.935,289.544Zm0,22.738a7.579,7.579,0,1,1,7.579-7.579A7.579,7.579,0,0,1,310.935,312.282Z" transform="translate(-225.721 -221.33)" fill="#fff"/>
        <path id="Path_4960" data-name="Path 4960" d="M135.578,181.388a22.65,22.65,0,0,1,8.5-17.732l-4.752-5.9a30.317,30.317,0,0,0,1.66,48.507l4.339-6.215A22.765,22.765,0,0,1,135.578,181.388Z" transform="translate(-97.682 -120.754)" fill="#fff"/>
        <path id="Path_4961" data-name="Path 4961" d="M273.2,139.1a22.578,22.578,0,0,1,5.684,1.819l3.244-6.844a30.277,30.277,0,0,0-7.579-2.437Z" transform="translate(-208.492 -100.826)" fill="#fff"/>
        <path id="Path_4962" data-name="Path 4962" d="M210.072,139.357a22.473,22.473,0,0,1,6.268-1.584l-.781-7.541a30.193,30.193,0,0,0-8.375,2.118Z" transform="translate(-158.112 -99.752)" fill="#fff"/>
      </g>
    </g>
  </g>
</svg>
