<svg id="facebook_1_" data-name="facebook (1)" xmlns="http://www.w3.org/2000/svg" width="22.915" height="22.915" viewBox="0 0 22.915 22.915">
  <g id="Group_11296" data-name="Group 11296" transform="translate(11.011 16.801)">
    <g id="Group_11295" data-name="Group 11295">
      <path id="Path_11200" data-name="Path 11200" d="M246.446,375.333a.446.446,0,0,0-.446.446v.007a.446.446,0,0,0,.892,0v-.007A.446.446,0,0,0,246.446,375.333Z" transform="translate(-246 -375.333)" fill="#fff"/>
    </g>
  </g>
  <g id="Group_11298" data-name="Group 11298">
    <g id="Group_11297" data-name="Group 11297">
      <path id="Path_11201" data-name="Path 11201" d="M18.529,0H4.386A4.391,4.391,0,0,0,0,4.386V18.529a4.391,4.391,0,0,0,4.386,4.386h7.071a.448.448,0,0,0,.448-.448V19a.448.448,0,0,0-.9,0V22.02H4.386A3.5,3.5,0,0,1,.9,18.529V4.386A3.5,3.5,0,0,1,4.386.9H18.529A3.5,3.5,0,0,1,22.02,4.386V18.529a3.5,3.5,0,0,1-3.491,3.491H15.664v-7.9h2.595a.448.448,0,0,0,.445-.4l.322-3.2a.448.448,0,0,0-.445-.492H15.664V8.348c0-.3.1-.417.357-.417h2.54a.448.448,0,0,0,.448-.448V4.366a.448.448,0,0,0-.448-.448H15.226a3.948,3.948,0,0,0-3.4,1.526,4.71,4.71,0,0,0-.816,2.723v1.88H8.817a.448.448,0,0,0-.448.448v3.178a.448.448,0,0,0,.448.448H11.01V15.4a.448.448,0,0,0,.9,0V13.673a.448.448,0,0,0-.448-.448H9.264V10.942h2.193a.448.448,0,0,0,.448-.448V8.167a3.064,3.064,0,0,1,3.321-3.354h2.887V7.036H16.022a1.2,1.2,0,0,0-1.252,1.312v2.127a.448.448,0,0,0,.448.448h2.869l-.232,2.3H15.217a.448.448,0,0,0-.448.448v8.794a.448.448,0,0,0,.448.448h3.312a4.391,4.391,0,0,0,4.386-4.386V4.386A4.391,4.391,0,0,0,18.529,0Z" fill="#fff"/>
    </g>
  </g>
  <g id="Group_11300" data-name="Group 11300" transform="translate(2.141 4.591)">
    <g id="Group_11299" data-name="Group 11299">
      <path id="Path_11202" data-name="Path 11202" d="M48.446,102.5a.446.446,0,0,0-.446.446v3.724a.446.446,0,0,0,.892,0v-3.724A.446.446,0,0,0,48.446,102.5Z" transform="translate(-48 -102.5)" fill="#fff"/>
    </g>
  </g>
  <g id="Group_11302" data-name="Group 11302" transform="translate(2.141 10.268)">
    <g id="Group_11301" data-name="Group 11301">
      <path id="Path_11203" data-name="Path 11203" d="M48.446,229.382a.446.446,0,0,0-.446.446v.005a.446.446,0,1,0,.892,0v-.005A.446.446,0,0,0,48.446,229.382Z" transform="translate(-48 -229.382)" fill="#fff"/>
    </g>
  </g>
</svg>
