<svg xmlns="http://www.w3.org/2000/svg" width="123.3" height="123.3" viewBox="0 0 123.3 123.3">
  <g id="fleet-management" transform="translate(0.65 0.65)">
    <path id="Path_4953" data-name="Path 4953" d="M104.1,17.84A61.033,61.033,0,0,0,33.6,6.488C27.271,5.346,20.482,5.253,14.481,7.559A1.787,1.787,0,1,0,15.763,10.9C34.936,3.53,70.7,21.769,95.337,51.507a4.83,4.83,0,0,0-1.89,1.458C77.92,34.47,49.457,11.666,25.72,11.666,19.443,11.608,14.355,13.361,11,16.717,7.055,20.661,5.416,26.592,6.12,34.349Q5.107,36.43,4.26,38.562a43.247,43.247,0,0,1-.682-7.416c0-6.459,1.707-12.654,6.613-16.933A1.787,1.787,0,1,0,7.841,11.52C2.2,16.438,0,23.665,0,31.146A52.4,52.4,0,0,0,2.087,45.089a61.012,61.012,0,0,0,102.487,58.6,1.787,1.787,0,0,0-2.552-2.5,57.33,57.33,0,0,1-19.827,13.222,12.593,12.593,0,0,1-3.119-8.184,21.464,21.464,0,0,0-6.264-15.263A17.681,17.681,0,0,1,67.6,78.374a1.787,1.787,0,0,0-3.574,0,21.231,21.231,0,0,0,6.26,15.112A17.726,17.726,0,0,1,75.5,106.263a16.139,16.139,0,0,0,3.138,9.415,57.561,57.561,0,0,1-47.541-5.67l2.635-2.635a25.9,25.9,0,0,0,0-36.643c-.351-.351-.7-.687-1.034-1.016-2.385-2.322-3.96-3.855-3.96-6.939a7.1,7.1,0,0,1,2.094-5.054L42.939,45.617a4.092,4.092,0,0,1,2.944-1.257,4.461,4.461,0,0,1,4.448,4.564,6.463,6.463,0,0,0,12.925,0V37.839a19.445,19.445,0,0,0-2.374-9.35A140.462,140.462,0,0,1,74.334,38.773a7.451,7.451,0,0,0-2.307,5.4c0,4.158,3.327,7.8,7.14,7.8,3.95,0,5.55,0,7.435-1.378q2.107,2.281,4.051,4.592H81.177a17.264,17.264,0,0,0-15.447,9.689,1.787,1.787,0,0,0,3.217,1.558,13.67,13.67,0,0,1,12.23-7.672H90.5a4.281,4.281,0,0,0,3.731,4.957l-3.574.895a4.28,4.28,0,0,0,1.3,8.424l5.94-.356c2.221,4.223,7.761,6.789,11.658,4.538,3.956-2.284,4.388-8.415,1.9-12.365l3.279-4.966a4.278,4.278,0,0,0,.527-1.126h3.119c.028.741.047,1.483.047,2.231a56.867,56.867,0,0,1-11.861,34.954,1.787,1.787,0,0,0,2.834,2.178,61,61,0,0,0-5.3-80.292Zm-90.577,1.4a13.423,13.423,0,0,1,6.482-3.406,61.78,61.78,0,0,0-10.3,12.152,14.315,14.315,0,0,1,3.82-8.746ZM3.574,61c0-1.616.069-3.22.2-4.81L15.524,67.938a4.212,4.212,0,0,1,0,5.96L7.515,81.907A57.13,57.13,0,0,1,3.574,61ZM59.682,48.924a2.888,2.888,0,0,1-5.777,0,8.09,8.09,0,0,0-8.022-8.138,7.707,7.707,0,0,0-5.471,2.3L28.306,55.195a10.651,10.651,0,0,0-3.14,7.581c0,4.592,2.449,6.976,5.041,9.5.326.318.661.643,1,.982a22.33,22.33,0,0,1,0,31.588L28.048,108A57.8,57.8,0,0,1,9.041,85.436l9.011-9.011a7.784,7.784,0,0,0,0-11.015L4.321,51.684A56.876,56.876,0,0,1,26.3,15.249c7.362.128,15.779,2.646,24.789,7.376L55,26.541a15.872,15.872,0,0,1,4.68,11.3V48.924Zm19.466-.518c-2.5,0-5.264-4.124-2.127-7.265,2.45,2.212,4.824,4.5,7.089,6.832-.817.409-1.932.434-4.962.434ZM84.7,35.062C72.15,23.416,55.718,12.405,39.3,7.809A56.839,56.839,0,0,1,61,3.574a57.565,57.565,0,0,1,9.759.833V6.686c0,10.508,7.112,21.758,17.7,21.758a3.32,3.32,0,1,1,0,6.64c-1.461,0-2.686-.012-3.758-.021Zm3.74,3.6h.019a6.894,6.894,0,1,0,0-13.788c-8.325,0-14.126-9.583-14.126-18.184V5.14a57.654,57.654,0,0,1,40.768,36.6c-21.741,0-19.441,0-19.441,0a12.536,12.536,0,0,0-3.648.588q-1.756-1.873-3.57-3.679Zm23.308,19.268-3.968,6.009a1.787,1.787,0,0,0,.154,2.17c2.017,2.277,2.012,6.767-.168,8.026s-6.077-1-7.034-3.867a1.787,1.787,0,0,0-1.694-1.221c-.036,0-.072,0-.108,0l-7.188.432a.706.706,0,0,1-.214-1.389l5.952-1.49a1.788,1.788,0,0,0,1.261-2.3l-.992-2.972a1.784,1.784,0,0,0-1.8-1.218l-1.178.071a.71.71,0,0,1-.752-.7c0-.662.657-.7.944-.8a1.786,1.786,0,0,0,1.149-2.266,1.247,1.247,0,0,1,2.145-1.238,1.785,1.785,0,0,0,2.614.065l.008-.008a1.2,1.2,0,0,1,.77-.437.709.709,0,0,1,.539,1.1l-.652.988a1.787,1.787,0,0,0,.154,2.17l2.078,2.346a1.786,1.786,0,0,0,2.622.058l4.266-4.409a.705.705,0,0,1,1.095.879Zm2.992-2.731a4.28,4.28,0,0,0-6.656-.634L105.53,57.2a4.3,4.3,0,0,0-3.883-5.977,4.244,4.244,0,0,0-1.656.343q-2.517-3.166-5.2-6.188a9.889,9.889,0,0,1,1.011-.06c.35,0,19.985,0,20.447,0a57.039,57.039,0,0,1,1.884,9.876Z" fill="#fff" stroke="#fff" stroke-width="1.3"/>
    <path id="Path_4954" data-name="Path 4954" d="M186.051,283.9v2.859a1.787,1.787,0,0,0,3.574,0V283.9a1.787,1.787,0,0,0-3.574,0Z" transform="translate(-141.719 -214.892)" fill="#fff" stroke="#fff" stroke-width="1.3"/>
    <path id="Path_4955" data-name="Path 4955" d="M310.948,283.9v2.859a1.787,1.787,0,0,0,3.574,0V283.9a1.787,1.787,0,0,0-3.574,0Z" transform="translate(-236.855 -214.892)" fill="#fff" stroke="#fff" stroke-width="1.3"/>
    <path id="Path_4956" data-name="Path 4956" d="M242.844,294.2a1.786,1.786,0,0,0-2.521.173,3.413,3.413,0,0,1-5.151,0,1.787,1.787,0,0,0-2.695,2.348,6.988,6.988,0,0,0,10.541,0A1.787,1.787,0,0,0,242.844,294.2Z" transform="translate(-176.747 -223.761)" fill="#fff" stroke="#fff" stroke-width="1.3"/>
  </g>
</svg>
