<svg xmlns="http://www.w3.org/2000/svg" width="1922.451" height="542.389" viewBox="0 0 1922.451 542.389">
  <g id="footer-pic" transform="translate(2.451 -9326)">
    <path id="Path_14855" data-name="Path 14855" d="M4175,9493.807s-477.277,144.068-650.762,146.364-330.328-95.974-511.115-91.51-273.327,117.9-433,111.6-327.576-92.944-327.576-92.944V10036.2H4175Z" transform="translate(-2255 -167.807)" fill="#2a2a27"/>
    <g id="Group_27679" data-name="Group 27679" transform="translate(5 9643.468)" opacity="0.21">
      <g id="Group_27625" data-name="Group 27625" transform="translate(237.681)" opacity="0.37">
        <g id="Group_27624" data-name="Group 27624" transform="translate(0)">
          <path id="Path_14828" data-name="Path 14828" d="M601.729,935.617l-30.817,29.566a69.483,69.483,0,0,0-46.043-21.229c-1.365-.085-2.731-.113-4.125-.113-1,0-1.964.028-2.932.056-1.394.057-2.76.172-4.126.313-1,.085-1.964.2-2.93.342-1.4.2-2.761.426-4.127.739a25.989,25.989,0,0,0-2.96.684c-1.394.313-2.76.711-4.1,1.139-1,.312-1.991.654-2.959,1.023-1.4.513-2.789,1.083-4.127,1.68-.995.427-1.963.911-2.93,1.424-1.394.654-2.788,1.393-4.126,2.19-1,.6-1.964,1.2-2.931,1.851-.228.14-.483.283-.712.453-1.165.8-2.3,1.594-3.414,2.477-1.025.768-1.993,1.566-2.96,2.391-1.423,1.223-2.788,2.5-4.126,3.841-1,1-1.964,2.049-2.932,3.13a61.38,61.38,0,0,0-4.126,5.208c-1.025,1.422-2.021,2.873-2.93,4.382a65.634,65.634,0,0,0-4.127,7.8c-.228.484-.456.969-.654,1.479a69.692,69.692,0,0,0,4.781,63.572c.512.854,1.052,1.707,1.622,2.533.426.626.854,1.253,1.309,1.879,1.309,1.763,2.675,3.472,4.126,5.12.939,1.083,1.907,2.135,2.932,3.131,1.309,1.338,2.7,2.618,4.126,3.842.968.853,1.964,1.65,2.96,2.419,1.337,1.023,2.732,2.019,4.126,2.959.968.625,1.935,1.223,2.931,1.793,1.337.8,2.732,1.564,4.126,2.249.968.483,1.935.967,2.93,1.366.371.2.769.341,1.138.512q1.494.642,2.988,1.2c.968.342,1.963.683,2.959,1,1.337.426,2.7.826,4.1,1.166.968.258,1.964.485,2.96.685,1.366.284,2.731.51,4.127.711.966.142,1.934.255,2.93.341,1.366.171,2.732.257,4.126.314.968.027,1.964.056,2.932.056v42.683c-.968,0-1.964,0-2.932-.056-1.394,0-2.76-.087-4.126-.171-1-.056-1.964-.113-2.93-.228-1.4-.084-2.761-.255-4.127-.427-1-.113-1.993-.254-2.96-.4-1.366-.2-2.731-.455-4.1-.712-1-.17-1.963-.4-2.959-.625-1.4-.283-2.761-.6-4.127-.968-.995-.255-1.963-.511-2.93-.825-1.394-.37-2.76-.8-4.126-1.28-1-.312-1.964-.627-2.931-1-1.394-.484-2.76-1.024-4.126-1.593-1-.4-1.993-.8-2.96-1.252-1.394-.6-2.76-1.252-4.126-1.906-.968-.484-1.964-.967-2.932-1.48-1.394-.74-2.76-1.51-4.126-2.306-1-.569-1.964-1.166-2.93-1.735-1.139-.74-2.277-1.479-3.415-2.248-.228-.17-.485-.313-.712-.513A112.4,112.4,0,1,1,601.729,935.617Z" transform="translate(-408.34 -901.157)" fill="#fafafa"/>
        </g>
        <rect id="Rectangle_14030" data-name="Rectangle 14030" width="4.121" height="197.368" transform="translate(112.413 27.435)" fill="#fafafa"/>
        <path id="Path_14829" data-name="Path 14829" d="M505.1,925.28v197.314c-1.394,0-2.76-.086-4.126-.171V925.28Z" transform="translate(-395.633 -897.848)" fill="#fafafa"/>
        <path id="Path_14830" data-name="Path 14830" d="M498.9,925.28V1122.2c-1.4-.084-2.761-.255-4.127-.426V925.28Z" transform="translate(-396.484 -897.848)" fill="#fafafa"/>
        <path id="Path_14831" data-name="Path 14831" d="M492.664,925.28v196.091c-1.366-.2-2.732-.455-4.1-.712V925.28Z" transform="translate(-397.335 -897.848)" fill="#fafafa"/>
        <path id="Path_14832" data-name="Path 14832" d="M486.462,925.28v194.753c-1.4-.284-2.761-.6-4.127-.968V925.28Z" transform="translate(-398.19 -897.848)" fill="#fafafa"/>
        <path id="Path_14833" data-name="Path 14833" d="M480.256,925.28v192.96c-1.394-.369-2.76-.8-4.126-1.28V925.28Z" transform="translate(-399.041 -897.848)" fill="#fafafa"/>
        <path id="Path_14834" data-name="Path 14834" d="M474.05,925.28v190.684c-1.394-.484-2.76-1.024-4.126-1.593V925.28Z" transform="translate(-399.892 -897.848)" fill="#fafafa"/>
        <path id="Path_14835" data-name="Path 14835" d="M467.819,925.28v187.838c-1.394-.6-2.76-1.252-4.126-1.906V925.28Z" transform="translate(-400.747 -897.848)" fill="#fafafa"/>
        <path id="Path_14836" data-name="Path 14836" d="M461.613,925.28v184.452c-1.394-.74-2.76-1.509-4.126-2.305V925.28Z" transform="translate(-401.599 -897.848)" fill="#fafafa"/>
        <path id="Path_14837" data-name="Path 14837" d="M455.408,925.28v180.411c-1.138-.74-2.277-1.479-3.415-2.248-.228-.171-.485-.313-.712-.513V925.28Z" transform="translate(-402.45 -897.848)" fill="#fafafa"/>
      </g>
      <g id="Group_27678" data-name="Group 27678" transform="translate(0 5)" opacity="0.37">
        <g id="Group_27622" data-name="Group 27622">
          <g id="Group_27621" data-name="Group 27621">
            <path id="Path_14825" data-name="Path 14825" d="M173.416,907.905h38a2.862,2.862,0,0,1,2.661,1.627v113.853q0,1.773.3,4.731a2.909,2.909,0,0,0-.3,1.332l.3,2.365q-.3,1.774-.3,2.071l.3,1.626-.3,2.367q0,.294.3,2.071c-.2,1.182-.3,1.873-.3,2.067s.1.888.3,2.07q-.3,1.777-.3,1.924a21.306,21.306,0,0,1,.3,3.1H170.31V910.566Q170.31,907.905,173.416,907.905Zm-3.106,143.572h44.063v2.07H170.31Zm0,4.141h44.063v2.069H170.31Zm0,3.992h44.063v2.071H170.31Zm0,4.141h44.063v2.069H170.31Zm0,4.434h44.063v1.924H170.31Zm0,3.993h44.063v2.071H170.31Zm0,4.14h44.063v2.072H170.31Zm0,4.435h44.063v1.923H170.31Zm0,3.994h44.063v2.07H170.31Zm0,4.141h44.063v2.069H170.31Zm0,3.99h44.063v2.071H170.31Zm0,4.437h44.063v2.069H170.31Zm0,4.14h44.063v1.921H170.31Zm0,3.991h44.063v2.071H170.31Zm0,4.14h44.063v2.071H170.31Zm0,4.435h44.063v1.923H170.31Zm0,3.994h44.063v2.07H170.31Z" transform="translate(-170.31 -907.905)" fill="#fafafa"/>
            <path id="Path_14826" data-name="Path 14826" d="M788.59,907.905h38a2.863,2.863,0,0,1,2.662,1.627v113.853q0,1.773.3,4.731a2.9,2.9,0,0,0-.3,1.332l.3,2.365c-.2,1.183-.3,1.873-.3,2.071l.3,1.626-.3,2.367c0,.2.1.886.3,2.071-.2,1.182-.3,1.873-.3,2.067s.1.888.3,2.07c-.2,1.185-.3,1.826-.3,1.924a21.483,21.483,0,0,1,.3,3.1H785.485V910.566Q785.485,907.905,788.59,907.905Zm-3.1,143.572h44.062v2.07H785.485Zm0,4.141h44.062v2.069H785.485Zm0,3.992h44.062v2.071H785.485Zm0,4.141h44.062v2.069H785.485Zm0,4.434h44.062v1.924H785.485Zm0,3.993h44.062v2.071H785.485Zm0,4.14h44.062v2.072H785.485Zm0,4.435h44.062v1.923H785.485Zm0,3.994h44.062v2.07H785.485Zm0,4.141h44.062v2.069H785.485Zm0,3.99h44.062v2.071H785.485Zm0,4.437h44.062v2.069H785.485Zm0,4.14h44.062v1.921H785.485Zm0,3.991h44.062v2.071H785.485Zm0,4.14h44.062v2.071H785.485Zm0,4.435h44.062v1.923H785.485Zm0,3.994h44.062v2.07H785.485Z" transform="translate(-85.925 -907.905)" fill="#fafafa"/>
          </g>
        </g>
        <g id="Group_27623" data-name="Group 27623" transform="translate(1382.877)">
          <path id="Path_14827" data-name="Path 14827" d="M1386.376,1122.676h51.189l60.092-116.844,57.866,116.844h52.3L1497.1,907.9Z" transform="translate(-1386.376 -907.905)" fill="#fafafa"/>
          <line id="Line_6" data-name="Line 6" x2="89.952" transform="translate(68.437 105.345)" fill="#58595b" stroke="#fafafa" stroke-width="1"/>
          <line id="Line_7" data-name="Line 7" x2="89.952" transform="translate(68.437 112.022)" fill="#58595b" stroke="#fafafa" stroke-width="1"/>
          <line id="Line_8" data-name="Line 8" x2="89.952" transform="translate(68.437 118.699)" fill="#58595b" stroke="#fafafa" stroke-width="1"/>
          <line id="Line_9" data-name="Line 9" x2="89.952" transform="translate(68.437 125.376)" fill="#58595b" stroke="#fafafa" stroke-width="1"/>
          <line id="Line_10" data-name="Line 10" x2="89.952" transform="translate(68.437 132.053)" fill="#58595b" stroke="#fafafa" stroke-width="1"/>
          <line id="Line_11" data-name="Line 11" x2="89.952" transform="translate(68.437 138.73)" fill="#58595b" stroke="#fafafa" stroke-width="1"/>
          <line id="Line_12" data-name="Line 12" x2="89.952" transform="translate(68.437 145.406)" fill="#58595b" stroke="#fafafa" stroke-width="1"/>
          <line id="Line_13" data-name="Line 13" x2="89.952" transform="translate(68.437 152.083)" fill="#58595b" stroke="#fafafa" stroke-width="1"/>
          <line id="Line_14" data-name="Line 14" x2="89.952" transform="translate(68.437 158.76)" fill="#58595b" stroke="#fafafa" stroke-width="1"/>
          <line id="Line_15" data-name="Line 15" x2="89.952" transform="translate(68.437 165.437)" fill="#58595b" stroke="#fafafa" stroke-width="1"/>
          <line id="Line_16" data-name="Line 16" x2="89.952" transform="translate(68.437 172.114)" fill="#58595b" stroke="#fafafa" stroke-width="1"/>
          <line id="Line_17" data-name="Line 17" x2="89.952" transform="translate(68.437 178.79)" fill="#58595b" stroke="#fafafa" stroke-width="1"/>
        </g>
        <g id="Group_27627" data-name="Group 27627" transform="translate(976.618 2.651)">
          <g id="Group_27626" data-name="Group 27626" transform="translate(0 85.85)">
            <path id="Path_14838" data-name="Path 14838" d="M1236.661,985.731v19.911a103.766,103.766,0,0,1-206.13,17.042,101.394,101.394,0,0,1-1.354-13.7c-.027-1.115-.054-2.229-.054-3.344h39.82a63.972,63.972,0,0,0,122.882,24.9c.69-1.619,1.3-3.292,1.858-4.99h-63.339V985.731Z" transform="translate(-1029.123 -985.731)" fill="#fafafa"/>
          </g>
          <path id="Path_14839" data-name="Path 14839" d="M1120.683,910.237v171.674h-2.548V910.4Z" transform="translate(-1016.913 -910.237)" fill="#fafafa"/>
          <path id="Path_14840" data-name="Path 14840" d="M1113.846,910.844v170.984h-2.575V911.163C1112.174,911.056,1113.024,910.95,1113.846,910.844Z" transform="translate(-1017.854 -910.153)" fill="#fafafa"/>
          <path id="Path_14841" data-name="Path 14841" d="M1107.007,911.824v169.87h-2.576V912.25C1105.308,912.089,1106.157,911.956,1107.007,911.824Z" transform="translate(-1018.794 -910.019)" fill="#fafafa"/>
          <path id="Path_14842" data-name="Path 14842" d="M1100.167,913.107v168.41h-2.576V913.692C1098.468,913.506,1099.317,913.294,1100.167,913.107Z" transform="translate(-1019.731 -909.843)" fill="#fafafa"/>
          <path id="Path_14843" data-name="Path 14843" d="M1093.327,914.789v166.5h-2.575V915.532C1091.628,915.267,1092.477,915.027,1093.327,914.789Z" transform="translate(-1020.67 -909.612)" fill="#fafafa"/>
          <path id="Path_14844" data-name="Path 14844" d="M1086.486,916.843v164.163h-2.574V917.747C1084.762,917.428,1085.637,917.135,1086.486,916.843Z" transform="translate(-1021.607 -909.33)" fill="#fafafa"/>
          <path id="Path_14845" data-name="Path 14845" d="M1079.621,919.388v161.268h-2.548V920.449C1077.922,920.051,1078.772,919.706,1079.621,919.388Z" transform="translate(-1022.546 -908.981)" fill="#fafafa"/>
          <path id="Path_14846" data-name="Path 14846" d="M1072.781,922.422V1080.24h-2.548V923.7Q1071.506,923.058,1072.781,922.422Z" transform="translate(-1023.484 -908.565)" fill="#fafafa"/>
          <path id="Path_14847" data-name="Path 14847" d="M1065.94,926.133v153.6h-2.548V927.7C1064.243,927.142,1065.092,926.611,1065.94,926.133Z" transform="translate(-1024.423 -908.056)" fill="#fafafa"/>
          <path id="Path_14848" data-name="Path 14848" d="M1059.1,930.615v148.5h-1.195v-48.872h-1.353V932.58C1057.375,931.917,1058.251,931.253,1059.1,930.615Z" transform="translate(-1025.36 -907.441)" fill="#fafafa"/>
          <path id="Path_14849" data-name="Path 14849" d="M1052.262,936.264v93.2h-2.548v-90.76C1050.563,937.857,1051.385,937.061,1052.262,936.264Z" transform="translate(-1026.299 -906.666)" fill="#fafafa"/>
          <path id="Path_14850" data-name="Path 14850" d="M1045.425,943.548v84.922h-2.575v-81.6C1043.672,945.726,1044.522,944.611,1045.425,943.548Z" transform="translate(-1027.241 -905.667)" fill="#fafafa"/>
          <path id="Path_14851" data-name="Path 14851" d="M1038.585,953.633v73.453h-2.575V958.73C1036.806,956.977,1037.656,955.279,1038.585,953.633Z" transform="translate(-1028.178 -904.284)" fill="#fafafa"/>
          <path id="Path_14852" data-name="Path 14852" d="M1031.745,971.188v53.491h-1.221a101.5,101.5,0,0,1-1.354-13.7V987.169A96.7,96.7,0,0,1,1031.745,971.188Z" transform="translate(-1029.116 -901.876)" fill="#fafafa"/>
          <rect id="Rectangle_14031" data-name="Rectangle 14031" width="2.563" height="80.737" transform="translate(109.172 90.941)" fill="#fafafa"/>
          <rect id="Rectangle_14032" data-name="Rectangle 14032" width="2.563" height="80.737" transform="translate(117.136 90.941)" fill="#fafafa"/>
          <rect id="Rectangle_14033" data-name="Rectangle 14033" width="2.563" height="80.737" transform="translate(125.1 90.941)" fill="#fafafa"/>
          <rect id="Rectangle_14034" data-name="Rectangle 14034" width="2.563" height="80.737" transform="translate(133.064 90.941)" fill="#fafafa"/>
          <rect id="Rectangle_14035" data-name="Rectangle 14035" width="2.563" height="80.737" transform="translate(141.028 90.941)" fill="#fafafa"/>
          <rect id="Rectangle_14036" data-name="Rectangle 14036" width="2.563" height="80.737" transform="translate(148.991 90.941)" fill="#fafafa"/>
        </g>
        <rect id="Rectangle_14038" data-name="Rectangle 14038" width="44.063" height="212.181" transform="translate(1842.938)" fill="#fafafa"/>
      </g>
    </g>
  </g>
</svg>
