<svg xmlns="http://www.w3.org/2000/svg" width="224.056" height="26.692" viewBox="0 0 224.056 26.692">
  <g id="icigai-logo" transform="translate(-170.31 -901.157)">
    <g id="Group_1515" data-name="Group 1515" transform="translate(170.31 902.068)">
      <g id="Group_1514" data-name="Group 1514" transform="translate(0 0)">
        <path id="Path_4378" data-name="Path 4378" d="M170.679,907.9h4.512a.34.34,0,0,1,.316.193v13.519q0,.21.035.562a.345.345,0,0,0-.035.158l.035.281q-.035.211-.035.246l.035.193-.035.281q0,.035.035.246c-.024.14-.035.222-.035.245s.012.105.035.246q-.035.211-.035.229a2.53,2.53,0,0,1,.035.369H170.31v-16.45Q170.31,907.9,170.679,907.9Zm-.369,17.047h5.232v.246H170.31Zm0,.492h5.232v.246H170.31Zm0,.474h5.232v.246H170.31Zm0,.491h5.232v.246H170.31Zm0,.527h5.232v.228H170.31Zm0,.474h5.232v.246H170.31Zm0,.492h5.232v.246H170.31Zm0,.526h5.232v.228H170.31Zm0,.474h5.232v.246H170.31Zm0,.492h5.232v.246H170.31Zm0,.474h5.232v.246H170.31Zm0,.527h5.232v.246H170.31Zm0,.492h5.232v.228H170.31Zm0,.474h5.232v.246H170.31Zm0,.492h5.232v.246H170.31Zm0,.527h5.232v.228H170.31Zm0,.474h5.232v.246H170.31Z" transform="translate(-170.31 -907.905)" fill="#15222b"/>
        <path id="Path_4379" data-name="Path 4379" d="M785.854,907.9h4.512a.34.34,0,0,1,.316.193v13.519q0,.21.035.562a.343.343,0,0,0-.035.158l.035.281c-.024.14-.035.222-.035.246l.035.193-.035.281c0,.023.011.105.035.246-.024.14-.035.222-.035.245s.011.105.035.246c-.024.141-.035.217-.035.229a2.539,2.539,0,0,1,.035.369h-5.232v-16.45Q785.485,907.9,785.854,907.9Zm-.369,17.047h5.232v.246h-5.232Zm0,.492h5.232v.246h-5.232Zm0,.474h5.232v.246h-5.232Zm0,.491h5.232v.246h-5.232Zm0,.527h5.232v.228h-5.232Zm0,.474h5.232v.246h-5.232Zm0,.492h5.232v.246h-5.232Zm0,.526h5.232v.228h-5.232Zm0,.474h5.232v.246h-5.232Zm0,.492h5.232v.246h-5.232Zm0,.474h5.232v.246h-5.232Zm0,.527h5.232v.246h-5.232Zm0,.492h5.232v.228h-5.232Zm0,.474h5.232v.246h-5.232Zm0,.492h5.232v.246h-5.232Zm0,.527h5.232v.228h-5.232Zm0,.474h5.232v.246h-5.232Z" transform="translate(-702.422 -907.905)" fill="#15222b"/>
      </g>
    </g>
    <g id="Group_1516" data-name="Group 1516" transform="translate(334.508 902.068)">
      <path id="Path_4380" data-name="Path 4380" d="M1386.376,933.406h6.078l7.135-13.874,6.871,13.874h6.21l-13.147-25.5Z" transform="translate(-1386.376 -907.905)" fill="#3a404a"/>
      <line id="Line_6" data-name="Line 6" x2="10.681" transform="translate(8.126 12.508)" fill="#f1f2f2" stroke="rgba(0,0,0,0)" stroke-width="1"/>
      <line id="Line_7" data-name="Line 7" x2="10.681" transform="translate(8.126 13.301)" fill="#f1f2f2" stroke="rgba(0,0,0,0)" stroke-width="1"/>
      <line id="Line_8" data-name="Line 8" x2="10.681" transform="translate(8.126 14.094)" fill="#f1f2f2" stroke="rgba(0,0,0,0)" stroke-width="1"/>
      <line id="Line_9" data-name="Line 9" x2="10.681" transform="translate(8.126 14.887)" fill="#f1f2f2" stroke="rgba(0,0,0,0)" stroke-width="1"/>
      <line id="Line_10" data-name="Line 10" x2="10.681" transform="translate(8.126 15.679)" fill="#f1f2f2" stroke="rgba(0,0,0,0)" stroke-width="1"/>
      <line id="Line_11" data-name="Line 11" x2="10.681" transform="translate(8.126 16.472)" fill="#f1f2f2" stroke="rgba(0,0,0,0)" stroke-width="1"/>
      <line id="Line_12" data-name="Line 12" x2="10.681" transform="translate(8.126 17.265)" fill="#f1f2f2" stroke="rgba(0,0,0,0)" stroke-width="1"/>
      <line id="Line_13" data-name="Line 13" x2="10.681" transform="translate(8.126 18.058)" fill="#f1f2f2" stroke="rgba(0,0,0,0)" stroke-width="1"/>
      <line id="Line_14" data-name="Line 14" x2="10.681" transform="translate(8.126 18.851)" fill="#f1f2f2" stroke="rgba(0,0,0,0)" stroke-width="1"/>
      <line id="Line_15" data-name="Line 15" x2="10.681" transform="translate(8.126 19.643)" fill="#f1f2f2" stroke="rgba(0,0,0,0)" stroke-width="1"/>
      <line id="Line_16" data-name="Line 16" x2="10.681" transform="translate(8.126 20.436)" fill="#f1f2f2" stroke="rgba(0,0,0,0)" stroke-width="1"/>
      <line id="Line_17" data-name="Line 17" x2="10.681" transform="translate(8.126 21.229)" fill="#f1f2f2" stroke="rgba(0,0,0,0)" stroke-width="1"/>
    </g>
    <g id="Group_1518" data-name="Group 1518" transform="translate(202.45 901.157)">
      <g id="Group_1517" data-name="Group 1517" transform="translate(0 0)">
        <path id="Path_4381" data-name="Path 4381" d="M431.3,905.248l-3.659,3.511a8.251,8.251,0,0,0-5.467-2.521c-.162-.01-.324-.013-.49-.013-.118,0-.233,0-.348.007-.166.007-.328.02-.49.037-.118.01-.233.024-.348.041-.166.023-.328.051-.49.088a3.06,3.06,0,0,0-.351.081c-.166.037-.328.084-.487.135-.118.037-.236.078-.351.121-.166.061-.331.129-.49.2-.118.051-.233.108-.348.169-.166.078-.331.166-.49.26-.118.071-.233.142-.348.22-.027.017-.057.034-.085.054-.138.095-.274.189-.405.294s-.237.186-.351.284c-.169.145-.331.3-.49.456-.118.118-.233.243-.348.372a7.269,7.269,0,0,0-.49.618c-.122.169-.24.341-.348.52a7.78,7.78,0,0,0-.49.926c-.027.057-.054.115-.078.176a8.275,8.275,0,0,0,.568,7.548c.061.1.125.2.193.3.051.074.1.149.155.223.155.209.318.412.49.608.112.128.226.253.348.371.155.159.321.311.49.456.115.1.233.2.351.287.159.122.324.24.49.351.115.074.23.145.348.213.159.094.324.186.49.267.115.057.23.115.348.162.044.024.091.041.135.061q.177.076.355.142c.115.041.233.081.351.118.159.051.321.1.487.138.115.031.233.057.351.081.162.034.324.061.49.084.115.017.23.03.348.041.162.02.324.031.49.037.115,0,.233.007.348.007v5.068c-.115,0-.233,0-.348-.007-.166,0-.328-.01-.49-.02-.118-.007-.233-.014-.348-.027-.166-.01-.328-.03-.49-.051-.118-.014-.236-.03-.351-.047-.162-.024-.324-.054-.487-.084-.118-.02-.233-.047-.351-.074-.166-.034-.328-.071-.49-.115-.118-.03-.233-.061-.348-.1-.166-.044-.328-.095-.49-.152-.118-.037-.233-.074-.348-.118-.166-.057-.328-.122-.49-.189-.118-.047-.237-.094-.351-.149-.166-.071-.328-.149-.49-.226-.115-.057-.233-.115-.348-.176-.166-.088-.328-.179-.49-.274-.118-.068-.233-.139-.348-.206-.135-.088-.27-.176-.405-.267-.027-.02-.058-.037-.085-.061A13.346,13.346,0,1,1,431.3,905.248Z" transform="translate(-408.34 -901.157)" fill="#15222b"/>
      </g>
      <rect id="Rectangle_381" data-name="Rectangle 381" width="0.489" height="23.435" transform="translate(13.348 3.258)" fill="#15222b"/>
      <path id="Path_4382" data-name="Path 4382" d="M501.468,925.28v23.428c-.166,0-.328-.01-.49-.02V925.28Z" transform="translate(-488.47 -922.023)" fill="#15222b"/>
      <path id="Path_4383" data-name="Path 4383" d="M495.262,925.28v23.381c-.166-.01-.328-.03-.49-.051V925.28Z" transform="translate(-483.102 -922.023)" fill="#15222b"/>
      <path id="Path_4384" data-name="Path 4384" d="M489.052,925.28v23.283c-.162-.024-.324-.054-.486-.084v-23.2Z" transform="translate(-477.734 -922.023)" fill="#15222b"/>
      <path id="Path_4385" data-name="Path 4385" d="M482.825,925.28V948.4c-.166-.034-.328-.071-.49-.115V925.28Z" transform="translate(-472.344 -922.023)" fill="#15222b"/>
      <path id="Path_4386" data-name="Path 4386" d="M476.62,925.28v22.911c-.166-.044-.328-.094-.49-.152V925.28Z" transform="translate(-466.977 -922.023)" fill="#15222b"/>
      <path id="Path_4387" data-name="Path 4387" d="M470.414,925.28v22.641c-.166-.057-.328-.122-.49-.189V925.28Z" transform="translate(-461.609 -922.023)" fill="#15222b"/>
      <path id="Path_4388" data-name="Path 4388" d="M464.183,925.28v22.3c-.166-.071-.328-.149-.49-.226V925.28Z" transform="translate(-456.219 -922.023)" fill="#15222b"/>
      <path id="Path_4389" data-name="Path 4389" d="M457.977,925.28v21.9c-.166-.088-.328-.179-.49-.274V925.28Z" transform="translate(-450.851 -922.023)" fill="#15222b"/>
      <path id="Path_4390" data-name="Path 4390" d="M451.771,925.28V946.7c-.135-.088-.27-.176-.406-.267-.027-.02-.057-.037-.084-.061V925.28Z" transform="translate(-445.483 -922.023)" fill="#15222b"/>
    </g>
    <g id="Group_1520" data-name="Group 1520" transform="translate(286.27 902.383)">
      <path id="Path_4392" data-name="Path 4392" d="M1118.437,910.236V930.62h-.3V910.255Z" transform="translate(-1106.116 -910.236)" fill="#3a404a"/>
      <path id="Path_4393" data-name="Path 4393" d="M1111.577,910.844v20.3h-.306V910.882Z" transform="translate(-1100.179 -910.762)" fill="#3a404a"/>
      <path id="Path_4394" data-name="Path 4394" d="M1104.737,911.824v20.17h-.306V911.875C1104.535,911.856,1104.636,911.84,1104.737,911.824Z" transform="translate(-1094.263 -911.61)" fill="#3a404a"/>
      <path id="Path_4395" data-name="Path 4395" d="M1097.9,913.107v20h-.306V913.176C1097.7,913.154,1097.8,913.129,1097.9,913.107Z" transform="translate(-1088.346 -912.719)" fill="#3a404a"/>
      <path id="Path_4396" data-name="Path 4396" d="M1091.058,914.789v19.769h-.306V914.877C1090.856,914.846,1090.957,914.817,1091.058,914.789Z" transform="translate(-1082.431 -914.174)" fill="#3a404a"/>
      <path id="Path_4397" data-name="Path 4397" d="M1084.218,916.843v19.492h-.306V916.95C1084.013,916.912,1084.117,916.878,1084.218,916.843Z" transform="translate(-1076.514 -915.951)" fill="#3a404a"/>
      <path id="Path_4398" data-name="Path 4398" d="M1077.375,919.388v19.148h-.3V919.514C1077.173,919.467,1077.274,919.426,1077.375,919.388Z" transform="translate(-1070.598 -918.152)" fill="#3a404a"/>
      <path id="Path_4399" data-name="Path 4399" d="M1070.535,922.422v18.739h-.3V922.573Z" transform="translate(-1064.682 -920.777)" fill="#3a404a"/>
      <path id="Path_4400" data-name="Path 4400" d="M1063.695,926.133v18.238h-.3V926.319C1063.493,926.253,1063.594,926.19,1063.695,926.133Z" transform="translate(-1058.765 -923.987)" fill="#3a404a"/>
      <path id="Path_4401" data-name="Path 4401" d="M1056.855,930.615v17.632h-.142v-5.8h-.161v-11.6C1056.651,930.77,1056.755,930.691,1056.855,930.615Z" transform="translate(-1052.849 -927.863)" fill="#3a404a"/>
      <path id="Path_4402" data-name="Path 4402" d="M1050.016,936.264v11.067h-.3V936.554C1049.814,936.453,1049.911,936.359,1050.016,936.264Z" transform="translate(-1046.933 -932.75)" fill="#3a404a"/>
      <path id="Path_4403" data-name="Path 4403" d="M1043.155,943.548v10.083h-.306v-9.689C1042.947,943.807,1043.048,943.674,1043.155,943.548Z" transform="translate(-1040.996 -939.05)" fill="#3a404a"/>
      <path id="Path_4404" data-name="Path 4404" d="M1036.316,953.633v8.722h-.306v-8.116C1036.1,954.03,1036.205,953.828,1036.316,953.633Z" transform="translate(-1035.08 -947.773)" fill="#3a404a"/>
      <path id="Path_4405" data-name="Path 4405" d="M1029.476,971.188v6.351h-.145a12.047,12.047,0,0,1-.161-1.627v-2.827A11.453,11.453,0,0,1,1029.476,971.188Z" transform="translate(-1029.164 -962.958)" fill="#3a404a"/>
      <rect id="Rectangle_382" data-name="Rectangle 382" width="0.304" height="9.586" transform="translate(12.963 10.798)" fill="#3a404a"/>
      <rect id="Rectangle_383" data-name="Rectangle 383" width="0.304" height="9.586" transform="translate(13.908 10.798)" fill="#3a404a"/>
      <rect id="Rectangle_384" data-name="Rectangle 384" width="0.304" height="9.586" transform="translate(14.854 10.798)" fill="#3a404a"/>
      <rect id="Rectangle_385" data-name="Rectangle 385" width="0.304" height="9.586" transform="translate(15.8 10.798)" fill="#3a404a"/>
      <rect id="Rectangle_386" data-name="Rectangle 386" width="0.304" height="9.586" transform="translate(16.745 10.798)" fill="#3a404a"/>
      <rect id="Rectangle_387" data-name="Rectangle 387" width="0.304" height="9.586" transform="translate(17.691 10.798)" fill="#3a404a"/>
      <g id="Group_1519" data-name="Group 1519" transform="translate(0 10.194)">
        <path id="Path_4391" data-name="Path 4391" d="M1053.765,985.731V988.1a12.321,12.321,0,0,1-24.475,2.023,12.083,12.083,0,0,1-.161-1.626c0-.132-.006-.265-.006-.4h4.728a7.6,7.6,0,0,0,14.59,2.956c.082-.192.155-.391.221-.592h-7.521v-4.728Z" transform="translate(-1029.123 -985.731)" fill="#3a404a"/>
      </g>
    </g>
    <rect id="Rectangle_388" data-name="Rectangle 388" width="5.232" height="25.194" transform="translate(253.373 902.068)" fill="#15222b"/>
    <rect id="Rectangle_389" data-name="Rectangle 389" width="5.232" height="25.194" transform="translate(389.134 902.068)" fill="#3a404a"/>
  </g>
</svg>
