<svg xmlns="http://www.w3.org/2000/svg" width="122" height="122.005" viewBox="0 0 122 122.005">
  <g id="img-analysis" transform="translate(0 0)">
    <path id="Path_4937" data-name="Path 4937" d="M282.46,80.63a6.295,6.295,0,1,0-6.3,6.3A6.3,6.3,0,0,0,282.46,80.63Zm-9.015,0a2.72,2.72,0,1,1,2.72,2.721A2.723,2.723,0,0,1,273.445,80.63Zm0,0" transform="translate(-205.563 -56.622)" fill="#fff"/>
    <path id="Path_4938" data-name="Path 4938" d="M120.468,36.84a5.244,5.244,0,0,0,0-7.407l-5.217-5.217a5.244,5.244,0,0,0-7.407,0l-7.526,7.525v-8.8a1.787,1.787,0,1,0-3.574,0v12.38L83.757,48.3V14.414a1.788,1.788,0,0,0-1.787-1.787H53.375a1.787,1.787,0,1,0,0,3.574H80.182V31.233L69.228,40.755l-10.3-7.883A20.788,20.788,0,0,0,41.816,18.7V16.2h3.932a1.787,1.787,0,0,0,0-3.574H40.029a1.788,1.788,0,0,0-1.787,1.787v4.13A20.67,20.67,0,0,0,25.255,23.8V3.575H96.743V15.251a1.787,1.787,0,1,0,3.574,0V1.787A1.786,1.786,0,0,0,98.53,0H23.468a1.787,1.787,0,0,0-1.787,1.787V27.934a20.916,20.916,0,0,0,0,22.859v.61L1.567,71.518A5.362,5.362,0,0,0,9.151,79.1L21.682,66.567V99.01a1.787,1.787,0,0,0,3.574,0V62.993l4.831-4.832A20.837,20.837,0,0,0,56.1,51.468H80.59L68.562,63.5H34.073a1.787,1.787,0,1,0,0,3.574H64.987L60.619,71.44H34.073a1.787,1.787,0,1,0,0,3.574H57.045l-4.367,4.367h-18.6a1.787,1.787,0,1,0,0,3.574H49.1l-4.37,4.37H34.073a1.787,1.787,0,1,0,0,3.574h7.085l-1.741,1.741a2.955,2.955,0,0,0-.712,3.014c-2.208,1.47-5.161,4.921-6.045,12.99a3.059,3.059,0,0,0,3.377,3.377c8.069-.881,11.521-3.835,12.99-6.044a2.975,2.975,0,0,0,.927.151,2.944,2.944,0,0,0,2.088-.863l22.309-22.31H86.5a1.787,1.787,0,0,0,0-3.574h-8.57l4.368-4.367h4.2a1.787,1.787,0,1,0,0-3.574h-.627L96.743,60.565V93.291H84.926a4.75,4.75,0,0,0-4.744,4.744V108.8a4.75,4.75,0,0,0,4.744,4.744H96.743v4.885H25.255V106.874a1.787,1.787,0,0,0-3.574,0v13.344a1.787,1.787,0,0,0,1.787,1.787H98.53a1.786,1.786,0,0,0,1.787-1.787v-6.672h13.008a4.75,4.75,0,0,0,4.744-4.744V98.036a4.749,4.749,0,0,0-4.744-4.744H100.317v-36.3ZM83.757,108.8V98.036a1.172,1.172,0,0,1,1.17-1.17H92.95v13.106H84.927A1.172,1.172,0,0,1,83.757,108.8ZM96.525,96.865H100.1v13.106H96.525Zm17.971,1.17V108.8a1.171,1.171,0,0,1-1.17,1.17h-9.653V96.865h9.653A1.172,1.172,0,0,1,114.5,98.036ZM55,97.25l-7.57-7.569L98.792,38.321l7.569,7.569ZM49.955,102.3l-7.57-7.569,2.522-2.522,7.569,7.57Zm53.886-69.026,7.569,7.569-2.521,2.522-7.569-7.569Zm6.53-6.53a1.665,1.665,0,0,1,2.352,0l5.217,5.217a1.665,1.665,0,0,1,0,2.352l-4,4-7.569-7.569ZM80.182,35.969V47.894H78.557l-6.431-4.921ZM6.623,76.572a1.787,1.787,0,0,1-2.529-2.526L24.209,53.93c.057.059.111.119.168.178a21.073,21.073,0,0,0,2.544,2.163Zm32.5-19.94A17.267,17.267,0,1,1,51.338,51.58,17.156,17.156,0,0,1,39.122,56.632Zm19.021-8.738a20.925,20.925,0,0,0,1.779-9.759l12.752,9.759Zm-21.928,61.14h0Zm.075-.64c.9-7.026,3.468-9.279,4.73-9.975l1.359,1.359-2.1,2.1a1.787,1.787,0,1,0,2.527,2.527l2.1-2.1,1.367,1.366c-.68,1.235-2.926,3.817-9.983,4.722Zm0,0" transform="translate(0 0)" fill="#fff"/>
  </g>
</svg>
