<svg xmlns="http://www.w3.org/2000/svg" width="122" height="122.035" viewBox="0 0 122 122.035">
  <g id="internet-of-things" transform="translate(-16 -15.907)">
    <path id="Path_4891" data-name="Path 4891" d="M16,97.264a10.16,10.16,0,0,0,15.769,8.478l16.419,16.419A10.165,10.165,0,1,0,66.63,129.8H87.373a10.167,10.167,0,1,0,18.44-7.636l8.845-8.845-2.876-2.876-8.845,8.845a10.16,10.16,0,0,0-15.566,6.445H66.63a10.192,10.192,0,0,0-4.376-6.456l1.182-2.956-3.776-1.51-1.181,2.953a10.115,10.115,0,0,0-7.413,1.525L34.646,102.867a10.115,10.115,0,0,0,1.525-7.413l15.153-6.061-1.51-3.776L34.656,91.678A10.192,10.192,0,0,0,28.2,87.3V66.56a10.192,10.192,0,0,0,6.456-4.377l15.156,6.063,1.51-3.776L36.169,58.408a10.115,10.115,0,0,0-1.525-7.413L47.3,38.337l-2.874-2.876L31.769,48.119A10.165,10.165,0,1,0,24.133,66.56V87.3A10.184,10.184,0,0,0,16,97.264Zm81.333,24.4a6.1,6.1,0,1,1-6.1,6.1,6.1,6.1,0,0,1,6.1-6.1Zm-40.667,0a6.1,6.1,0,1,1-6.1,6.1,6.1,6.1,0,0,1,6.1-6.1ZM20.067,56.6a6.1,6.1,0,1,1,6.1,6.1A6.1,6.1,0,0,1,20.067,56.6Zm6.1,34.567a6.1,6.1,0,1,1-6.1,6.1A6.1,6.1,0,0,1,26.167,91.164ZM138,56.6a10.16,10.16,0,0,0-15.769-8.478L105.812,31.7a10.165,10.165,0,1,0-18.441-7.636H66.63A10.178,10.178,0,1,0,58.479,36.1l1.181,2.953,3.776-1.51-1.184-2.956A10.192,10.192,0,0,0,66.63,28.13H87.373a10.192,10.192,0,0,0,4.376,6.456l-2,4.989,3.776,1.51L95.524,36.1a10.115,10.115,0,0,0,7.413-1.525l16.419,16.419a10.115,10.115,0,0,0-1.525,7.413l-15.153,6.061,1.51,3.776,15.156-6.063A10.192,10.192,0,0,0,125.8,66.56V87.3a10.192,10.192,0,0,0-6.456,4.377l-6.006-2.4-1.51,3.776,6,2.4a10.115,10.115,0,0,0,1.525,7.413l-4.016,4.016,2.876,2.876,4.016-4.016A10.165,10.165,0,1,0,129.867,87.3V66.56A10.184,10.184,0,0,0,138,56.6ZM56.667,32.2a6.1,6.1,0,1,1,6.1-6.1A6.1,6.1,0,0,1,56.667,32.2Zm40.667,0a6.1,6.1,0,1,1,6.1-6.1A6.1,6.1,0,0,1,97.333,32.2Zm36.6,65.067a6.1,6.1,0,1,1-6.1-6.1A6.1,6.1,0,0,1,133.933,97.264Zm-6.1-34.567a6.1,6.1,0,1,1,6.1-6.1,6.1,6.1,0,0,1-6.1,6.1ZM58.7,58.63V105.4a4.071,4.071,0,0,0,4.067,4.067H85.133v4.067H62.767a8.142,8.142,0,0,1-8.133-8.133V58.63Zm46.767,48.8V85.208a8.08,8.08,0,0,0-2.382-5.751l-3.718-3.718V90.321l3.471,3.471-2.876,2.876L95.9,92.6l-6.87-6.87A2.28,2.28,0,1,0,85.8,88.956l6.87,6.87a2.033,2.033,0,0,1,.254,2.566,10.624,10.624,0,0,0-.661,10.62l.788,1.576a2.032,2.032,0,0,1,.214.909v2.033H89.2v-1.553l-.573-1.147a14.7,14.7,0,0,1,.061-13.237l-5.762-5.762A6.347,6.347,0,1,1,91.9,82.856l3.4,3.4V50.5a4.071,4.071,0,0,0-4.067-4.067H86.39l-1.471,2.943A2.033,2.033,0,0,1,83.1,50.5H70.9a2.033,2.033,0,0,1-1.819-1.124L67.61,46.43H62.767A4.071,4.071,0,0,0,58.7,50.5v4.067H54.633V50.5a8.142,8.142,0,0,1,8.133-8.133H91.233A8.142,8.142,0,0,1,99.367,50.5V69.988l6.593,6.593a12.12,12.12,0,0,1,3.573,8.627V107.43Zm-32.533-6.1h8.133V105.4H72.933Zm8.729-25a6.6,6.6,0,0,0-9.324,0l-2.876-2.876a10.672,10.672,0,0,1,15.076,0Zm6.1-5.113a15.22,15.22,0,0,0-21.524,0l-2.876-2.875a19.309,19.309,0,0,1,27.276,0ZM79.033,83.03V87.1H74.967V83.03Zm-12.2,0H70.9V87.1H66.833Z" transform="translate(0 0)" fill="#fff"/>
  </g>
</svg>
