<svg id="location-icon" xmlns="http://www.w3.org/2000/svg" width="31.188" height="35.69" viewBox="0 0 31.188 35.69">
  <path id="Path_11212" data-name="Path 11212" d="M31.805,28.059c.068-.113.137-.224.205-.339,3.08-5.163,4.63-9.68,4.608-13.423a9.625,9.625,0,1,0-19.249,0c-.022,3.745,1.528,8.262,4.608,13.425.068.115.137.226.205.339C15.7,28.871,11.4,31.217,11.4,34c0,3.5,6.848,6.238,15.594,6.238S42.588,37.5,42.588,34c0-2.786-4.3-5.133-10.783-5.944ZM18.408,14.3a8.587,8.587,0,1,1,17.174,0c.044,7.464-6.846,16.667-8.587,18.874C25.253,30.967,18.363,21.763,18.408,14.3ZM26.994,39.19c-8.708,0-14.556-2.682-14.556-5.187,0-2.221,4.337-4.288,10.357-4.959a55.605,55.605,0,0,0,3.8,5.3.514.514,0,0,0,.79,0,55.6,55.6,0,0,0,3.8-5.3c6.018.67,10.357,2.736,10.357,4.959,0,2.5-5.849,5.187-14.557,5.187Z" transform="translate(-11.4 -4.55)" fill="#fff"/>
  <path id="Path_11213" data-name="Path 11213" d="M34.581,106.179a10.681,10.681,0,0,1-4.431-1.478.4.4,0,0,0-.608.172.585.585,0,0,0,.145.723,11.422,11.422,0,0,0,4.782,1.625.364.364,0,0,0,.057,0,.483.483,0,0,0,.439-.492A.51.51,0,0,0,34.581,106.179Z" transform="translate(-23.911 -74.582)" fill="#fff"/>
  <path id="Path_11214" data-name="Path 11214" d="M60.007,110.609c-.616.017-1.257.013-1.883-.014a.482.482,0,0,0-.458.506.5.5,0,0,0,.426.545c.388.017.783.026,1.174.026q.386,0,.763-.011a.494.494,0,0,0,.432-.537.57.57,0,0,0-.135-.37.4.4,0,0,0-.317-.143Z" transform="translate(-43.71 -78.761)" fill="#fff"/>
  <path id="Path_11215" data-name="Path 11215" d="M56.684,26.68c0-2.449-1.671-4.436-3.731-4.436s-3.731,1.986-3.731,4.436,1.671,4.436,3.731,4.436S56.682,29.129,56.684,26.68Zm-6.579,0a3.152,3.152,0,0,1,2.847-3.385A3.152,3.152,0,0,1,55.8,26.68a3.152,3.152,0,0,1-2.847,3.386A3.155,3.155,0,0,1,50.1,26.68Z" transform="translate(-37.359 -16.933)" fill="#fff"/>
</svg>
