<svg id="mobile-development" xmlns="http://www.w3.org/2000/svg" width="63.919" height="63.919" viewBox="0 0 63.919 63.919">
  <path id="Path_4462" data-name="Path 4462" d="M31,5h6.186V7.062H31Z" transform="translate(-0.071 -0.876)"/>
  <path id="Path_4463" data-name="Path 4463" d="M27,5h2.062V7.062H27Z" transform="translate(-0.195 -0.876)"/>
  <path id="Path_4464" data-name="Path 4464" d="M21.666,53h-.6A2.064,2.064,0,0,0,19,55.062v2.062a2.064,2.064,0,0,0,2.062,2.062h.6a2.048,2.048,0,0,0,1.458-.6l2.489-2.489L23.124,53.6A2.048,2.048,0,0,0,21.666,53Zm0,4.124h-.6V55.062h.6L22.7,56.093Z" transform="translate(-0.443 0.609)"/>
  <path id="Path_4465" data-name="Path 4465" d="M33.124,53H31.062A2.064,2.064,0,0,0,29,55.062v2.062a2.064,2.064,0,0,0,2.062,2.062h2.062a2.064,2.064,0,0,0,2.062-2.062V55.062A2.064,2.064,0,0,0,33.124,53Zm-2.062,4.124V55.062h2.062v2.062Z" transform="translate(-0.133 0.609)"/>
  <path id="Path_4466" data-name="Path 4466" d="M43.137,53h-.6a2.048,2.048,0,0,0-1.458.6l-2.489,2.489,2.489,2.489a2.048,2.048,0,0,0,1.458.6h.6A2.064,2.064,0,0,0,45.2,57.124V55.062A2.064,2.064,0,0,0,43.137,53Zm-.6,4.124L41.5,56.093l1.031-1.031h.6v2.062Z" transform="translate(0.163 0.609)"/>
  <path id="Path_4467" data-name="Path 4467" d="M25.557,32.279a9.279,9.279,0,1,0-9.279,9.279A9.29,9.29,0,0,0,25.557,32.279Zm-16.5,0A7.217,7.217,0,1,1,16.279,39.5,7.225,7.225,0,0,1,9.062,32.279Z" transform="translate(-0.814 -0.319)"/>
  <path id="Path_4468" data-name="Path 4468" d="M21.31,32.155a5.155,5.155,0,1,0-5.155,5.155A5.161,5.161,0,0,0,21.31,32.155Zm-8.248,0a3.093,3.093,0,1,1,3.093,3.093A3.1,3.1,0,0,1,13.062,32.155Z" transform="translate(-0.69 -0.195)"/>
  <path id="Path_4469" data-name="Path 4469" d="M52.548,21.619V6.155A5.161,5.161,0,0,0,47.393,1H18.526a5.161,5.161,0,0,0-5.155,5.155V17.5h-.8l-.735,2.889c-.329.123-.659.26-.986.412L8.283,19.271,2.775,24.778,4.3,27.344c-.152.327-.29.657-.412.986L1,29.066v7.789l2.889.735c.123.329.26.659.412.986L2.775,41.142l5.507,5.507,2.567-1.526q.49.227.986.412l.735,2.888h.8v11.34a5.161,5.161,0,0,0,5.155,5.155H47.393a5.161,5.161,0,0,0,5.155-5.155v-13.4a12.371,12.371,0,0,0,0-24.743ZM62.857,33.99a10.251,10.251,0,0,1-1.747,5.734,9.222,9.222,0,0,0-5.077-5.053,5.155,5.155,0,1,0-6.969,0,9.222,9.222,0,0,0-5.077,5.053A10.308,10.308,0,1,1,62.857,33.99ZM49.455,30.9a3.093,3.093,0,1,1,3.093,3.093A3.1,3.1,0,0,1,49.455,30.9Zm-29.9,17.526h.8l.735-2.889c.329-.123.659-.26.986-.412l2.567,1.526,5.507-5.507-1.526-2.567q.227-.49.412-.986l2.889-.735V29.065l-2.889-.735c-.123-.329-.26-.659-.412-.986l1.526-2.566L24.646,19.27,22.079,20.8q-.49-.227-.986-.412L20.358,17.5h-.8V11.309h26.8V23.293a12.342,12.342,0,0,0,0,21.394v5.8h-26.8ZM15.433,6.155a3.1,3.1,0,0,1,3.093-3.093H47.393a3.1,3.1,0,0,1,3.093,3.093V21.806a12.279,12.279,0,0,0-2.062.535V9.248H17.5V17.5H15.433Zm-4.158,36.88-.508-.262-2.16,1.285-3.24-3.24,1.285-2.16-.262-.508a11.347,11.347,0,0,1-.726-1.735L5.49,35.87l-2.428-.619V30.669l2.427-.618.174-.544a11.4,11.4,0,0,1,.726-1.736l.262-.508L5.366,25.1l3.24-3.24,2.16,1.285.508-.262a11.347,11.347,0,0,1,1.735-.726l.544-.174.619-2.428h4.583l.618,2.427.544.174a11.3,11.3,0,0,1,1.735.726l.508.262,2.16-1.285,3.24,3.24-1.285,2.16.262.508a11.4,11.4,0,0,1,.726,1.736l.174.544,2.429.618V35.25l-2.427.618-.174.544a11.3,11.3,0,0,1-.726,1.735l-.262.508,1.285,2.16-3.24,3.24-2.16-1.285-.508.262a11.347,11.347,0,0,1-1.735.726l-.544.174-.619,2.429H14.173l-.618-2.427-.544-.174A11.314,11.314,0,0,1,11.275,43.035Zm39.21,16.729a3.1,3.1,0,0,1-3.093,3.093H18.526a3.1,3.1,0,0,1-3.093-3.093V48.424H17.5v4.124H48.424V45.64a12.18,12.18,0,0,0,2.062.535ZM45.553,41.542a7.2,7.2,0,0,1,13.99,0,10.25,10.25,0,0,1-13.99,0Z" transform="translate(-1 -1)"/>
  <path id="Path_4470" data-name="Path 4470" d="M31,12.382V26.028L44.646,19.2Zm2.062,3.336L40.035,19.2l-6.973,3.487Z" transform="translate(-0.071 -0.648)"/>
</svg>
