<svg xmlns="http://www.w3.org/2000/svg" width="22.915" height="24.91" viewBox="0 0 22.915 24.91">
  <g id="skype" transform="translate(0 0)">
    <g id="Group_11304" data-name="Group 11304" transform="translate(18.169 4.198)">
      <g id="Group_11303" data-name="Group 11303">
        <path id="Path_11204" data-name="Path 11204" d="M410.18,82.989a.423.423,0,0,0-.634,0,.518.518,0,0,0,0,.689l0,0a.422.422,0,0,0,.632,0A.519.519,0,0,0,410.18,82.989Z" transform="translate(-409.415 -82.846)" fill="#fff"/>
      </g>
    </g>
    <g id="Group_11306" data-name="Group 11306" transform="translate(0)">
      <g id="Group_11305" data-name="Group 11305">
        <path id="Path_11205" data-name="Path 11205" d="M22.292,14.833A1.609,1.609,0,0,1,22.169,14a12.885,12.885,0,0,0,.089-1.738,12.393,12.393,0,0,0-1.825-6.311.426.426,0,0,0-.621-.133.513.513,0,0,0-.122.675,11.363,11.363,0,0,1,1.673,5.786,11.841,11.841,0,0,1-.082,1.595,2.656,2.656,0,0,0,.2,1.378,6.467,6.467,0,0,1,.538,2.646,5.878,5.878,0,0,1-5.547,6.04,5.172,5.172,0,0,1-2.448-.587,2.043,2.043,0,0,0-1.241-.206,9.214,9.214,0,0,1-1.325.1C6,23.24,1.553,18.409,1.553,12.471a11.814,11.814,0,0,1,.087-1.429,2.578,2.578,0,0,0-.194-1.357A6.463,6.463,0,0,1,.9,7.019,5.87,5.87,0,0,1,6.468.973a5.151,5.151,0,0,1,2.443.6,2.089,2.089,0,0,0,1.265.223,9.218,9.218,0,0,1,6.8,1.742A.426.426,0,0,0,17.6,3.4a.513.513,0,0,0-.121-.675,10.052,10.052,0,0,0-7.415-1.9A1.259,1.259,0,0,1,9.3.693,6,6,0,0,0,6.492,0H6.465A6.81,6.81,0,0,0,0,7.014,7.5,7.5,0,0,0,.64,10.108a1.533,1.533,0,0,1,.113.807,12.874,12.874,0,0,0-.095,1.557,12.2,12.2,0,0,0,3.164,8.3,10.314,10.314,0,0,0,7.637,3.439,10.041,10.041,0,0,0,1.444-.1,1.213,1.213,0,0,1,.737.12,6,6,0,0,0,2.785.682h.055A6.819,6.819,0,0,0,22.916,17.9,7.5,7.5,0,0,0,22.292,14.833Z" transform="translate(-0.002 0)" fill="#fff"/>
      </g>
    </g>
    <g id="Group_11308" data-name="Group 11308" transform="translate(5.286 5.383)">
      <g id="Group_11307" data-name="Group 11307">
        <path id="Path_11206" data-name="Path 11206" d="M130.346,97.993c-1-2.236-3.478-2.757-5.874-3.26-.379-.08-.771-.162-1.153-.25-.364-.083-1.2-.334-1.132-.861a1.921,1.921,0,0,1,1.993-1.116,4.2,4.2,0,0,1,2.572,1.238c.593.486,1.1.905,1.711.835a1.742,1.742,0,0,0,1.435-1.188,2.142,2.142,0,0,0-.927-2.3,7.8,7.8,0,0,0-5.916-1.543,5.479,5.479,0,0,0-3.016,1.172,4.383,4.383,0,0,0-1.567,3.028,3.3,3.3,0,0,0,1.792,3.153,9.882,9.882,0,0,0,3.747,1.272c1.352.189,2.417.632,2.59,1.075.073.186-.022.424-.281.706-1.016,1.1-3.086.425-3.687.069a3.294,3.294,0,0,1-.544-.5,2.937,2.937,0,0,0-2.226-1.2,1.656,1.656,0,0,0-1.477,1.055,2.31,2.31,0,0,0,.887,2.5,6.91,6.91,0,0,0,5.181,1.765q.406,0,.855-.022h0a6.1,6.1,0,0,0,4.7-2.5A3.183,3.183,0,0,0,130.346,97.993Zm-1.094,2.68a5.243,5.243,0,0,1-3.992,2.1c-2.908.143-4.173-.447-5.376-1.515a1.537,1.537,0,0,1-.656-1.594.766.766,0,0,1,.692-.493l.06,0c.554,0,1.007.47,1.445.925a3.756,3.756,0,0,0,.733.647,5.693,5.693,0,0,0,2.08.636,3.149,3.149,0,0,0,2.755-.867,1.447,1.447,0,0,0,.447-1.559c-.431-1.106-2.451-1.5-3.3-1.621a8.853,8.853,0,0,1-3.379-1.137,2.486,2.486,0,0,1-1.4-2.369,3.831,3.831,0,0,1,3.772-3.432,6.844,6.844,0,0,1,5.254,1.342c.564.458.8.958.652,1.409a.858.858,0,0,1-.685.59c-.215.024-.64-.325-1.017-.634a5.069,5.069,0,0,0-3.144-1.445,3.524,3.524,0,0,0-1.928.528,1.981,1.981,0,0,0-.968,1.331c-.042.314-.034,1.371,1.81,1.793.39.09.786.173,1.17.254,2.275.478,4.424.929,5.242,2.761A2.386,2.386,0,0,1,129.252,100.673Z" transform="translate(-118.275 -89.5)" fill="#fff"/>
      </g>
    </g>
    <g id="Group_11310" data-name="Group 11310" transform="translate(2.169 6.522)">
      <g id="Group_11309" data-name="Group 11309">
        <path id="Path_11207" data-name="Path 11207" d="M48.864,134.063h-.009a.468.468,0,0,0-.448.478v.017a.468.468,0,0,0,.447.486h0a.492.492,0,0,0,.009-.98Z" transform="translate(-48.407 -134.063)" fill="#fff"/>
      </g>
    </g>
    <g id="Group_11312" data-name="Group 11312" transform="translate(2.527 2.354)">
      <g id="Group_11311" data-name="Group 11311">
        <path id="Path_11208" data-name="Path 11208" d="M60.333,48.32h0a4.34,4.34,0,0,0-3.9,2.728.506.506,0,0,0,.217.647.416.416,0,0,0,.189.046.447.447,0,0,0,.407-.282,3.441,3.441,0,0,1,3.093-2.165.489.489,0,0,0,0-.974Z" transform="translate(-56.387 -48.32)" fill="#fff"/>
      </g>
    </g>
  </g>
</svg>
