<svg xmlns="http://www.w3.org/2000/svg" width="123.375" height="129.274" viewBox="0 0 123.375 129.274">
  <g id="software_development" data-name="software development" transform="translate(-0.548)">
    <path id="Path_4495" data-name="Path 4495" d="M71.192,129.274H53.277a9.235,9.235,0,0,1-9.055-7.266l-2.273-10.089a49.48,49.48,0,0,1-10.525-6.108l-9.814,3.1a9.359,9.359,0,0,1-10.9-4.244L1.777,89.215a9.418,9.418,0,0,1,1.734-11.5l7.606-6.992a53.491,53.491,0,0,1-.005-12.173L3.544,51.591A9.4,9.4,0,0,1,1.75,40.113l8.985-15.54A9.324,9.324,0,0,1,21.6,20.366l9.825,3.1a49.612,49.612,0,0,1,10.525-6.108L44.222,7.261A9.236,9.236,0,0,1,53.277,0H71.192a9.235,9.235,0,0,1,9.055,7.266L82.52,17.355a49.48,49.48,0,0,1,10.525,6.108l9.814-3.1a9.347,9.347,0,0,1,10.9,4.244l8.931,15.448a9.418,9.418,0,0,1-1.734,11.5l-7.606,6.992a53.907,53.907,0,0,1,0,12.173l7.573,6.959.032.032a9.386,9.386,0,0,1,1.761,11.446l-8.985,15.54a9.33,9.33,0,0,1-10.864,4.207l-9.83-3.1a49.613,49.613,0,0,1-10.525,6.108l-2.273,10.094a9.225,9.225,0,0,1-9.049,7.266Zm-38.938-32a4.065,4.065,0,0,1,2.575.921,41.446,41.446,0,0,0,12,6.965,4.048,4.048,0,0,1,2.542,2.9l2.742,12.173a1.222,1.222,0,0,0,1.174.959H71.2a1.228,1.228,0,0,0,1.174-.953l2.742-12.173a4.037,4.037,0,0,1,2.542-2.9,41.569,41.569,0,0,0,12-6.965,4.024,4.024,0,0,1,3.787-.738l11.855,3.744a1.2,1.2,0,0,0,1.427-.5l8.985-15.534a1.309,1.309,0,0,0-.264-1.557l-9.092-8.36a4.016,4.016,0,0,1-1.255-3.577,47.659,47.659,0,0,0,.539-7.04,46.993,46.993,0,0,0-.539-7.04,4.045,4.045,0,0,1,1.255-3.577l9.114-8.381a1.311,1.311,0,0,0,.215-1.584l-8.931-15.443a1.228,1.228,0,0,0-1.465-.539L93.454,31.812a4.025,4.025,0,0,1-3.787-.738,41.446,41.446,0,0,0-12-6.965,4.048,4.048,0,0,1-2.542-2.9L72.382,9.033a1.261,1.261,0,0,0-1.19-.953H53.277a1.228,1.228,0,0,0-1.174.953L49.361,21.212a4.04,4.04,0,0,1-2.537,2.9,41.446,41.446,0,0,0-12,6.965,4.039,4.039,0,0,1-3.787.738L19.181,28.074a1.209,1.209,0,0,0-1.427.5L8.769,44.1a1.311,1.311,0,0,0,.275,1.567L18.13,54.02A4.016,4.016,0,0,1,19.385,57.6a47.658,47.658,0,0,0-.539,7.04,46.991,46.991,0,0,0,.539,7.04,4.045,4.045,0,0,1-1.255,3.577L9.017,83.635A1.311,1.311,0,0,0,8.8,85.218l8.931,15.443a1.21,1.21,0,0,0,1.465.539l11.839-3.738A3.933,3.933,0,0,1,32.254,97.273Z" transform="translate(0 0)" fill="#fff"/>
    <path id="Path_4496" data-name="Path 4496" d="M14.547,51.09A4.034,4.034,0,0,1,10.6,46.145l8.08-35.012a4.037,4.037,0,1,1,7.87,1.81l-8.08,35.012A4.032,4.032,0,0,1,14.547,51.09Z" transform="translate(43.653 35.092)" fill="#fff"/>
    <path id="Path_4497" data-name="Path 4497" d="M18.542,41.317a4.04,4.04,0,0,1-2.7-7.045L25.97,25.158,15.838,16.044a4.043,4.043,0,1,1,5.408-6.011L34.712,22.152a4.049,4.049,0,0,1,0,6.011L21.246,40.283a4.033,4.033,0,0,1-2.7,1.034Z" transform="translate(61.198 39.479)" fill="#fff"/>
    <path id="Path_4498" data-name="Path 4498" d="M23.006,41.32a4.033,4.033,0,0,1-2.7-1.034L6.836,28.167a4.049,4.049,0,0,1,0-6.011L20.3,10.036a4.043,4.043,0,0,1,5.408,6.011L15.578,25.161,25.71,34.275a4.04,4.04,0,0,1-2.7,7.045Z" transform="translate(21.723 39.476)" fill="#fff"/>
  </g>
</svg>
