<svg xmlns="http://www.w3.org/2000/svg" width="122" height="120.094" viewBox="0 0 122 120.094">
  <g id="virtual-reality" transform="translate(0 -4)">
    <g id="Group_1796" data-name="Group 1796" transform="translate(30.5 93.594)">
      <g id="Group_1795" data-name="Group 1795">
        <path id="Path_4892" data-name="Path 4892" d="M141.344,380A13.359,13.359,0,0,0,128,393.342a1.906,1.906,0,0,0,3.813,0,9.54,9.54,0,0,1,9.531-9.529,1.906,1.906,0,0,0,0-3.812Z" transform="translate(-128 -380)" fill="#fff"/>
      </g>
    </g>
    <g id="Group_1798" data-name="Group 1798" transform="translate(41.938 93.594)">
      <g id="Group_1797" data-name="Group 1797">
        <path id="Path_4893" data-name="Path 4893" d="M185.531,380l-7.625,0a1.906,1.906,0,0,0,0,3.813l7.625,0a1.906,1.906,0,0,0,0-3.812Z" transform="translate(-176 -380)" fill="#fff"/>
      </g>
    </g>
    <g id="Group_1800" data-name="Group 1800" transform="translate(30.5 105.576)">
      <g id="Group_1799" data-name="Group 1799">
        <path id="Path_4894" data-name="Path 4894" d="M129.906,430.288A1.9,1.9,0,0,0,128,432.194v10.892a1.906,1.906,0,0,0,3.813,0V432.194A1.9,1.9,0,0,0,129.906,430.288Z" transform="translate(-128 -430.288)" fill="#fff"/>
      </g>
    </g>
    <g id="Group_1802" data-name="Group 1802" transform="translate(76.25 93.594)">
      <g id="Group_1801" data-name="Group 1801">
        <path id="Path_4895" data-name="Path 4895" d="M321.906,380a1.906,1.906,0,0,0,0,3.813,9.54,9.54,0,0,1,9.531,9.529,1.906,1.906,0,0,0,3.813,0A13.359,13.359,0,0,0,321.906,380Z" transform="translate(-320 -380)" fill="#fff"/>
      </g>
    </g>
    <g id="Group_1804" data-name="Group 1804" transform="translate(68.625 93.594)">
      <g id="Group_1803" data-name="Group 1803">
        <path id="Path_4896" data-name="Path 4896" d="M297.531,380l-7.625,0a1.906,1.906,0,0,0,0,3.813l7.625,0a1.906,1.906,0,0,0,0-3.812Z" transform="translate(-288 -380)" fill="#fff"/>
      </g>
    </g>
    <g id="Group_1806" data-name="Group 1806" transform="translate(87.688 105.576)">
      <g id="Group_1805" data-name="Group 1805">
        <path id="Path_4897" data-name="Path 4897" d="M369.906,430.288A1.9,1.9,0,0,0,368,432.194v10.892a1.906,1.906,0,0,0,3.813,0V432.194A1.9,1.9,0,0,0,369.906,430.288Z" transform="translate(-368 -430.288)" fill="#fff"/>
      </g>
    </g>
    <g id="Group_1808" data-name="Group 1808" transform="translate(34.313 120.281)">
      <g id="Group_1807" data-name="Group 1807">
        <path id="Path_4898" data-name="Path 4898" d="M195.469,492H145.906a1.906,1.906,0,0,0,0,3.813h49.563a1.906,1.906,0,0,0,0-3.812Z" transform="translate(-144 -492)" fill="#fff"/>
      </g>
    </g>
    <g id="Group_1810" data-name="Group 1810" transform="translate(49.563 87.494)">
      <g id="Group_1809" data-name="Group 1809">
        <path id="Path_4899" data-name="Path 4899" d="M209.906,354.4A1.9,1.9,0,0,0,208,356.306v6.1a1.906,1.906,0,0,0,3.813,0v-6.1A1.9,1.9,0,0,0,209.906,354.4Z" transform="translate(-208 -354.4)" fill="#fff"/>
      </g>
    </g>
    <g id="Group_1812" data-name="Group 1812" transform="translate(68.625 87.494)">
      <g id="Group_1811" data-name="Group 1811">
        <path id="Path_4900" data-name="Path 4900" d="M289.906,354.4A1.9,1.9,0,0,0,288,356.306v6.1a1.906,1.906,0,0,0,3.813,0v-6.1A1.9,1.9,0,0,0,289.906,354.4Z" transform="translate(-288 -354.4)" fill="#fff"/>
      </g>
    </g>
    <g id="Group_1814" data-name="Group 1814" transform="translate(38.125 68.813)">
      <g id="Group_1813" data-name="Group 1813">
        <path id="Path_4901" data-name="Path 4901" d="M203.844,276a1.9,1.9,0,0,0-1.906,1.906,19.063,19.063,0,0,1-38.125,0,1.906,1.906,0,0,0-3.812,0,22.875,22.875,0,0,0,45.75,0A1.9,1.9,0,0,0,203.844,276Z" transform="translate(-160 -276)" fill="#fff"/>
      </g>
    </g>
    <g id="Group_1816" data-name="Group 1816" transform="translate(38.125 51.656)">
      <g id="Group_1815" data-name="Group 1815">
        <path id="Path_4902" data-name="Path 4902" d="M161.906,204A1.9,1.9,0,0,0,160,205.906v17.158a1.906,1.906,0,0,0,3.813,0V205.906A1.9,1.9,0,0,0,161.906,204Z" transform="translate(-160 -204)" fill="#fff"/>
      </g>
    </g>
    <g id="Group_1818" data-name="Group 1818" transform="translate(80.063 51.656)">
      <g id="Group_1817" data-name="Group 1817">
        <path id="Path_4903" data-name="Path 4903" d="M337.906,204A1.9,1.9,0,0,0,336,205.906v17.16a1.906,1.906,0,1,0,3.813,0v-17.16A1.9,1.9,0,0,0,337.906,204Z" transform="translate(-336 -204)" fill="#fff"/>
      </g>
    </g>
    <g id="Group_1820" data-name="Group 1820" transform="translate(70.531 42.125)">
      <g id="Group_1819" data-name="Group 1819">
        <path id="Path_4904" data-name="Path 4904" d="M297.906,164a1.906,1.906,0,0,0,0,3.813,7.633,7.633,0,0,1,7.625,7.625,1.906,1.906,0,0,0,3.813,0A11.449,11.449,0,0,0,297.906,164Z" transform="translate(-296 -164)" fill="#fff"/>
      </g>
    </g>
    <g id="Group_1822" data-name="Group 1822" transform="translate(70.531 34.5)">
      <g id="Group_1821" data-name="Group 1821">
        <path id="Path_4905" data-name="Path 4905" d="M297.906,132A1.9,1.9,0,0,0,296,133.906v7.625a1.906,1.906,0,0,0,3.813,0v-7.625A1.9,1.9,0,0,0,297.906,132Z" transform="translate(-296 -132)" fill="#fff"/>
      </g>
    </g>
    <g id="Group_1824" data-name="Group 1824" transform="translate(55.281 34.5)">
      <g id="Group_1823" data-name="Group 1823">
        <path id="Path_4906" data-name="Path 4906" d="M249.156,132h-15.25a1.906,1.906,0,0,0,0,3.813h15.25a1.906,1.906,0,0,0,0-3.812Z" transform="translate(-232 -132)" fill="#fff"/>
      </g>
    </g>
    <g id="Group_1826" data-name="Group 1826" transform="translate(38.125 34.502)">
      <g id="Group_1825" data-name="Group 1825">
        <path id="Path_4907" data-name="Path 4907" d="M179.063,132.008A19.083,19.083,0,0,0,160,151.069a1.906,1.906,0,1,0,3.813,0,15.266,15.266,0,0,1,15.25-15.248,1.906,1.906,0,0,0,0-3.812Z" transform="translate(-160 -132.008)" fill="#fff"/>
      </g>
    </g>
    <g id="Group_1828" data-name="Group 1828" transform="translate(74.343 55.468)">
      <g id="Group_1827" data-name="Group 1827">
        <path id="Path_4908" data-name="Path 4908" d="M320.971,226.276l-5.719-5.719a1.906,1.906,0,0,0-2.7,2.7l5.719,5.719a1.906,1.906,0,0,0,2.7-2.7Z" transform="translate(-311.998 -219.998)" fill="#fff"/>
      </g>
    </g>
    <g id="Group_1830" data-name="Group 1830" transform="translate(43.843 55.468)">
      <g id="Group_1829" data-name="Group 1829">
        <path id="Path_4909" data-name="Path 4909" d="M218.083,221a1.905,1.905,0,0,0-2.581-.776,30.5,30.5,0,0,1-28.695,0A1.907,1.907,0,0,0,185,223.582a34.308,34.308,0,0,0,32.305,0A1.907,1.907,0,0,0,218.083,221Z" transform="translate(-183.999 -219.995)" fill="#fff"/>
      </g>
    </g>
    <g id="Group_1832" data-name="Group 1832" transform="translate(38.125 55.468)">
      <g id="Group_1831" data-name="Group 1831">
        <path id="Path_4910" data-name="Path 4910" d="M168.971,220.557a1.9,1.9,0,0,0-2.7,0l-5.719,5.719a1.906,1.906,0,1,0,2.7,2.7l5.719-5.719A1.9,1.9,0,0,0,168.971,220.557Z" transform="translate(-159.998 -219.998)" fill="#fff"/>
      </g>
    </g>
    <g id="Group_1834" data-name="Group 1834" transform="translate(49.562 93.595)">
      <g id="Group_1833" data-name="Group 1833">
        <path id="Path_4911" data-name="Path 4911" d="M215.065,384.376l-3.812-3.811a1.906,1.906,0,1,0-2.7,2.7l3.813,3.811a1.906,1.906,0,0,0,2.7-2.7Z" transform="translate(-207.998 -380.006)" fill="#fff"/>
      </g>
    </g>
    <g id="Group_1836" data-name="Group 1836" transform="translate(53.375 95.498)">
      <g id="Group_1835" data-name="Group 1835">
        <path id="Path_4912" data-name="Path 4912" d="M233.435,389.295a1.9,1.9,0,0,0-2.411-1.2L225.305,390a1.907,1.907,0,0,0,.6,3.715,1.928,1.928,0,0,0,.6-.1l5.719-1.906A1.9,1.9,0,0,0,233.435,389.295Z" transform="translate(-224.002 -387.991)" fill="#fff"/>
      </g>
    </g>
    <g id="Group_1838" data-name="Group 1838" transform="translate(64.812 93.595)">
      <g id="Group_1837" data-name="Group 1837">
        <path id="Path_4913" data-name="Path 4913" d="M279.065,380.565a1.9,1.9,0,0,0-2.7,0l-3.812,3.811a1.906,1.906,0,1,0,2.7,2.7l3.813-3.811A1.9,1.9,0,0,0,279.065,380.565Z" transform="translate(-271.998 -380.006)" fill="#fff"/>
      </g>
    </g>
    <g id="Group_1840" data-name="Group 1840" transform="translate(59.094 95.498)">
      <g id="Group_1839" data-name="Group 1839">
        <path id="Path_4914" data-name="Path 4914" d="M256.231,390l-5.719-1.906a1.906,1.906,0,0,0-1.207,3.616l5.719,1.906A1.906,1.906,0,0,0,256.231,390Z" transform="translate(-248.003 -387.991)" fill="#fff"/>
      </g>
    </g>
    <g id="Group_1842" data-name="Group 1842" transform="translate(83.875 116.469)">
      <g id="Group_1841" data-name="Group 1841">
        <path id="Path_4915" data-name="Path 4915" d="M357.719,476a1.9,1.9,0,0,0-1.906,1.906,1.907,1.907,0,0,1-1.906,1.906,1.906,1.906,0,0,0,0,3.813,5.726,5.726,0,0,0,5.719-5.719A1.9,1.9,0,0,0,357.719,476Z" transform="translate(-352 -476)" fill="#fff"/>
      </g>
    </g>
    <g id="Group_1844" data-name="Group 1844" transform="translate(30.5 116.469)">
      <g id="Group_1843" data-name="Group 1843">
        <path id="Path_4916" data-name="Path 4916" d="M133.719,479.813a1.907,1.907,0,0,1-1.906-1.906,1.906,1.906,0,0,0-3.812,0,5.726,5.726,0,0,0,5.719,5.719,1.906,1.906,0,0,0,0-3.812Z" transform="translate(-128 -476)" fill="#fff"/>
      </g>
    </g>
    <g id="Group_1846" data-name="Group 1846" transform="translate(89.594 55.469)">
      <g id="Group_1845" data-name="Group 1845">
        <path id="Path_4917" data-name="Path 4917" d="M406.5,220H377.906A1.9,1.9,0,0,0,376,221.906v26.688a1.9,1.9,0,0,0,1.906,1.906H406.5a1.9,1.9,0,0,0,1.906-1.906V221.906A1.9,1.9,0,0,0,406.5,220Zm-1.906,26.688H379.813V223.813h24.781Z" transform="translate(-376 -220)" fill="#fff"/>
      </g>
    </g>
    <g id="Group_1848" data-name="Group 1848" transform="translate(89.594 61.188)">
      <g id="Group_1847" data-name="Group 1847">
        <path id="Path_4918" data-name="Path 4918" d="M406.5,244H377.906a1.906,1.906,0,0,0,0,3.813H406.5a1.906,1.906,0,0,0,0-3.812Z" transform="translate(-376 -244)" fill="#fff"/>
      </g>
    </g>
    <g id="Group_1850" data-name="Group 1850" transform="translate(97.377 68.813)">
      <g id="Group_1849" data-name="Group 1849">
        <path id="Path_4919" data-name="Path 4919" d="M423.756,276H410.57a1.906,1.906,0,1,0,0,3.813h13.186a1.906,1.906,0,0,0,0-3.812Z" transform="translate(-408.664 -276)" fill="#fff"/>
      </g>
    </g>
    <g id="Group_1852" data-name="Group 1852" transform="translate(97.377 74.531)">
      <g id="Group_1851" data-name="Group 1851">
        <path id="Path_4920" data-name="Path 4920" d="M418.037,300H410.57a1.906,1.906,0,1,0,0,3.813h7.467a1.906,1.906,0,0,0,0-3.812Z" transform="translate(-408.664 -300)" fill="#fff"/>
      </g>
    </g>
    <g id="Group_1854" data-name="Group 1854" transform="translate(3.813 7.813)">
      <g id="Group_1853" data-name="Group 1853">
        <path id="Path_4921" data-name="Path 4921" d="M35.063,20A19.063,19.063,0,1,0,54.125,39.063,19.084,19.084,0,0,0,35.063,20Zm0,34.313a15.25,15.25,0,1,1,15.25-15.25A15.268,15.268,0,0,1,35.063,54.313Z" transform="translate(-16 -20)" fill="#fff"/>
      </g>
    </g>
    <g id="Group_1856" data-name="Group 1856" transform="translate(20.969 11.625)">
      <g id="Group_1855" data-name="Group 1855">
        <path id="Path_4922" data-name="Path 4922" d="M93.719,43.625a1.906,1.906,0,0,1,0-3.812,1.906,1.906,0,0,0,0-3.812,5.719,5.719,0,0,0,0,11.438,1.906,1.906,0,0,0,0-3.812Z" transform="translate(-88 -36)" fill="#fff"/>
      </g>
    </g>
    <g id="Group_1858" data-name="Group 1858" transform="translate(24.781 11.625)">
      <g id="Group_1857" data-name="Group 1857">
        <path id="Path_4923" data-name="Path 4923" d="M112.877,36h-6.971a1.906,1.906,0,0,0,0,3.813h6.971a1.906,1.906,0,0,0,0-3.812Z" transform="translate(-104 -36)" fill="#fff"/>
      </g>
    </g>
    <g id="Group_1860" data-name="Group 1860" transform="translate(24.781 19.25)">
      <g id="Group_1859" data-name="Group 1859">
        <path id="Path_4924" data-name="Path 4924" d="M118.221,68H105.906a1.906,1.906,0,0,0,0,3.813h12.314a1.906,1.906,0,0,0,0-3.812Z" transform="translate(-104 -68)" fill="#fff"/>
      </g>
    </g>
    <g id="Group_1862" data-name="Group 1862" transform="translate(13.344 30.688)">
      <g id="Group_1861" data-name="Group 1861">
        <path id="Path_4925" data-name="Path 4925" d="M57.906,116a1.906,1.906,0,0,0,0,3.813,1.906,1.906,0,0,1,0,3.813,1.906,1.906,0,0,0,0,3.813,5.719,5.719,0,0,0,0-11.437Z" transform="translate(-56 -116)" fill="#fff"/>
      </g>
    </g>
    <g id="Group_1864" data-name="Group 1864" transform="translate(10.187 38.313)">
      <g id="Group_1863" data-name="Group 1863">
        <path id="Path_4926" data-name="Path 4926" d="M47.815,148H44.658a1.906,1.906,0,0,0,0,3.813h3.157a1.906,1.906,0,1,0,0-3.812Z" transform="translate(-42.752 -148)" fill="#fff"/>
      </g>
    </g>
    <g id="Group_1866" data-name="Group 1866" transform="translate(4.79 30.688)">
      <g id="Group_1865" data-name="Group 1865">
        <path id="Path_4927" data-name="Path 4927" d="M30.564,116H22.01a1.906,1.906,0,0,0,0,3.813h8.553a1.906,1.906,0,0,0,0-3.812Z" transform="translate(-20.104 -116)" fill="#fff"/>
      </g>
    </g>
    <g id="Group_1868" data-name="Group 1868" transform="translate(0 59.281)">
      <g id="Group_1867" data-name="Group 1867">
        <path id="Path_4928" data-name="Path 4928" d="M30.5,236H1.906A1.9,1.9,0,0,0,0,237.906v22.875a1.9,1.9,0,0,0,1.906,1.906H30.5a1.9,1.9,0,0,0,1.906-1.906V237.906A1.9,1.9,0,0,0,30.5,236Zm-1.906,22.875H3.813V239.813H28.594Z" transform="translate(0 -236)" fill="#fff"/>
      </g>
    </g>
    <g id="Group_1870" data-name="Group 1870" transform="translate(5.718 74.533)">
      <g id="Group_1869" data-name="Group 1869">
        <path id="Path_4929" data-name="Path 4929" d="M32.765,300.39a1.9,1.9,0,0,0-2.667.381L24.379,308.4a1.9,1.9,0,1,0,3.048,2.286l5.719-7.625A1.9,1.9,0,0,0,32.765,300.39Z" transform="translate(-23.997 -300.008)" fill="#fff"/>
      </g>
    </g>
    <g id="Group_1872" data-name="Group 1872" transform="translate(11.438 74.532)">
      <g id="Group_1871" data-name="Group 1871">
        <path id="Path_4930" data-name="Path 4930" d="M55.13,305.7l-3.7-4.933a1.9,1.9,0,1,0-3.048,2.286l3.7,4.933A1.9,1.9,0,1,0,55.13,305.7Z" transform="translate(-48 -300.003)" fill="#fff"/>
      </g>
    </g>
    <g id="Group_1874" data-name="Group 1874" transform="translate(13.343 70.718)">
      <g id="Group_1873" data-name="Group 1873">
        <path id="Path_4931" data-name="Path 4931" d="M66.586,284.317a1.9,1.9,0,0,0-2.644.528l-7.625,11.438a1.906,1.906,0,0,0,3.172,2.116l7.625-11.437A1.9,1.9,0,0,0,66.586,284.317Z" transform="translate(-55.995 -283.995)" fill="#fff"/>
      </g>
    </g>
    <g id="Group_1876" data-name="Group 1876" transform="translate(20.968 70.718)">
      <g id="Group_1875" data-name="Group 1875">
        <path id="Path_4932" data-name="Path 4932" d="M99.114,296.282l-7.625-11.437a1.906,1.906,0,0,0-3.172,2.116L95.942,298.4a1.906,1.906,0,1,0,3.172-2.116Z" transform="translate(-87.995 -283.995)" fill="#fff"/>
      </g>
    </g>
    <g id="Group_1878" data-name="Group 1878" transform="translate(7.673 66.906)">
      <g id="Group_1877" data-name="Group 1877">
        <path id="Path_4933" data-name="Path 4933" d="M34.116,268h-.021a1.917,1.917,0,1,0,.021,0Z" transform="translate(-32.2 -268)" fill="#fff"/>
      </g>
    </g>
    <g id="Group_1880" data-name="Group 1880" transform="translate(78.156 4)">
      <g id="Group_1879" data-name="Group 1879">
        <path id="Path_4934" data-name="Path 4934" d="M348.969,4H329.906A1.9,1.9,0,0,0,328,5.906V24.969a1.9,1.9,0,0,0,1.906,1.906h19.063a1.9,1.9,0,0,0,1.906-1.906V5.906A1.9,1.9,0,0,0,348.969,4Zm-1.906,19.063h-15.25V7.813h15.25Z" transform="translate(-328 -4)" fill="#fff"/>
      </g>
    </g>
    <g id="Group_1882" data-name="Group 1882" transform="translate(93.406 30.688)">
      <g id="Group_1881" data-name="Group 1881">
        <path id="Path_4935" data-name="Path 4935" d="M403.438,116h-9.531A1.9,1.9,0,0,0,392,117.906v9.531a1.9,1.9,0,0,0,1.906,1.906h9.531a1.9,1.9,0,0,0,1.906-1.906v-9.531A1.9,1.9,0,0,0,403.438,116Zm-1.906,9.531h-5.719v-5.719h5.719Z" transform="translate(-392 -116)" fill="#fff"/>
      </g>
    </g>
    <g id="Group_1884" data-name="Group 1884" transform="translate(61 11.625)">
      <g id="Group_1883" data-name="Group 1883">
        <path id="Path_4936" data-name="Path 4936" d="M265.531,36h-7.625A1.9,1.9,0,0,0,256,37.906v7.625a1.9,1.9,0,0,0,1.906,1.906h7.625a1.9,1.9,0,0,0,1.906-1.906V37.906A1.9,1.9,0,0,0,265.531,36Zm-1.906,7.625h-3.812V39.813h3.813Z" transform="translate(-256 -36)" fill="#fff"/>
      </g>
    </g>
  </g>
</svg>
