<svg xmlns="http://www.w3.org/2000/svg" width="122" height="122" viewBox="0 0 122 122">
  <g id="web-portals" transform="translate(0 0)">
    <path id="Path_4939" data-name="Path 4939" d="M110.518,97.6A11.5,11.5,0,0,0,122,86.115V11.484A11.5,11.5,0,0,0,110.518,0H11.482A11.5,11.5,0,0,0,0,11.484V86.108A11.5,11.5,0,0,0,11.482,97.6H12.2v4.067H7.243a6.1,6.1,0,0,0-5.92,7.581l2.033,8.133A6.1,6.1,0,0,0,9.277,122H112.724a6.1,6.1,0,0,0,5.92-4.619l2.033-8.133a6.1,6.1,0,0,0-5.92-7.581H109.8V97.6ZM4.067,86.115V11.484a7.427,7.427,0,0,1,7.415-7.418h99.036a7.427,7.427,0,0,1,7.415,7.418V86.108a7.426,7.426,0,0,1-7.415,7.425H11.482a7.427,7.427,0,0,1-7.415-7.418Zm112.295,20.4a2.022,2.022,0,0,1,.371,1.744l-2.033,8.133a2.036,2.036,0,0,1-1.976,1.541H9.277A2.036,2.036,0,0,1,7.3,116.392l-2.033-8.133a2.035,2.035,0,0,1,1.976-2.526H42.7v6.1a2.033,2.033,0,0,0,2.033,2.033H77.267a2.033,2.033,0,0,0,2.033-2.033v-6.1h35.457a2.022,2.022,0,0,1,1.6.782Zm-69.595-.782H75.233V109.8H46.767Zm58.967-4.067H16.267V97.6h89.467Zm0,0" fill="#fff"/>
    <path id="Path_4940" data-name="Path 4940" d="M147.3,117.642V42.758a5.265,5.265,0,0,0-5.258-5.258H42.758A5.265,5.265,0,0,0,37.5,42.758v74.884a5.265,5.265,0,0,0,5.258,5.258h99.284A5.265,5.265,0,0,0,147.3,117.642ZM42.758,41.567h99.284a1.193,1.193,0,0,1,1.191,1.191V49.7H41.566V42.758a1.193,1.193,0,0,1,1.191-1.191Zm-1.191,76.075V53.767H143.233v63.875a1.193,1.193,0,0,1-1.191,1.191H42.758a1.193,1.193,0,0,1-1.191-1.191Zm0,0" transform="translate(-31.4 -31.4)" fill="#fff"/>
    <path id="Path_4941" data-name="Path 4941" d="M87.5,75h4.067v4.067H87.5Zm0,0" transform="translate(-73.267 -62.8)" fill="#fff"/>
    <path id="Path_4942" data-name="Path 4942" d="M125,75h4.067v4.067H125Zm0,0" transform="translate(-104.667 -62.8)" fill="#fff"/>
    <path id="Path_4943" data-name="Path 4943" d="M162.5,75h4.067v4.067H162.5Zm0,0" transform="translate(-136.067 -62.8)" fill="#fff"/>
    <path id="Path_4944" data-name="Path 4944" d="M637.5,75h4.067v4.067H637.5Zm0,0" transform="translate(-533.8 -62.8)" fill="#fff"/>
    <path id="Path_4945" data-name="Path 4945" d="M248.814,150.02c-.056,0-.11-.02-.166-.02s-.111.018-.167.02a24.38,24.38,0,0,0,0,48.761c.062,0,.116.02.174.02s.114-.018.175-.02a24.38,24.38,0,0,0,0-48.761Zm9.963,22.347a57.768,57.768,0,0,0-.8-7.974,24.255,24.255,0,0,0,5.872-3.457,20.236,20.236,0,0,1,5.016,11.431Zm-10.065,22.367h-.13c-1.423-.081-3.227-2.867-4.5-7.574a20.465,20.465,0,0,1,9.126,0c-1.271,4.707-3.081,7.493-4.5,7.574Zm8.37-6.277a20.035,20.035,0,0,1,3.734,2.21,20.2,20.2,0,0,1-5.693,2.992A26.882,26.882,0,0,0,257.082,188.457Zm-14.9,5.2a20.105,20.105,0,0,1-5.7-2.985,20.112,20.112,0,0,1,3.734-2.2,26.884,26.884,0,0,0,1.966,5.189Zm1.058-10.478a52.421,52.421,0,0,1-.651-6.74h12.122a52.421,52.421,0,0,1-.651,6.74A24.487,24.487,0,0,0,243.237,183.174Zm-.651-10.807a52.422,52.422,0,0,1,.651-6.74,23.548,23.548,0,0,0,10.821,0,52.422,52.422,0,0,1,.651,6.74Zm6-18.288h.13c1.423.082,3.227,2.867,4.5,7.576a20.446,20.446,0,0,1-9.126,0c1.271-4.709,3.081-7.494,4.5-7.576Zm-8.37,6.265a20.035,20.035,0,0,1-3.734-2.21,20.137,20.137,0,0,1,5.693-2.992,26.69,26.69,0,0,0-1.958,5.2Zm14.9-5.2a20.107,20.107,0,0,1,5.7,2.985,20.113,20.113,0,0,1-3.734,2.2,26.869,26.869,0,0,0-1.966-5.189Zm-21.672,5.785a24.3,24.3,0,0,0,5.872,3.458,57.8,57.8,0,0,0-.8,7.976H228.428a20.233,20.233,0,0,1,5.016-11.434Zm-5.016,15.5h10.089a57.574,57.574,0,0,0,.8,7.974,24.194,24.194,0,0,0-5.874,3.457A20.236,20.236,0,0,1,228.428,176.433Zm35.422,11.434a24.177,24.177,0,0,0-5.874-3.458,57.582,57.582,0,0,0,.8-7.976h10.089A20.233,20.233,0,0,1,263.85,187.867Zm0,0" transform="translate(-187.647 -125.6)" fill="#fff"/>
    <path id="Path_4946" data-name="Path 4946" d="M387.5,462.5h16.267v4.067H387.5Zm0,0" transform="translate(-324.467 -387.267)" fill="#fff"/>
    <path id="Path_4947" data-name="Path 4947" d="M262.5,462.5h16.267v4.067H262.5Zm0,0" transform="translate(-219.8 -387.267)" fill="#fff"/>
    <path id="Path_4948" data-name="Path 4948" d="M262.5,500h36.6v4.067H262.5Zm0,0" transform="translate(-219.8 -418.667)" fill="#fff"/>
  </g>
</svg>
