<svg id="zoho-1" xmlns="http://www.w3.org/2000/svg" xmlns:xlink="http://www.w3.org/1999/xlink" width="149.368" height="51.52" viewBox="0 0 149.368 51.52">
  <defs>
    <linearGradient id="linear-gradient" x1="0.5" y1="0.014" x2="0.5" y2="0.97" gradientUnits="objectBoundingBox">
      <stop offset="0.006" stop-color="#ffe513"/>
      <stop offset="1" stop-color="#fdb924"/>
    </linearGradient>
    <linearGradient id="linear-gradient-2" x1="0.045" y1="0.135" x2="0.957" y2="0.871" gradientUnits="objectBoundingBox">
      <stop offset="0.006" stop-color="#008cd2"/>
      <stop offset="1" stop-color="#00649d"/>
    </linearGradient>
    <linearGradient id="linear-gradient-3" x1="0.5" y1="0.278" x2="0.5" y2="0.975" gradientUnits="objectBoundingBox">
      <stop offset="0" stop-color="#26a146"/>
      <stop offset="1" stop-color="#008a52"/>
    </linearGradient>
    <linearGradient id="linear-gradient-4" x1="0.437" y1="0.082" x2="0.575" y2="0.932" gradientUnits="objectBoundingBox">
      <stop offset="0" stop-color="#d92231"/>
      <stop offset="1" stop-color="#ba2234"/>
    </linearGradient>
  </defs>
  <path id="Path_4479" data-name="Path 4479" d="M500.1,37.7V73.117L495.2,77.9V43.243Z" transform="translate(-350.733 -26.702)" fill="#e79225"/>
  <path id="Path_4480" data-name="Path 4480" d="M389.576,37.729,384.5,43.243l.263.35,31.828-.117.292-.233L421.7,37.7Z" transform="translate(-272.328 -26.702)" fill="#fff16d"/>
  <path id="Path_4481" data-name="Path 4481" d="M.5,19.7H32.883V54.387H.5Z" transform="translate(111.672 -3.159)" fill="url(#linear-gradient)"/>
  <path id="Path_4482" data-name="Path 4482" d="M419.247,80.023a12.826,12.826,0,0,0-2.859-4.318,11.835,11.835,0,0,0-4.055-2.771A12.566,12.566,0,0,0,407.49,72a12.714,12.714,0,0,0-4.872.934,11.835,11.835,0,0,0-4.055,2.771,12.745,12.745,0,0,0-2.83,4.318,14.051,14.051,0,0,0-.934,5.28,14.232,14.232,0,0,0,.963,5.251,12.98,12.98,0,0,0,2.83,4.376,11.856,11.856,0,0,0,4,2.713,12.9,12.9,0,0,0,4.93.934,12.526,12.526,0,0,0,4.814-.934,12.38,12.38,0,0,0,4.055-2.713,13.238,13.238,0,0,0,2.859-4.347,14.962,14.962,0,0,0,0-10.561Zm-6.681,11.436a6.892,6.892,0,0,1-10.182,0,9.321,9.321,0,0,1-1.867-6.185A9.685,9.685,0,0,1,402.385,79a6.2,6.2,0,0,1,5.105-2.246A6.268,6.268,0,0,1,412.567,79a9.684,9.684,0,0,1,1.867,6.272A9.321,9.321,0,0,1,412.567,91.459Z" transform="translate(-279.623 -50.995)" fill="#fff"/>
  <g id="Group_1697" data-name="Group 1697" transform="translate(75.063 8.11)">
    <path id="Path_4483" data-name="Path 4483" d="M366.659,27.8v.175L370.8,59.8l-2.421,6.71-.321-.233L363.8,35.764l.087-.408,2.655-7.381.117-.175Z" transform="translate(-332.73 -27.8)" fill="#009ada"/>
    <path id="Path_4484" data-name="Path 4484" d="M261.892,32.234,293.779,27.8l-2.684,7.643-.379.408L260.9,40.228l.146-5.455Z" transform="translate(-259.85 -27.8)" fill="#91c9ed"/>
    <path id="Path_4485" data-name="Path 4485" d="M31.545,27,35.95,58.07,4.53,62.475.3,32.455l1.838-1.43Z" transform="translate(-0.3 -19.357)" fill="url(#linear-gradient-2)"/>
    <path id="Path_4486" data-name="Path 4486" d="M298.646,67.671a3.652,3.652,0,0,0-.992-2.188,2.337,2.337,0,0,0-1.575-.583,3,3,0,0,0-.5.029,2.421,2.421,0,0,0-1.809,1.109,2.9,2.9,0,0,0-.408,1.634,7.183,7.183,0,0,0,.058.759l1.138,8.081-9.044,1.342-1.138-8.081a3.648,3.648,0,0,0-.992-2.159,2.408,2.408,0,0,0-1.984-.583,2.6,2.6,0,0,0-1.9,1.109,2.9,2.9,0,0,0-.408,1.634c0,.233.029.5.058.788l3.092,21.034a3.388,3.388,0,0,0,1.05,2.188,2.337,2.337,0,0,0,1.6.554,3.17,3.17,0,0,0,.525-.029,2.363,2.363,0,0,0,1.75-1.109,3,3,0,0,0,.379-1.575,7.183,7.183,0,0,0-.058-.759l-1.254-8.314,9.044-1.342,1.254,8.314a3.357,3.357,0,0,0,1.021,2.159,2.337,2.337,0,0,0,1.575.583,3,3,0,0,0,.5-.029,2.421,2.421,0,0,0,1.809-1.109,3.045,3.045,0,0,0,.408-1.6,7.183,7.183,0,0,0-.058-.759l-3.151-21.092Z" transform="translate(-272.74 -54.077)" fill="#fff"/>
  </g>
  <g id="Group_1698" data-name="Group 1698" transform="translate(35.913)">
    <path id="Path_4487" data-name="Path 4487" d="M134.448,0,123.1,26.956,124.646,38.8l.088-.029,12.749-28.678-.058-.613-2.742-9.1Z" transform="translate(-123.1)" fill="#66bf6b"/>
    <path id="Path_4488" data-name="Path 4488" d="M162,0l2.947,9.89.058.2L193.07,22.668l.088-.058-2.392-9.452Z" transform="translate(-150.652)" fill="#98d0a0"/>
    <path id="Path_4489" data-name="Path 4489" d="M18.149,33.9,46.36,46.62,33.611,75.531,5.4,62.811Z" transform="translate(-3.854 -24.01)" fill="url(#linear-gradient-3)"/>
    <path id="Path_4490" data-name="Path 4490" d="M179.3,66.164a12.241,12.241,0,0,0-2.567-4.2,12.347,12.347,0,0,0-8.781-3.763h-.088a11.784,11.784,0,0,0-4.814,1.079,12.87,12.87,0,0,0-4.318,3.034,15.229,15.229,0,0,0-2.976,4.668,15.619,15.619,0,0,0-1.254,5.368v.613a13.4,13.4,0,0,0,.817,4.639,12.307,12.307,0,0,0,11.378,7.906h.029a12.166,12.166,0,0,0,4.784-1.021,13.066,13.066,0,0,0,4.347-3.063,15.151,15.151,0,0,0,3-4.639,15.774,15.774,0,0,0,1.254-5.368V70.89a12.61,12.61,0,0,0-.817-4.726Zm-5.63,8.4a9.961,9.961,0,0,1-4.2,5.164,6.078,6.078,0,0,1-2.859.759,6.939,6.939,0,0,1-2.655-.583,6.034,6.034,0,0,1-3.734-4.113,7.617,7.617,0,0,1-.263-2.013,12,12,0,0,1,1.05-4.609,10.342,10.342,0,0,1,4.23-5.28,5.755,5.755,0,0,1,2.859-.759,7.078,7.078,0,0,1,2.684.583,6.057,6.057,0,0,1,3.705,4.113,7.246,7.246,0,0,1,.263,1.984A12.209,12.209,0,0,1,173.667,74.566Z" transform="translate(-145.34 -41.221)" fill="#fff"/>
  </g>
  <g id="Group_1699" data-name="Group 1699" transform="translate(0 4.58)">
    <path id="Path_4491" data-name="Path 4491" d="M109.876,15.7l4.609,30.866-2.1,10.853-.292-.379L107.6,27.224V26.64l1.984-10.415Z" transform="translate(-76.209 -15.7)" fill="#760d16"/>
    <path id="Path_4492" data-name="Path 4492" d="M0,31.658,2.188,20.747,33.666,15.7l-2.13,11.115v.729L.379,31.95Z" transform="translate(0 -15.7)" fill="#ef463e"/>
    <path id="Path_4493" data-name="Path 4493" d="M31.537,38.8l4.639,30.6L5.018,74.275,0,43.643Z" transform="translate(0 -27.685)" fill="url(#linear-gradient-4)"/>
    <path id="Path_4494" data-name="Path 4494" d="M46.6,88.738A2.176,2.176,0,0,0,45.6,88.1a4.542,4.542,0,0,0-1.517-.2,11.735,11.735,0,0,0-1.9.175l-8.227,1.4a7.8,7.8,0,0,1,.963-2.48A33.223,33.223,0,0,1,37.669,82.9c.408-.554.729-.963.963-1.254.146-.2.379-.467.671-.846a20.426,20.426,0,0,0,3.5-6.068,12.589,12.589,0,0,0,.467-2.713,6.346,6.346,0,0,0,.029-.729,10.743,10.743,0,0,0-.175-1.925,4.352,4.352,0,0,0-.438-1.43,2.112,2.112,0,0,0-.729-.846,2.752,2.752,0,0,0-1.43-.292,11.981,11.981,0,0,0-1.838.175L29.18,68.609a4.771,4.771,0,0,0-2.538,1.05A2.008,2.008,0,0,0,26,71.176a3,3,0,0,0,.029.5,2.118,2.118,0,0,0,1.225,1.692,3.622,3.622,0,0,0,1.459.263A6.982,6.982,0,0,0,30,73.51l7.935-1.4c0,.146.029.292.029.408a4.16,4.16,0,0,1-.263,1.459,10.666,10.666,0,0,1-1.78,2.8c-.263.321-.671.846-1.225,1.517a37.5,37.5,0,0,0-4.609,6.652,14.364,14.364,0,0,0-1.371,3.763,10.482,10.482,0,0,0-.233,2.071,7.054,7.054,0,0,0,.117,1.371,5.97,5.97,0,0,0,.467,1.575,2.076,2.076,0,0,0,.817.9,2.955,2.955,0,0,0,1.4.233,20.512,20.512,0,0,0,3.238-.35l8.635-1.488a7.288,7.288,0,0,0,3.209-1.138,2.018,2.018,0,0,0,.759-1.6,3.214,3.214,0,0,0-.058-.525A1.933,1.933,0,0,0,46.6,88.738Z" transform="translate(-18.415 -51.892)" fill="#fff"/>
  </g>
</svg>
